<svg width="24" height="24" viewBox="0 0 24 24" fill="none" xmlns="http://www.w3.org/2000/svg">
<path d="M11 9H20M11 9V4.6001C11 4.04005 11.0004 3.75981 11.1094 3.5459C11.2052 3.35774 11.3571 3.20487 11.5452 3.10899C11.7591 3 12.0399 3 12.6 3H20V9M11 9H5.6C5.03995 9 4.75914 9 4.54523 9.10899C4.35707 9.20487 4.20525 9.35774 4.10938 9.5459C4.00038 9.75981 4 10.04 4 10.6001V13.4001C4 13.9601 4.00038 14.2398 4.10938 14.4537C4.20525 14.6419 4.35707 14.7952 4.54523 14.8911C4.75893 15 5.03901 15 5.59797 15H8M20 9V15M20 15V21H9.59797C9.03901 21 8.75893 21 8.54523 20.8911C8.35707 20.7952 8.20525 20.642 8.10938 20.4538C8.00038 20.2399 8 19.9601 8 19.4V15M20 15H8" stroke="white" stroke-width="2" stroke-linecap="round" stroke-linejoin="round"/>
</svg>
