<svg width="24" height="24" viewBox="0 0 24 24" fill="none" xmlns="http://www.w3.org/2000/svg">
<path d="M21.9104 5.7455C21.9305 5.7795 21.9513 5.81351 21.9699 5.84751C21.9985 5.89542 22.0263 5.94488 22.0541 5.99357L22.0626 6.00748C22.0835 6.04457 22.1028 6.08012 22.1221 6.11644C25.143 11.6381 23.2713 18.6009 17.8161 21.8428C16.9158 22.3784 15.9738 22.7787 15.0116 23.0515C14.0155 23.3335 12.9993 23.4781 11.9877 23.4927C9.97069 23.5206 7.97379 23.0275 6.20254 22.0654C4.89961 21.3583 3.71956 20.4 2.74274 19.2068C2.43285 18.8297 2.14305 18.4286 1.87644 18.0051L1.86794 17.9912C1.83857 17.9433 1.80843 17.8962 1.77984 17.8475C1.75898 17.815 1.73888 17.781 1.71879 17.7462C-1.59418 12.1713 0.237342 4.96421 5.8146 1.64969C7.35015 0.737017 9.00779 0.21538 10.6755 0.0554119C12.1909 -0.0929647 13.7141 0.0585028 15.1561 0.487404C17.092 1.06004 18.8826 2.13114 20.3223 3.64427C20.9158 4.27024 21.4513 4.97116 21.9111 5.74473L21.9104 5.7455Z" fill="#A37417"/>
<path d="M22.211 6.2517C25.5247 11.8274 23.6932 19.0329 18.1152 22.3482C17.0371 22.9889 15.8973 23.4379 14.7365 23.7022C13.7566 23.9278 12.762 24.0229 11.7767 23.9943C9.77595 23.9348 7.81382 23.3645 6.08895 22.3374C4.80147 21.5685 3.64769 20.5453 2.70874 19.2857C2.46377 18.958 2.2327 18.6125 2.01864 18.2524C1.9885 18.2014 1.95836 18.1512 1.93054 18.0994C1.91122 18.067 1.89267 18.036 1.87567 18.0044L1.86717 17.9904C-1.23715 12.4518 0.626059 5.42017 6.11599 2.1582C7.48616 1.34445 8.95292 0.840584 10.4382 0.627292C11.9715 0.4055 13.5209 0.493599 14.9977 0.866859C16.9475 1.36068 18.7713 2.35063 20.2605 3.78803C20.932 4.43331 21.5363 5.17055 22.0541 5.99281L22.0626 6.00672C22.0819 6.03763 22.1005 6.06854 22.1198 6.10023C22.1229 6.10255 22.1244 6.10563 22.1244 6.10795C22.1546 6.15432 22.1832 6.20224 22.2118 6.25015L22.211 6.2517Z" fill="#6D3C1B"/>
<path d="M22.0302 5.94719C22.0603 5.9982 22.0912 6.04997 22.119 6.10098C22.1221 6.1033 22.1237 6.10639 22.1237 6.1087C25.3091 11.6628 23.4583 18.7609 17.9343 22.0437C16.9622 22.621 15.9413 23.0422 14.9003 23.3142C13.9112 23.5746 12.9034 23.6983 11.9027 23.6937C9.89186 23.6882 7.90965 23.1651 6.15618 22.1751C4.8602 21.4456 3.68941 20.4603 2.72728 19.2408C2.44289 18.8807 2.17628 18.5012 1.93053 18.1002C1.89885 18.0515 1.86794 17.9997 1.8378 17.9487C1.81771 17.9155 1.79761 17.8815 1.77906 17.8475C-1.45354 12.2872 0.390353 5.14735 5.93361 1.85293C7.40424 0.978894 8.98615 0.462666 10.5812 0.279514C12.1036 0.104089 13.6376 0.230056 15.0935 0.635773C17.034 1.17828 18.8377 2.21691 20.2968 3.6999C20.9235 4.33514 21.4869 5.05152 21.9691 5.8475C21.99 5.87996 22.0101 5.91396 22.0302 5.94719Z" fill="url(#paint0_linear_0_627)"/>
<path d="M21.2798 6.42093C24.3462 11.5809 22.6499 18.2486 17.4908 21.315C12.3316 24.3815 5.66391 22.6844 2.59746 17.5244C-0.468221 12.366 1.22806 5.69759 6.38647 2.63191C11.5449 -0.433767 18.2133 1.26252 21.279 6.42093H21.2798Z" fill="url(#paint1_linear_0_627)" stroke="#281401" stroke-width="0.04" stroke-miterlimit="10"/>
<path d="M21.0935 6.52216C24.0927 11.5685 22.432 18.0909 17.3864 21.0901C12.3401 24.0893 5.81846 22.4301 2.81924 17.3838C-0.179973 12.3374 1.47922 5.81583 6.52557 2.81661C11.5719 -0.182607 18.0943 1.47581 21.0935 6.52216Z" fill="url(#paint2_linear_0_627)"/>
<g style="mix-blend-mode:multiply">
<path d="M20.9529 8.79881C20.9073 8.92787 20.8153 9.01829 20.7087 9.09557C20.4939 9.25167 20.2504 9.35213 20.0093 9.45414C19.6701 9.59866 19.3277 9.73312 19.0047 9.90855L19.0008 9.91086C18.9676 9.93096 18.932 9.94719 18.898 9.96651C18.2667 10.3119 17.6314 10.6612 17.0858 11.1357C15.9081 12.1612 14.9058 13.8235 15.15 15.441C15.2489 16.0963 15.5194 16.6674 16.0039 17.128C16.0858 17.2053 16.1801 17.2694 16.2728 17.332C16.4398 17.4441 16.6206 17.4495 16.7922 17.3575C16.9854 17.2555 17.1716 17.138 17.3555 17.0213C17.6005 16.866 17.8501 16.723 18.1407 16.6713C18.4807 16.6094 18.8478 16.7169 19.1198 16.9263C18.8555 16.8776 18.6623 17.0051 18.49 17.1651C18.3092 17.3305 18.1415 17.5113 17.9684 17.6836C17.9174 17.7339 17.864 17.7826 17.8084 17.8266C17.7226 17.8946 17.6314 17.9502 17.5116 17.9634C17.5541 18.0036 17.5951 18.0368 17.6283 18.077C17.7025 18.1689 17.7396 18.2787 17.7628 18.3923C17.7852 18.509 17.8061 18.6272 17.8285 18.7439C17.9027 19.1303 18.0263 19.3884 18.4143 19.5917C18.3099 19.5855 18.2064 19.5832 18.1036 19.5739C17.592 19.5283 17.2118 19.274 16.946 18.8397C16.8416 18.6689 16.7388 18.4982 16.6314 18.3312C16.4421 18.036 16.1793 17.8281 15.8455 17.7176C15.6886 17.6651 15.5371 17.6033 15.3942 17.5329C15.388 17.6921 15.371 17.8537 15.3424 18.0175C15.2798 18.3629 15.3378 18.6929 15.5062 19.0013C15.6013 19.1759 15.7025 19.3482 15.8022 19.5206C16.0572 19.9611 16.0982 20.417 15.8942 20.8884C15.8532 20.9835 15.8053 21.0754 15.7613 21.1697C15.769 20.7315 15.6013 20.4997 15.2968 20.2501C15.2048 20.1744 15.1113 20.1002 15.0194 20.0237C14.9313 19.9487 14.8525 19.8637 14.8069 19.7547C14.7883 19.706 14.7783 19.6543 14.7636 19.5978C14.6948 19.6968 14.6021 19.7501 14.5016 19.7934C14.4359 19.8212 14.3679 19.8444 14.2991 19.8652C14.0642 19.9356 13.8262 19.9966 13.5943 20.0762C13.3718 20.1519 13.167 20.2609 13.0835 20.5159C13.0294 20.1767 13.1106 19.8034 13.327 19.5337C13.5117 19.3034 13.7559 19.1527 14.0093 19.0121C14.1994 18.9062 14.3926 18.7988 14.5742 18.6774C14.7373 18.5708 14.8184 18.4093 14.7999 18.2091C14.7891 18.0979 14.7783 17.9843 14.7489 17.8753C14.5766 17.23 14.2033 16.7192 13.6755 16.3189C12.3718 15.3312 10.4336 15.417 8.96839 15.9618C8.29142 16.2146 7.68091 16.6056 7.07659 16.9943C7.04336 17.0152 7.01245 17.0384 6.97767 17.0592L6.97381 17.0615C6.66546 17.2617 6.38339 17.4989 6.09437 17.7269C5.88958 17.89 5.68479 18.0553 5.44522 18.1697C5.32621 18.2261 5.20256 18.264 5.0681 18.2424C4.91895 18.2176 4.84399 18.1295 4.85867 17.9804C4.8664 17.9023 4.8834 17.8196 4.91431 17.7478C4.99082 17.5708 5.07119 17.3954 5.15929 17.223C5.25357 17.0353 5.3123 16.8421 5.3378 16.6295C5.45604 15.6388 5.86098 14.7833 6.58741 14.0894C7.10132 13.5979 7.71337 13.2694 8.38107 13.036C8.41893 13.0237 8.45835 12.9943 8.4823 12.9634C8.7721 12.5646 9.13454 12.2447 9.55494 11.9912C10.0194 11.7122 10.5209 11.5291 11.0534 11.4309C11.1964 11.4039 11.3416 11.3869 11.4869 11.366C11.0233 11.7223 10.6438 12.135 10.4421 12.6952C10.4553 12.7007 10.4599 12.703 10.4638 12.7037C10.4846 12.7053 10.5063 12.7068 10.5287 12.7076C10.98 12.73 11.4228 12.805 11.8494 12.9541C12.2597 13.0971 12.6415 13.2741 12.9908 13.485C12.9707 13.0778 12.9977 12.6581 13.0688 12.2292C13.1423 11.7833 13.2875 11.3583 13.4838 10.9518C13.4931 10.9317 13.5032 10.9124 13.5109 10.8931C13.5124 10.8892 13.5124 10.8838 13.514 10.8699C12.9259 10.7787 12.3818 10.9147 11.8471 11.152C11.9344 11.0345 12.0194 10.9147 12.1114 10.8027C12.4522 10.3823 12.8525 10.0291 13.32 9.75399C13.7427 9.50515 14.1971 9.34054 14.6863 9.2764C14.7249 9.27021 14.7698 9.24935 14.7984 9.2223C15.3223 8.74781 15.9035 8.36682 16.5804 8.15044C17.5371 7.84364 18.4823 7.89696 19.4089 8.26713C19.6075 8.34595 19.8061 8.38691 20.0155 8.39387C20.2087 8.39928 20.4019 8.41242 20.5935 8.43019C20.6716 8.43792 20.7527 8.46187 20.8246 8.49279C20.9629 8.55075 21.0047 8.65971 20.9544 8.8019L20.9529 8.79881Z" fill="#3A2415"/>
<path d="M20.8061 9.02757C20.7605 9.15663 20.6685 9.24705 20.5619 9.32433C20.347 9.48043 20.1036 9.58089 19.8625 9.6829C19.5232 9.82741 19.1809 9.96188 18.8578 10.1373L18.854 10.1396C18.8208 10.1597 18.7852 10.1759 18.7512 10.1953C18.1198 10.5407 17.4846 10.89 16.939 11.3645C15.7613 12.39 14.7589 14.0523 15.0031 15.6697C15.1021 16.3251 15.3725 16.8962 15.8571 17.3568C15.939 17.434 16.0333 17.4982 16.126 17.5608C16.2929 17.6728 16.4738 17.6782 16.6453 17.5863C16.8385 17.4843 17.0248 17.3668 17.2087 17.2501C17.4537 17.0948 17.7033 16.9518 17.9939 16.9C18.3339 16.8382 18.701 16.9456 18.973 17.1551C18.7087 17.1064 18.5155 17.2339 18.3432 17.3939C18.1623 17.5592 17.9946 17.7401 17.8215 17.9124C17.7705 17.9626 17.7172 18.0113 17.6616 18.0554C17.5758 18.1234 17.4846 18.179 17.3648 18.1921C17.4073 18.2323 17.4483 18.2656 17.4815 18.3057C17.5557 18.3977 17.5928 18.5074 17.616 18.621C17.6384 18.7377 17.6592 18.856 17.6817 18.9727C17.7558 19.3591 17.8795 19.6172 18.2674 19.8204C18.1631 19.8142 18.0595 19.8119 17.9568 19.8027C17.4452 19.7571 17.065 19.5028 16.7991 19.0685C16.6948 18.8977 16.592 18.7269 16.4846 18.56C16.2953 18.2648 16.0325 18.0569 15.6987 17.9464C15.5418 17.8938 15.3903 17.832 15.2473 17.7617C15.2412 17.9209 15.2242 18.0824 15.1956 18.2462C15.133 18.5917 15.1909 18.9217 15.3594 19.23C15.4545 19.4047 15.5557 19.577 15.6554 19.7493C15.9104 20.1898 15.9514 20.6458 15.7473 21.1172C15.7064 21.2122 15.6585 21.3042 15.6144 21.3985C15.6222 20.9603 15.4545 20.7285 15.15 20.4788C15.058 20.4031 14.9645 20.3289 14.8725 20.2524C14.7844 20.1775 14.7056 20.0925 14.66 19.9835C14.6415 19.9348 14.6314 19.883 14.6167 19.8266C14.548 19.9255 14.4552 19.9788 14.3548 20.0221C14.2891 20.0499 14.2211 20.0731 14.1523 20.094C13.9174 20.1643 13.6793 20.2254 13.4475 20.305C13.2249 20.3807 13.0202 20.4897 12.9367 20.7447C12.8826 20.4054 12.9637 20.0322 13.1801 19.7625C13.3648 19.5322 13.609 19.3815 13.8625 19.2408C14.0526 19.135 14.2458 19.0275 14.4274 18.9062C14.5905 18.7996 14.6716 18.6381 14.6531 18.4379C14.6422 18.3266 14.6314 18.213 14.6021 18.104C14.4297 17.4588 14.0565 16.9479 13.5287 16.5476C12.2249 15.56 10.2868 15.6458 8.82156 16.1906C8.14459 16.4433 7.53408 16.8343 6.92975 17.2231C6.89652 17.2439 6.86561 17.2671 6.83084 17.288L6.82697 17.2903C6.51863 17.4904 6.23656 17.7277 5.94753 17.9557C5.74274 18.1187 5.53795 18.2841 5.29839 18.3985C5.17937 18.4549 5.05573 18.4928 4.92126 18.4711C4.77211 18.4464 4.69715 18.3583 4.71183 18.2091C4.71956 18.1311 4.73656 18.0484 4.76748 17.9765C4.84398 17.7996 4.92435 17.6241 5.01245 17.4518C5.10673 17.264 5.16546 17.0708 5.19097 16.8583C5.3092 15.8676 5.71415 15.0121 6.44058 14.3181C6.95448 13.8266 7.56654 13.4982 8.23423 13.2648C8.2721 13.2524 8.31151 13.2231 8.33547 13.1922C8.62527 12.7934 8.98771 12.4735 9.40811 12.22C9.87256 11.941 10.3741 11.7579 10.9066 11.6597C11.0495 11.6327 11.1948 11.6157 11.3401 11.5948C10.8764 11.9511 10.497 12.3637 10.2953 12.924C10.3084 12.9294 10.3131 12.9317 10.3169 12.9325C10.3378 12.934 10.3594 12.9356 10.3818 12.9364C10.8331 12.9588 11.276 13.0337 11.7025 13.1829C12.1129 13.3259 12.4946 13.5028 12.844 13.7138C12.8239 13.3065 12.8509 12.8869 12.922 12.458C12.9954 12.0121 13.1407 11.5871 13.337 11.1806C13.3463 11.1605 13.3563 11.1412 13.364 11.1218C13.3656 11.118 13.3656 11.1126 13.3671 11.0987C12.779 11.0075 12.235 11.1435 11.7002 11.3807C11.7875 11.2633 11.8725 11.1435 11.9645 11.0314C12.3053 10.611 12.7056 10.2579 13.1732 9.98275C13.5959 9.73391 14.0503 9.5693 14.5395 9.50516C14.5781 9.49898 14.6229 9.47811 14.6515 9.45106C15.1755 8.97657 15.7566 8.59558 16.4336 8.3792C17.3903 8.0724 18.3354 8.12572 19.262 8.49589C19.4606 8.57471 19.6592 8.61567 19.8687 8.62263C20.0619 8.62804 20.2551 8.64117 20.4467 8.65895C20.5248 8.66668 20.6059 8.69063 20.6778 8.72154C20.8161 8.7795 20.8578 8.88847 20.8076 9.03066L20.8061 9.02757Z" fill="url(#paint3_radial_0_627)"/>
<path opacity="0.85" d="M20.8061 9.02757C20.7605 9.15663 20.6685 9.24705 20.5619 9.32433C20.347 9.48043 20.1036 9.58089 19.8625 9.6829C19.5232 9.82741 19.1809 9.96188 18.8578 10.1373L18.854 10.1396C18.8208 10.1597 18.7852 10.1759 18.7512 10.1953C18.1198 10.5407 17.4846 10.89 16.939 11.3645C15.7613 12.39 14.7589 14.0523 15.0031 15.6697C15.1021 16.3251 15.3725 16.8962 15.8571 17.3568C15.939 17.434 16.0333 17.4982 16.126 17.5608C16.2929 17.6728 16.4738 17.6782 16.6453 17.5863C16.8385 17.4843 17.0248 17.3668 17.2087 17.2501C17.4537 17.0948 17.7033 16.9518 17.9939 16.9C18.3339 16.8382 18.701 16.9456 18.973 17.1551C18.7087 17.1064 18.5155 17.2339 18.3432 17.3939C18.1623 17.5592 17.9946 17.7401 17.8215 17.9124C17.7705 17.9626 17.7172 18.0113 17.6616 18.0554C17.5758 18.1234 17.4846 18.179 17.3648 18.1921C17.4073 18.2323 17.4483 18.2656 17.4815 18.3057C17.5557 18.3977 17.5928 18.5074 17.616 18.621C17.6384 18.7377 17.6592 18.856 17.6817 18.9727C17.7558 19.3591 17.8795 19.6172 18.2674 19.8204C18.1631 19.8142 18.0595 19.8119 17.9568 19.8027C17.4452 19.7571 17.065 19.5028 16.7991 19.0685C16.6948 18.8977 16.592 18.7269 16.4846 18.56C16.2953 18.2648 16.0325 18.0569 15.6987 17.9464C15.5418 17.8938 15.3903 17.832 15.2473 17.7617C15.2412 17.9209 15.2242 18.0824 15.1956 18.2462C15.133 18.5917 15.1909 18.9217 15.3594 19.23C15.4545 19.4047 15.5557 19.577 15.6554 19.7493C15.9104 20.1898 15.9514 20.6458 15.7473 21.1172C15.7064 21.2122 15.6585 21.3042 15.6144 21.3985C15.6222 20.9603 15.4545 20.7285 15.15 20.4788C15.058 20.4031 14.9645 20.3289 14.8725 20.2524C14.7844 20.1775 14.7056 20.0925 14.66 19.9835C14.6415 19.9348 14.6314 19.883 14.6167 19.8266C14.548 19.9255 14.4552 19.9788 14.3548 20.0221C14.2891 20.0499 14.2211 20.0731 14.1523 20.094C13.9174 20.1643 13.6793 20.2254 13.4475 20.305C13.2249 20.3807 13.0202 20.4897 12.9367 20.7447C12.8826 20.4054 12.9637 20.0322 13.1801 19.7625C13.3648 19.5322 13.609 19.3815 13.8625 19.2408C14.0526 19.135 14.2458 19.0275 14.4274 18.9062C14.5905 18.7996 14.6716 18.6381 14.6531 18.4379C14.6422 18.3266 14.6314 18.213 14.6021 18.104C14.4297 17.4588 14.0565 16.9479 13.5287 16.5476C12.2249 15.56 10.2868 15.6458 8.82156 16.1906C8.14459 16.4433 7.53408 16.8343 6.92975 17.2231C6.89652 17.2439 6.86561 17.2671 6.83084 17.288L6.82697 17.2903C6.51863 17.4904 6.23656 17.7277 5.94753 17.9557C5.74274 18.1187 5.53795 18.2841 5.29839 18.3985C5.17937 18.4549 5.05573 18.4928 4.92126 18.4711C4.77211 18.4464 4.69715 18.3583 4.71183 18.2091C4.71956 18.1311 4.73656 18.0484 4.76748 17.9765C4.84398 17.7996 4.92435 17.6241 5.01245 17.4518C5.10673 17.264 5.16546 17.0708 5.19097 16.8583C5.3092 15.8676 5.71415 15.0121 6.44058 14.3181C6.95448 13.8266 7.56654 13.4982 8.23423 13.2648C8.2721 13.2524 8.31151 13.2231 8.33547 13.1922C8.62527 12.7934 8.98771 12.4735 9.40811 12.22C9.87256 11.941 10.3741 11.7579 10.9066 11.6597C11.0495 11.6327 11.1948 11.6157 11.3401 11.5948C10.8764 11.9511 10.497 12.3637 10.2953 12.924C10.3084 12.9294 10.3131 12.9317 10.3169 12.9325C10.3378 12.934 10.3594 12.9356 10.3818 12.9364C10.8331 12.9588 11.276 13.0337 11.7025 13.1829C12.1129 13.3259 12.4946 13.5028 12.844 13.7138C12.8239 13.3065 12.8509 12.8869 12.922 12.458C12.9954 12.0121 13.1407 11.5871 13.337 11.1806C13.3463 11.1605 13.3563 11.1412 13.364 11.1218C13.3656 11.118 13.3656 11.1126 13.3671 11.0987C12.779 11.0075 12.235 11.1435 11.7002 11.3807C11.7875 11.2633 11.8725 11.1435 11.9645 11.0314C12.3053 10.611 12.7056 10.2579 13.1732 9.98275C13.5959 9.73391 14.0503 9.5693 14.5395 9.50516C14.5781 9.49898 14.6229 9.47811 14.6515 9.45106C15.1755 8.97657 15.7566 8.59558 16.4336 8.3792C17.3903 8.0724 18.3354 8.12572 19.262 8.49589C19.4606 8.57471 19.6592 8.61567 19.8687 8.62263C20.0619 8.62804 20.2551 8.64117 20.4467 8.65895C20.5248 8.66668 20.6059 8.69063 20.6778 8.72154C20.8161 8.7795 20.8578 8.88847 20.8076 9.03066L20.8061 9.02757Z" fill="#724401"/>
<g style="mix-blend-mode:hard-light">
<path opacity="0.85" d="M20.8061 9.02757C20.7605 9.15663 20.6685 9.24705 20.5619 9.32433C20.347 9.48043 20.1036 9.58089 19.8625 9.6829C19.5232 9.82741 19.1809 9.96188 18.8578 10.1373L18.854 10.1396C18.8208 10.1597 18.7852 10.1759 18.7512 10.1953C18.1198 10.5407 17.4846 10.89 16.939 11.3645C15.7613 12.39 14.7589 14.0523 15.0031 15.6697C15.1021 16.3251 15.3725 16.8962 15.8571 17.3568C15.939 17.434 16.0333 17.4982 16.126 17.5608C16.2929 17.6728 16.4738 17.6782 16.6453 17.5863C16.8385 17.4843 17.0248 17.3668 17.2087 17.2501C17.4537 17.0948 17.7033 16.9518 17.9939 16.9C18.3339 16.8382 18.701 16.9456 18.973 17.1551C18.7087 17.1064 18.5155 17.2339 18.3432 17.3939C18.1623 17.5592 17.9946 17.7401 17.8215 17.9124C17.7705 17.9626 17.7172 18.0113 17.6616 18.0554C17.5758 18.1234 17.4846 18.179 17.3648 18.1921C17.4073 18.2323 17.4483 18.2656 17.4815 18.3057C17.5557 18.3977 17.5928 18.5074 17.616 18.621C17.6384 18.7377 17.6592 18.856 17.6817 18.9727C17.7558 19.3591 17.8795 19.6172 18.2674 19.8204C18.1631 19.8142 18.0595 19.8119 17.9568 19.8027C17.4452 19.7571 17.065 19.5028 16.7991 19.0685C16.6948 18.8977 16.592 18.7269 16.4846 18.56C16.2953 18.2648 16.0325 18.0569 15.6987 17.9464C15.5418 17.8938 15.3903 17.832 15.2473 17.7617C15.2412 17.9209 15.2242 18.0824 15.1956 18.2462C15.133 18.5917 15.1909 18.9217 15.3594 19.23C15.4545 19.4047 15.5557 19.577 15.6554 19.7493C15.9104 20.1898 15.9514 20.6458 15.7473 21.1172C15.7064 21.2122 15.6585 21.3042 15.6144 21.3985C15.6222 20.9603 15.4545 20.7285 15.15 20.4788C15.058 20.4031 14.9645 20.3289 14.8725 20.2524C14.7844 20.1775 14.7056 20.0925 14.66 19.9835C14.6415 19.9348 14.6314 19.883 14.6167 19.8266C14.548 19.9255 14.4552 19.9788 14.3548 20.0221C14.2891 20.0499 14.2211 20.0731 14.1523 20.094C13.9174 20.1643 13.6793 20.2254 13.4475 20.305C13.2249 20.3807 13.0202 20.4897 12.9367 20.7447C12.8826 20.4054 12.9637 20.0322 13.1801 19.7625C13.3648 19.5322 13.609 19.3815 13.8625 19.2408C14.0526 19.135 14.2458 19.0275 14.4274 18.9062C14.5905 18.7996 14.6716 18.6381 14.6531 18.4379C14.6422 18.3266 14.6314 18.213 14.6021 18.104C14.4297 17.4588 14.0565 16.9479 13.5287 16.5476C12.2249 15.56 10.2868 15.6458 8.82156 16.1906C8.14459 16.4433 7.53408 16.8343 6.92975 17.2231C6.89652 17.2439 6.86561 17.2671 6.83084 17.288L6.82697 17.2903C6.51863 17.4904 6.23656 17.7277 5.94753 17.9557C5.74274 18.1187 5.53795 18.2841 5.29839 18.3985C5.17937 18.4549 5.05573 18.4928 4.92126 18.4711C4.77211 18.4464 4.69715 18.3583 4.71183 18.2091C4.71956 18.1311 4.73656 18.0484 4.76748 17.9765C4.84398 17.7996 4.92435 17.6241 5.01245 17.4518C5.10673 17.264 5.16546 17.0708 5.19097 16.8583C5.3092 15.8676 5.71415 15.0121 6.44058 14.3181C6.95448 13.8266 7.56654 13.4982 8.23423 13.2648C8.2721 13.2524 8.31151 13.2231 8.33547 13.1922C8.62527 12.7934 8.98771 12.4735 9.40811 12.22C9.87256 11.941 10.3741 11.7579 10.9066 11.6597C11.0495 11.6327 11.1948 11.6157 11.3401 11.5948C10.8764 11.9511 10.497 12.3637 10.2953 12.924C10.3084 12.9294 10.3131 12.9317 10.3169 12.9325C10.3378 12.934 10.3594 12.9356 10.3818 12.9364C10.8331 12.9588 11.276 13.0337 11.7025 13.1829C12.1129 13.3259 12.4946 13.5028 12.844 13.7138C12.8239 13.3065 12.8509 12.8869 12.922 12.458C12.9954 12.0121 13.1407 11.5871 13.337 11.1806C13.3463 11.1605 13.3563 11.1412 13.364 11.1218C13.3656 11.118 13.3656 11.1126 13.3671 11.0987C12.779 11.0075 12.235 11.1435 11.7002 11.3807C11.7875 11.2633 11.8725 11.1435 11.9645 11.0314C12.3053 10.611 12.7056 10.2579 13.1732 9.98275C13.5959 9.73391 14.0503 9.5693 14.5395 9.50516C14.5781 9.49898 14.6229 9.47811 14.6515 9.45106C15.1755 8.97657 15.7566 8.59558 16.4336 8.3792C17.3903 8.0724 18.3354 8.12572 19.262 8.49589C19.4606 8.57471 19.6592 8.61567 19.8687 8.62263C20.0619 8.62804 20.2551 8.64117 20.4467 8.65895C20.5248 8.66668 20.6059 8.69063 20.6778 8.72154C20.8161 8.7795 20.8578 8.88847 20.8076 9.03066L20.8061 9.02757Z" fill="#663703"/>
</g>
<path d="M10.4931 4.3529L8.65616 3.84749L6.94674 3.37686V3.37995C6.91506 3.50514 6.09821 6.83744 6.09744 6.83976C5.93979 7.48504 6.13685 8.2416 6.6639 8.65428C6.73654 8.71301 6.81614 8.76324 6.90192 8.80729C6.97997 8.84748 7.06112 8.87916 7.14458 8.90389C7.14767 8.90466 7.15153 8.90544 7.15462 8.90621C7.68322 9.06927 8.30145 8.96262 8.75508 8.6566C9.21258 8.3498 9.60747 7.72538 9.46296 7.15506C9.39032 6.87144 9.18244 6.6481 8.94519 6.48736C8.94519 6.48736 8.78368 6.3498 8.52943 6.31271C8.27363 6.27252 7.92356 6.33435 7.54952 6.73775L7.37487 6.9379H7.3741L6.90656 7.47499C6.82696 7.55923 6.70177 7.54995 6.62912 7.48426C6.58817 7.45026 6.56344 7.40081 6.56653 7.33898C6.56962 7.25088 6.718 6.94254 6.78986 6.79184C6.78986 6.79184 6.82773 6.5685 6.84241 6.34208C6.86405 5.98504 7.00547 5.64115 7.26977 5.39926C7.46992 5.21766 7.76204 5.05228 8.18631 4.98041C8.42819 4.93868 8.71181 4.92786 9.04797 4.95954C9.1098 4.96495 9.17239 4.95723 9.22726 4.93018C9.3084 4.89077 9.4506 4.83976 9.62139 4.85908C9.80763 4.8784 10.0271 4.98273 10.2388 5.27716C10.2388 5.27716 9.85632 5.14579 9.49851 5.38149C9.49233 5.38536 9.48615 5.38999 9.47996 5.39386C9.47996 5.39386 9.49928 5.39231 9.53251 5.39386C9.65616 5.40545 9.97378 5.48118 10.1894 5.9634C10.1894 5.9634 10.4328 6.44409 10.2412 7.13496C10.2002 7.28643 10.2705 7.42708 10.3849 7.4974C10.4676 7.54764 10.5719 7.56154 10.6739 7.51827L10.6801 7.51595C11.3208 7.2447 11.6538 6.56232 11.6422 5.88999C11.6276 5.16047 11.2157 4.55074 10.4939 4.3529H10.4931ZM7.25354 3.89154L7.89805 4.09788L7.77518 4.76944L7.59666 4.71689L7.11444 4.57315L7.252 3.90391L7.25432 3.89231L7.25354 3.89154Z" fill="#3A2415"/>
<path d="M11.3038 8.3073C11.3378 8.36449 11.3184 8.4379 11.262 8.4719L9.76049 9.36448C9.7033 9.39848 9.62989 9.37917 9.59588 9.32275C9.57502 9.28798 9.57347 9.24315 9.59202 9.20683C9.62293 9.14501 9.70485 9.11719 9.75044 9.06464C9.79217 9.01672 9.82308 8.96031 9.84395 8.90003C9.88723 8.77484 9.89109 8.63883 9.88877 8.50822C9.88723 8.44949 9.88491 8.39076 9.88259 8.33203C9.87563 8.13033 9.85941 7.92708 9.82695 7.72693C10.065 7.9379 10.3246 8.10792 10.6044 8.25784C10.7149 8.31734 10.8409 8.3444 10.9653 8.3243C11.0279 8.31426 11.0874 8.29262 11.1438 8.26402C11.2002 8.23543 11.2705 8.24857 11.3045 8.30652L11.3038 8.3073Z" fill="#3A2415"/>
<path d="M10.313 4.30655L8.65462 3.84982L6.94752 3.37996L6.76823 3.33051C6.76823 3.33051 5.92048 6.79108 5.91893 6.7934C5.7466 7.49819 5.99776 8.33667 6.63995 8.71611C6.667 8.73234 6.69482 8.7478 6.72418 8.76248C6.8571 8.82894 6.9993 8.87608 7.1469 8.9039C7.14999 8.90468 7.15386 8.90545 7.15695 8.90622C7.64226 8.99586 8.17472 8.88149 8.57735 8.61101C9.03484 8.30421 9.42974 7.67979 9.28523 7.10947C9.21258 6.82586 9.0047 6.60252 8.76745 6.44178C8.76745 6.44178 8.67935 6.36759 8.53175 6.31349C8.30841 6.23003 7.94906 6.19448 7.54876 6.52447H7.54798C7.49002 6.57238 7.43129 6.62802 7.37178 6.69216L6.72959 7.42786C6.701 7.458 6.66622 7.47578 6.63145 7.48351C6.51398 7.51133 6.38261 7.42864 6.38802 7.29262C6.39188 7.20607 6.54026 6.89618 6.61136 6.74548C6.61136 6.74548 6.64922 6.52215 6.6639 6.29572C6.68554 5.93869 6.82774 5.5948 7.09126 5.35291C7.3231 5.14194 7.67781 4.95492 8.218 4.90778C8.40965 4.88846 8.62603 4.89001 8.86869 4.91319C8.93128 4.92015 8.99311 4.91087 9.04798 4.88382C9.15694 4.83127 9.3741 4.75708 9.62216 4.85909C9.76204 4.91551 9.91428 5.02834 10.0588 5.23081C10.0588 5.23081 9.66235 5.09402 9.30068 5.3475C9.30068 5.3475 9.3826 5.33977 9.49852 5.3815C9.50934 5.38537 9.52093 5.39 9.53252 5.39464C9.67858 5.45646 9.86637 5.59789 10.0093 5.91782C10.0093 5.91782 10.252 6.39927 10.0596 7.09015C9.99929 7.30963 10.1763 7.50746 10.3841 7.49819C10.4197 7.49587 10.4568 7.48814 10.4931 7.47269L10.4993 7.47037C11.1415 7.19834 11.473 6.51674 11.4614 5.84441C11.4467 5.11489 11.0348 4.50515 10.313 4.30732V4.30655ZM7.59512 4.72308L6.93438 4.52679L7.07349 3.84596L7.252 3.90315L7.71954 4.05152L7.59667 4.7169L7.59512 4.72385V4.72308Z" fill="url(#paint4_radial_0_627)"/>
<path d="M11.1237 8.26171C11.1577 8.31889 11.1384 8.3923 11.082 8.42631L9.58044 9.31889C9.52325 9.35289 9.44983 9.33357 9.41583 9.27715C9.39496 9.24238 9.39342 9.19756 9.41196 9.16123C9.44288 9.09941 9.52479 9.07159 9.57039 9.01904C9.61212 8.97113 9.64303 8.91472 9.6639 8.85444C9.70717 8.72924 9.71104 8.59323 9.70872 8.46263C9.70717 8.4039 9.70485 8.34516 9.70254 8.28643C9.69558 8.08473 9.67935 7.88149 9.64689 7.68134C9.88492 7.89231 10.1446 8.06232 10.4243 8.21225C10.5348 8.27175 10.6608 8.2988 10.7852 8.2787C10.8478 8.26866 10.9073 8.24702 10.9637 8.21842C11.0202 8.18983 11.0905 8.20297 11.1245 8.26093L11.1237 8.26171Z" fill="url(#paint5_radial_0_627)"/>
<g opacity="0.85">
<path d="M10.313 4.30655L8.65462 3.84982L6.94752 3.37996L6.76823 3.33051C6.76823 3.33051 5.92048 6.79108 5.91893 6.7934C5.7466 7.49819 5.99776 8.33667 6.63995 8.71611C6.667 8.73234 6.69482 8.7478 6.72418 8.76248C6.8571 8.82894 6.9993 8.87608 7.1469 8.9039C7.14999 8.90468 7.15386 8.90545 7.15695 8.90622C7.64226 8.99586 8.17472 8.88149 8.57735 8.61101C9.03484 8.30421 9.42974 7.67979 9.28523 7.10947C9.21258 6.82586 9.0047 6.60252 8.76745 6.44178C8.76745 6.44178 8.67935 6.36759 8.53175 6.31349C8.30841 6.23003 7.94906 6.19448 7.54876 6.52447H7.54798C7.49002 6.57238 7.43129 6.62802 7.37178 6.69216L6.72959 7.42786C6.701 7.458 6.66622 7.47578 6.63145 7.48351C6.51398 7.51133 6.38261 7.42864 6.38802 7.29262C6.39188 7.20607 6.54026 6.89618 6.61136 6.74548C6.61136 6.74548 6.64922 6.52215 6.6639 6.29572C6.68554 5.93869 6.82774 5.5948 7.09126 5.35291C7.3231 5.14194 7.67781 4.95492 8.218 4.90778C8.40965 4.88846 8.62603 4.89001 8.86869 4.91319C8.93128 4.92015 8.99311 4.91087 9.04798 4.88382C9.15694 4.83127 9.3741 4.75708 9.62216 4.85909C9.76204 4.91551 9.91428 5.02834 10.0588 5.23081C10.0588 5.23081 9.66235 5.09402 9.30068 5.3475C9.30068 5.3475 9.3826 5.33977 9.49852 5.3815C9.50934 5.38537 9.52093 5.39 9.53252 5.39464C9.67858 5.45646 9.86637 5.59789 10.0093 5.91782C10.0093 5.91782 10.252 6.39927 10.0596 7.09015C9.99929 7.30963 10.1763 7.50746 10.3841 7.49819C10.4197 7.49587 10.4568 7.48814 10.4931 7.47269L10.4993 7.47037C11.1415 7.19834 11.473 6.51674 11.4614 5.84441C11.4467 5.11489 11.0348 4.50515 10.313 4.30732V4.30655ZM7.59512 4.72308L6.93438 4.52679L7.07349 3.84596L7.252 3.90315L7.71954 4.05152L7.59667 4.7169L7.59512 4.72385V4.72308Z" fill="#724401"/>
<path d="M11.1237 8.26171C11.1577 8.31889 11.1384 8.3923 11.082 8.42631L9.58044 9.31889C9.52325 9.35289 9.44983 9.33357 9.41583 9.27715C9.39496 9.24238 9.39342 9.19756 9.41196 9.16123C9.44288 9.09941 9.52479 9.07159 9.57039 9.01904C9.61212 8.97113 9.64303 8.91472 9.6639 8.85444C9.70717 8.72924 9.71104 8.59323 9.70872 8.46263C9.70717 8.4039 9.70485 8.34516 9.70254 8.28643C9.69558 8.08473 9.67935 7.88149 9.64689 7.68134C9.88492 7.89231 10.1446 8.06232 10.4243 8.21225C10.5348 8.27175 10.6608 8.2988 10.7852 8.2787C10.8478 8.26866 10.9073 8.24702 10.9637 8.21842C11.0202 8.18983 11.0905 8.20297 11.1245 8.26093L11.1237 8.26171Z" fill="#724401"/>
</g>
<g opacity="0.85">
<path d="M10.313 4.30655L8.65462 3.84982L6.94752 3.37996L6.76823 3.33051C6.76823 3.33051 5.92048 6.79108 5.91893 6.7934C5.7466 7.49819 5.99776 8.33667 6.63995 8.71611C6.667 8.73234 6.69482 8.7478 6.72418 8.76248C6.8571 8.82894 6.9993 8.87608 7.1469 8.9039C7.14999 8.90468 7.15386 8.90545 7.15695 8.90622C7.64226 8.99586 8.17472 8.88149 8.57735 8.61101C9.03484 8.30421 9.42974 7.67979 9.28523 7.10947C9.21258 6.82586 9.0047 6.60252 8.76745 6.44178C8.76745 6.44178 8.67935 6.36759 8.53175 6.31349C8.30841 6.23003 7.94906 6.19448 7.54876 6.52447H7.54798C7.49002 6.57238 7.43129 6.62802 7.37178 6.69216L6.72959 7.42786C6.701 7.458 6.66622 7.47578 6.63145 7.48351C6.51398 7.51133 6.38261 7.42864 6.38802 7.29262C6.39188 7.20607 6.54026 6.89618 6.61136 6.74548C6.61136 6.74548 6.64922 6.52215 6.6639 6.29572C6.68554 5.93869 6.82774 5.5948 7.09126 5.35291C7.3231 5.14194 7.67781 4.95492 8.218 4.90778C8.40965 4.88846 8.62603 4.89001 8.86869 4.91319C8.93128 4.92015 8.99311 4.91087 9.04798 4.88382C9.15694 4.83127 9.3741 4.75708 9.62216 4.85909C9.76204 4.91551 9.91428 5.02834 10.0588 5.23081C10.0588 5.23081 9.66235 5.09402 9.30068 5.3475C9.30068 5.3475 9.3826 5.33977 9.49852 5.3815C9.50934 5.38537 9.52093 5.39 9.53252 5.39464C9.67858 5.45646 9.86637 5.59789 10.0093 5.91782C10.0093 5.91782 10.252 6.39927 10.0596 7.09015C9.99929 7.30963 10.1763 7.50746 10.3841 7.49819C10.4197 7.49587 10.4568 7.48814 10.4931 7.47269L10.4993 7.47037C11.1415 7.19834 11.473 6.51674 11.4614 5.84441C11.4467 5.11489 11.0348 4.50515 10.313 4.30732V4.30655ZM7.59512 4.72308L6.93438 4.52679L7.07349 3.84596L7.252 3.90315L7.71954 4.05152L7.59667 4.7169L7.59512 4.72385V4.72308Z" fill="#663703"/>
<path d="M11.1237 8.26171C11.1577 8.31889 11.1384 8.3923 11.082 8.42631L9.58044 9.31889C9.52325 9.35289 9.44983 9.33357 9.41583 9.27715C9.39496 9.24238 9.39342 9.19756 9.41196 9.16123C9.44288 9.09941 9.52479 9.07159 9.57039 9.01904C9.61212 8.97113 9.64303 8.91472 9.6639 8.85444C9.70717 8.72924 9.71104 8.59323 9.70872 8.46263C9.70717 8.4039 9.70485 8.34516 9.70254 8.28643C9.69558 8.08473 9.67935 7.88149 9.64689 7.68134C9.88492 7.89231 10.1446 8.06232 10.4243 8.21225C10.5348 8.27175 10.6608 8.2988 10.7852 8.2787C10.8478 8.26866 10.9073 8.24702 10.9637 8.21842C11.0202 8.18983 11.0905 8.20297 11.1245 8.26093L11.1237 8.26171Z" fill="#663703"/>
</g>
</g>
<path d="M15.1554 0.487393L15.0935 0.635771L14.9969 0.866836L14.7442 1.47657L14.6623 1.67518L10.5402 11.6079L10.4599 11.8042L8.78059 15.8498L8.70331 16.036L6.58972 21.1303L6.48771 21.376L6.201 22.0661L6.15541 22.1767L6.08894 22.3389C4.80147 21.57 3.64769 20.5468 2.70874 19.2872L2.72729 19.2424L2.74197 19.2076L3.11291 18.3127L3.23115 18.0244L6.99621 8.93481L7.02016 8.87685L7.68245 7.27717H7.68322L7.84164 6.89154H7.84242L8.43824 5.45183L8.46606 5.38459L8.8741 4.39851L8.87642 4.39542L10.0797 1.49048L10.1793 1.2486L10.4359 0.628043L10.5797 0.280285L10.6724 0.0561748C12.1878 -0.0922018 13.711 0.0592657 15.1531 0.488167L15.1554 0.487393Z" fill="url(#paint6_linear_0_627)"/>
<path d="M21.9691 5.8475C21.99 5.87995 22.0101 5.91396 22.0302 5.94719C22.0603 5.99819 22.0912 6.04997 22.119 6.10097C22.1221 6.10329 22.1237 6.10638 22.1237 6.1087L22.1213 6.11566L21.6824 7.1597L21.5719 7.42245L17.83 16.3366L17.7411 16.5468L17.3563 17.4641L17.2883 17.6272L17.262 17.689L17.1523 17.9487L16.8462 18.679L16.7427 18.9255L15.456 21.9912L15.3254 22.3003L15.0101 23.0522L14.8996 23.315L14.7357 23.7029C13.7558 23.9286 12.7613 24.0236 11.7759 23.995L11.9019 23.6944L11.9861 23.4935L12.262 22.8374L12.371 22.577L13.5966 19.6573L13.6793 19.4603L14.0596 18.5569L14.133 18.3799L14.422 17.6944L14.5402 17.4131L15.0364 16.23L15.1484 15.9634L17.2728 10.9023L17.3455 10.7316H17.3462L18.2574 8.55923L18.3509 8.33667L19.83 4.8135L19.9204 4.59943L20.2597 3.79032L20.2968 3.70144L20.3207 3.64658C20.9142 4.27254 21.4498 4.97346 21.9096 5.74703C21.9297 5.78103 21.9506 5.81504 21.9691 5.84904V5.8475Z" fill="url(#paint7_linear_0_627)"/>
<defs>
<linearGradient id="paint0_linear_0_627" x1="14.3185" y1="23.4553" x2="9.54596" y2="0.450317" gradientUnits="userSpaceOnUse">
<stop stop-color="#D3A150"/>
<stop offset="0.42" stop-color="#DDB264"/>
<stop offset="1" stop-color="#EFD186"/>
</linearGradient>
<linearGradient id="paint1_linear_0_627" x1="6.38579" y1="2.63563" x2="17.4881" y2="21.3192" gradientUnits="userSpaceOnUse">
<stop stop-color="#513A01"/>
<stop offset="0.15" stop-color="#65440B"/>
<stop offset="0.46" stop-color="#986024"/>
<stop offset="0.58" stop-color="#AD6B2F"/>
<stop offset="1" stop-color="#FFE6CA"/>
</linearGradient>
<linearGradient id="paint2_linear_0_627" x1="14.1143" y1="22.3675" x2="9.79549" y2="1.54798" gradientUnits="userSpaceOnUse">
<stop stop-color="#D3A150"/>
<stop offset="0.42" stop-color="#DDB264"/>
<stop offset="1" stop-color="#EFD186"/>
</linearGradient>
<radialGradient id="paint3_radial_0_627" cx="0" cy="0" r="1" gradientUnits="userSpaceOnUse" gradientTransform="translate(14.111 15.8585) rotate(-30.72) scale(7.67694 7.67694)">
<stop stop-color="white"/>
<stop offset="0.6" stop-color="#DDDDDD"/>
<stop offset="1" stop-color="#CCCCCC"/>
</radialGradient>
<radialGradient id="paint4_radial_0_627" cx="0" cy="0" r="1" gradientUnits="userSpaceOnUse" gradientTransform="translate(8.14234 5.70357) rotate(-30.72) scale(2.87943)">
<stop stop-color="white"/>
<stop offset="0.6" stop-color="#DDDDDD"/>
<stop offset="1" stop-color="#CCCCCC"/>
</radialGradient>
<radialGradient id="paint5_radial_0_627" cx="0" cy="0" r="1" gradientUnits="userSpaceOnUse" gradientTransform="translate(9.97835 8.28652) rotate(-30.72) scale(0.853939)">
<stop stop-color="white"/>
<stop offset="0.6" stop-color="#DDDDDD"/>
<stop offset="1" stop-color="#CCCCCC"/>
</radialGradient>
<linearGradient id="paint6_linear_0_627" x1="3.60679" y1="27.8122" x2="11.7833" y2="0.286744" gradientUnits="userSpaceOnUse">
<stop stop-color="white" stop-opacity="0"/>
<stop offset="1" stop-color="white" stop-opacity="0.3"/>
</linearGradient>
<linearGradient id="paint7_linear_0_627" x1="12.3846" y1="30.4197" x2="20.5607" y2="2.89353" gradientUnits="userSpaceOnUse">
<stop stop-color="white" stop-opacity="0"/>
<stop offset="1" stop-color="white" stop-opacity="0.3"/>
</linearGradient>
</defs>
</svg>
