<svg width="18" height="18" viewBox="0 0 18 18" fill="none" xmlns="http://www.w3.org/2000/svg">
<g clip-path="url(#clip0_0_588)">
<path d="M17.7705 3.27274C17.775 3.22649 17.775 3.1799 17.7705 3.13365C17.7705 1.74274 14.1377 0.605469 9.64591 0.605469C5.15409 0.605469 1.55409 1.75092 1.55409 3.14183C1.54957 3.20175 1.54957 3.26192 1.55409 3.32183C1.5425 3.30593 1.53158 3.28956 1.52137 3.27274V5.35911C1.52137 5.8091 2.02046 6.30001 2.89591 6.75001C2.89591 6.75001 5.04773 8.04274 9.65409 8.09183C11.5996 8.11666 13.5355 7.81521 15.3814 7.20001C16.8705 6.67638 17.7623 6.00547 17.7623 5.4082V3.31365C17.7662 3.28927 17.7662 3.2644 17.7623 3.24001C17.7678 3.25002 17.7706 3.2613 17.7705 3.27274ZM3.575 2.7082C4.17228 1.89001 6.66773 1.30911 9.65409 1.30911C12.6405 1.30911 15.2014 1.92274 15.7577 2.73274C15.8294 2.83015 15.8694 2.94727 15.8723 3.0682C15.8723 3.0682 15.8723 3.3791 15.8723 3.40365C15.7722 3.30561 15.6626 3.2179 15.545 3.14183C14.6695 2.52001 12.3541 2.16001 9.67046 2.16001C6.98682 2.16001 4.76137 2.48729 3.86137 3.09274C3.7101 3.17139 3.57428 3.27671 3.46046 3.40365V3.0682C3.46091 2.9393 3.50089 2.81365 3.575 2.7082ZM16.2732 7.99365V10.08C16.2732 10.6773 15.3895 11.3482 13.8923 11.88C12.047 12.4967 10.1104 12.7955 8.165 12.7636C3.52591 12.7146 1.37409 11.4546 1.37409 11.4546C0.498639 10.98 -0.000451678 10.4891 -0.000451678 10.0391V7.99365C-0.00442229 7.96927 -0.00442229 7.9444 -0.000451678 7.92001C-0.00505777 7.8765 -0.00505777 7.83262 -0.000451678 7.7891C-0.000451678 7.36365 0.465912 6.85638 1.26773 6.46365V6.54547C1.26773 7.02001 1.81591 7.53547 2.78137 8.00183C2.78137 8.00183 4.89227 9.13092 9.40864 9.27001C11.3556 9.32645 13.2965 9.027 15.1359 8.38638C15.5059 8.25849 15.8668 8.1054 16.2159 7.9282C16.2054 8.00734 16.1833 8.08453 16.1505 8.15729C16.19 8.08686 16.2228 8.0129 16.2486 7.93638L16.2732 7.99365ZM17.9995 12.6082V14.6536C17.9995 15.1036 17.5005 15.5946 16.625 16.0446C16.625 16.0446 14.4732 17.3291 9.85864 17.3782C7.91329 17.41 5.97666 17.1112 4.13137 16.4946C2.60955 15.9709 1.72591 15.3 1.72591 14.7273V12.5346C1.74697 12.5933 1.77156 12.6506 1.79955 12.7064C2.12549 12.8697 2.46165 13.0118 2.80591 13.1318C4.64629 13.7686 6.58648 14.0679 8.53318 14.0155C13.0495 13.8682 15.1605 12.7473 15.1605 12.7473C16.1177 12.2809 16.6741 11.7655 16.6741 11.2909V11.2255C17.4923 11.6182 17.9341 12.0436 17.9341 12.5755V12.5264C17.9619 12.5482 17.9843 12.5762 17.9995 12.6082Z" fill="#E9B10E"/>
</g>
<defs>
<clipPath id="clip0_0_588">
<rect width="18" height="18" fill="white"/>
</clipPath>
</defs>
</svg>
