<svg width="25" height="24" viewBox="0 0 25 24" fill="none" xmlns="http://www.w3.org/2000/svg">
<path d="M24.1035 11.7068C24.1035 11.7349 24.1035 11.7624 24.1027 11.7905V11.8583C24.0212 18.254 18.8114 23.4143 12.3967 23.4143C11.6777 23.4143 10.9747 23.3488 10.2915 23.2254C9.22514 23.0327 8.20985 22.6937 7.26615 22.2329C5.37265 21.3083 3.7663 19.8878 2.61467 18.1405C1.75322 16.8335 1.14618 15.3437 0.86589 13.7412C0.759257 13.1288 0.69832 12.4996 0.690704 11.8583V11.7905C0.689942 11.7624 0.689941 11.7349 0.689941 11.7068C0.689941 5.24176 5.93018 0 12.3959 0C13.6664 0 14.8889 0.202603 16.0352 0.576579C17.5722 1.07928 18.9699 1.89121 20.1535 2.93926C21.7324 4.33691 22.9313 6.15423 23.5749 8.21682C23.8864 9.21383 24.0669 10.2687 24.0981 11.3602C24.1019 11.4752 24.1035 11.591 24.1035 11.7068Z" fill="#787878"/>
<path d="M24.1027 12.2932C24.1027 18.759 18.8617 24 12.3959 24C5.93018 24 0.689941 18.759 0.689941 12.2932C0.689941 5.82749 5.93094 0.586487 12.3959 0.586487C18.8609 0.586487 24.1027 5.82825 24.1027 12.2932Z" fill="#474747"/>
<path d="M24.1035 11.9413C24.1035 18.4063 18.8625 23.6473 12.3967 23.6473C11.6 23.6473 10.8216 23.5674 10.0698 23.4158C9.02024 23.2041 8.02095 22.8522 7.09401 22.3799C5.2226 21.4271 3.63986 19.986 2.51793 18.2243C1.67249 16.8975 1.08602 15.3886 0.832381 13.7693C0.737935 13.1737 0.689941 12.5629 0.689941 11.9413C0.689941 11.9132 0.689942 11.8857 0.690704 11.8576V11.7898C0.772202 5.39333 5.98121 0.233826 12.3959 0.233826C13.594 0.233826 14.7495 0.413578 15.8371 0.747948C17.3947 1.22627 18.813 2.02069 20.0187 3.05579C21.6159 4.42754 22.8399 6.22278 23.5147 8.26709C23.8392 9.24963 24.0372 10.2893 24.0897 11.3671C24.0958 11.5072 24.1012 11.6481 24.1027 11.7898V11.8576C24.1035 11.8857 24.1035 11.9132 24.1035 11.9413Z" fill="url(#paint0_linear_0_631)"/>
<path d="M23.2199 11.965C23.2199 17.9463 18.3704 22.7966 12.3883 22.7966C6.40624 22.7966 1.55673 17.9471 1.55673 11.965C1.55673 5.98287 6.40624 1.1326 12.3883 1.1326C18.3704 1.1326 23.2199 5.98211 23.2199 11.965Z" fill="url(#paint1_linear_0_631)"/>
<path d="M23.0067 11.9566C23.0067 17.8092 18.263 22.5513 12.4119 22.5513C6.56083 22.5513 1.8172 17.8084 1.8172 11.9566C1.8172 6.10473 6.56083 1.36261 12.4119 1.36261C18.263 1.36261 23.0067 6.10549 23.0067 11.9566Z" fill="url(#paint2_linear_0_631)"/>
<path d="M12.8095 2.24387C12.8095 2.41524 12.6709 2.55386 12.4995 2.55386C12.3281 2.55386 12.1895 2.41524 12.1895 2.24387C12.1895 2.07249 12.3281 1.93387 12.4995 1.93387C12.6709 1.93387 12.8095 2.07249 12.8095 2.24387Z" fill="#474747"/>
<path d="M12.8407 2.16464C12.8407 2.33601 12.7021 2.47464 12.5307 2.47464C12.3594 2.47464 12.2207 2.33601 12.2207 2.16464C12.2207 1.99327 12.3594 1.85464 12.5307 1.85464C12.7021 1.85464 12.8407 1.99327 12.8407 2.16464Z" fill="#E6E7E8"/>
<path d="M12.8255 2.20425C12.8255 2.37563 12.6869 2.51425 12.5155 2.51425C12.3441 2.51425 12.2055 2.37563 12.2055 2.20425C12.2055 2.03288 12.3441 1.89426 12.5155 1.89426C12.6869 1.89426 12.8255 2.03288 12.8255 2.20425Z" fill="#898989"/>
<path d="M11.2778 2.29946C11.3045 2.46855 11.1895 2.62774 11.0204 2.65439C10.8513 2.68105 10.6921 2.56604 10.6654 2.39695C10.6388 2.22786 10.7538 2.06867 10.9229 2.04202C11.092 2.01536 11.2512 2.13037 11.2778 2.29946Z" fill="#474747"/>
<path d="M11.2969 2.21645C11.3235 2.38554 11.2085 2.54473 11.0394 2.57139C10.8703 2.59804 10.7111 2.48303 10.6845 2.31394C10.6578 2.14485 10.7728 1.98567 10.9419 1.95901C11.111 1.93235 11.2702 2.04736 11.2969 2.21645Z" fill="#E6E7E8"/>
<path d="M11.2877 2.25759C11.3144 2.42668 11.1994 2.58586 11.0303 2.61252C10.8612 2.63918 10.702 2.52417 10.6753 2.35508C10.6487 2.18599 10.7637 2.0268 10.9328 2.00015C11.1019 1.97349 11.2611 2.0885 11.2877 2.25759Z" fill="#898989"/>
<path d="M9.77428 2.59421C9.8276 2.75721 9.73771 2.93239 9.57548 2.98494C9.41248 3.03826 9.23731 2.94838 9.18475 2.78615C9.13144 2.62315 9.2213 2.44797 9.38354 2.39542C9.54653 2.3421 9.72097 2.43198 9.77428 2.59421Z" fill="#474747"/>
<path d="M9.78038 2.50814C9.83294 2.67113 9.74382 2.84631 9.58158 2.89887C9.41859 2.95142 9.24341 2.86231 9.19086 2.70007C9.13754 2.53708 9.22741 2.3619 9.38964 2.30934C9.55264 2.25679 9.72783 2.3459 9.78038 2.50814Z" fill="#E6E7E8"/>
<path d="M9.77733 2.55156C9.83064 2.71456 9.74076 2.88974 9.57853 2.9423C9.41553 2.99485 9.24112 2.90574 9.1878 2.7435C9.13525 2.58051 9.22359 2.40609 9.38658 2.35277C9.54958 2.30021 9.72477 2.38933 9.77733 2.55156Z" fill="#898989"/>
<path d="M8.3355 3.11976C8.41319 3.27209 8.35225 3.45946 8.19992 3.53715C8.04759 3.61484 7.86022 3.55391 7.78329 3.40158C7.7056 3.24925 7.76652 3.06264 7.91885 2.98419C8.07118 2.9065 8.25855 2.96743 8.33624 3.11976H8.3355Z" fill="#474747"/>
<path d="M8.32789 3.03446C8.40558 3.1868 8.34465 3.37417 8.19232 3.45186C8.03998 3.52955 7.85262 3.46861 7.77493 3.31628C7.69724 3.16395 7.75817 2.97734 7.9105 2.89889C8.06284 2.8212 8.2502 2.88213 8.32789 3.03446Z" fill="#E6E7E8"/>
<path d="M8.33171 3.07713C8.4094 3.22946 8.34846 3.41683 8.19613 3.49452C8.0438 3.57221 7.85643 3.51128 7.77874 3.35894C7.70105 3.20661 7.76199 3.02 7.91432 2.94155C8.06665 2.86386 8.25402 2.9248 8.33171 3.07713Z" fill="#898989"/>
<path d="M6.99574 3.86466C7.09628 4.00328 7.0658 4.1975 6.92718 4.29804C6.78855 4.39858 6.59434 4.36812 6.4938 4.22949C6.39326 4.09087 6.42373 3.89741 6.56236 3.79611C6.70098 3.69557 6.89444 3.72603 6.99574 3.86466Z" fill="#474747"/>
<path d="M6.97517 3.78165C7.07571 3.92027 7.04525 4.11373 6.90663 4.21503C6.768 4.31557 6.57377 4.28511 6.47323 4.14649C6.37269 4.00786 6.40316 3.81364 6.54179 3.7131C6.68041 3.61256 6.87463 3.64303 6.97517 3.78165Z" fill="#E6E7E8"/>
<path d="M6.98584 3.82279C7.08638 3.96141 7.05592 4.15563 6.9173 4.25617C6.77867 4.35671 6.58445 4.32625 6.48391 4.18762C6.38337 4.049 6.41383 3.85554 6.55246 3.75424C6.69108 3.6537 6.88454 3.68416 6.98584 3.82279Z" fill="#898989"/>
<path d="M5.79004 4.80915C5.91115 4.93026 5.91115 5.12677 5.79004 5.24787C5.66894 5.36897 5.47243 5.36897 5.35133 5.24787C5.23022 5.12677 5.23022 4.93026 5.35133 4.80915C5.47243 4.68805 5.66894 4.68805 5.79004 4.80915Z" fill="#474747"/>
<path d="M5.75654 4.73069C5.87764 4.85179 5.87764 5.0483 5.75654 5.16941C5.63543 5.29051 5.43892 5.29051 5.31782 5.16941C5.19671 5.0483 5.19671 4.85179 5.31782 4.73069C5.43892 4.60959 5.63543 4.60959 5.75654 4.73069Z" fill="#E6E7E8"/>
<path d="M5.77329 4.7703C5.8944 4.89141 5.8944 5.08791 5.77329 5.20902C5.65219 5.33012 5.45568 5.33012 5.33457 5.20902C5.21347 5.08791 5.21347 4.89141 5.33457 4.7703C5.45568 4.6492 5.65219 4.6492 5.77329 4.7703Z" fill="#898989"/>
<path d="M4.74655 5.93106C4.88517 6.0316 4.91563 6.22582 4.81509 6.36444C4.71455 6.50306 4.52033 6.53353 4.38171 6.43299C4.24309 6.33245 4.21263 6.13823 4.31317 5.9996C4.41371 5.86098 4.60793 5.83052 4.74655 5.93106Z" fill="#474747"/>
<path d="M4.70083 5.8587C4.83945 5.95924 4.86993 6.15346 4.76939 6.29209C4.66885 6.43071 4.47463 6.46117 4.33601 6.36063C4.19738 6.26009 4.16691 6.06587 4.26745 5.92725C4.36799 5.78862 4.56221 5.75816 4.70083 5.8587Z" fill="#E6E7E8"/>
<path d="M4.72369 5.89526C4.86232 5.9958 4.89279 6.19002 4.79225 6.32864C4.69171 6.46727 4.49748 6.49774 4.35885 6.3972C4.22023 6.29666 4.18977 6.10243 4.29031 5.96381C4.39085 5.82519 4.58507 5.79472 4.72369 5.89526Z" fill="#898989"/>
<path d="M3.89123 7.20226C4.04356 7.27995 4.1045 7.46656 4.02681 7.61966C3.94912 7.77199 3.76251 7.83292 3.60942 7.75523C3.45709 7.67754 3.39615 7.49094 3.47384 7.33784C3.55153 7.18551 3.73814 7.12457 3.89123 7.20226Z" fill="#474747"/>
<path d="M3.83486 7.1383C3.9872 7.21599 4.04813 7.4026 3.97044 7.55569C3.89275 7.70802 3.70615 7.76896 3.55305 7.69127C3.40072 7.61358 3.33978 7.42697 3.41747 7.27387C3.49516 7.12154 3.68177 7.06061 3.83486 7.1383Z" fill="#E6E7E8"/>
<path d="M3.86303 7.17028C4.01536 7.24797 4.0763 7.43458 3.99861 7.58768C3.92092 7.74001 3.73431 7.80094 3.58122 7.72325C3.42889 7.64556 3.36795 7.45895 3.44564 7.30586C3.52333 7.15353 3.70994 7.09259 3.86303 7.17028Z" fill="#898989"/>
<path d="M3.2453 8.59232C3.4083 8.64488 3.4974 8.82006 3.44409 8.98306C3.39077 9.14605 3.21636 9.23517 3.05336 9.18186C2.89037 9.1293 2.80125 8.95412 2.85456 8.79112C2.90712 8.62813 3.08231 8.53901 3.2453 8.59232Z" fill="#474747"/>
<path d="M3.1798 8.53749C3.34279 8.59004 3.43192 8.76522 3.3786 8.92822C3.32528 9.09121 3.15085 9.18033 2.98786 9.12701C2.82486 9.07369 2.73576 8.89927 2.78907 8.73628C2.84239 8.57328 3.0168 8.48417 3.1798 8.53749Z" fill="#E6E7E8"/>
<path d="M3.21256 8.56489C3.37556 8.61744 3.46466 8.79263 3.41134 8.95562C3.35803 9.11862 3.18362 9.20773 3.02062 9.15442C2.85762 9.1011 2.7685 8.92668 2.82105 8.76368C2.87361 8.60069 3.0488 8.51157 3.2118 8.56489H3.21256Z" fill="#898989"/>
<path d="M2.82486 10.0654C2.99395 10.092 3.10971 10.2512 3.08229 10.4203C3.05564 10.5894 2.89646 10.7044 2.72737 10.6778C2.55828 10.6511 2.44251 10.4919 2.46993 10.3228C2.49659 10.1537 2.65577 10.038 2.82486 10.0654Z" fill="#474747"/>
<path d="M2.75176 10.022C2.92085 10.0486 3.03661 10.2078 3.00919 10.3769C2.98253 10.546 2.82335 10.6618 2.65426 10.6351C2.48517 10.6084 2.36939 10.4493 2.39681 10.2802C2.42347 10.1111 2.58267 9.99531 2.75176 10.0227V10.022Z" fill="#E6E7E8"/>
<path d="M2.78831 10.0433C2.9574 10.07 3.07316 10.2291 3.04575 10.3982C3.01909 10.5673 2.85991 10.6831 2.69082 10.6557C2.52173 10.629 2.40596 10.4698 2.43262 10.3007C2.45928 10.1317 2.61846 10.0159 2.78755 10.0433H2.78831Z" fill="#898989"/>
<path d="M2.64057 11.5864C2.81194 11.5864 2.95055 11.725 2.95055 11.8964C2.95055 12.0678 2.81194 12.2064 2.64057 12.2064C2.46919 12.2064 2.33057 12.0678 2.33057 11.8964C2.33057 11.725 2.46919 11.5864 2.64057 11.5864Z" fill="#474747"/>
<path d="M2.56058 11.5552C2.73196 11.5552 2.87058 11.6938 2.87058 11.8652C2.87058 12.0365 2.73196 12.1752 2.56058 12.1752C2.38921 12.1752 2.25058 12.0365 2.25058 11.8652C2.25058 11.6938 2.38921 11.5552 2.56058 11.5552Z" fill="#E6E7E8"/>
<path d="M2.60019 11.5704C2.77157 11.5704 2.91018 11.709 2.91018 11.8804C2.91018 12.0518 2.77157 12.1904 2.60019 12.1904C2.42882 12.1904 2.29019 12.0518 2.29019 11.8804C2.29019 11.709 2.42882 11.5704 2.60019 11.5704Z" fill="#898989"/>
<path d="M2.6954 13.1174C2.86449 13.0907 3.02367 13.2057 3.05033 13.3756C3.07699 13.5447 2.96199 13.7038 2.7929 13.7305C2.62381 13.7572 2.46461 13.6421 2.43795 13.4731C2.41129 13.304 2.52631 13.1448 2.6954 13.1181V13.1174Z" fill="#474747"/>
<path d="M2.61238 13.0991C2.78147 13.0724 2.94065 13.1874 2.9673 13.3565C2.99396 13.5256 2.87896 13.6848 2.70987 13.7115C2.54078 13.7381 2.3816 13.6231 2.35494 13.454C2.32829 13.2849 2.44329 13.1257 2.61238 13.0991Z" fill="#E6E7E8"/>
<path d="M2.65426 13.1082C2.82335 13.0816 2.98254 13.1966 3.00919 13.3657C3.03585 13.5347 2.92085 13.6939 2.75176 13.7206C2.58267 13.7472 2.42347 13.6322 2.39681 13.4631C2.37015 13.2941 2.48518 13.1349 2.65426 13.1082Z" fill="#898989"/>
<path d="M2.99014 14.6217C3.15313 14.5691 3.32756 14.6582 3.38088 14.8205C3.43343 14.9834 3.34431 15.1579 3.18208 15.2112C3.01908 15.2637 2.84391 15.1746 2.79135 15.0124C2.73804 14.8494 2.8279 14.675 2.99014 14.6217Z" fill="#474747"/>
<path d="M2.90484 14.6155C3.06784 14.5622 3.24301 14.6513 3.29557 14.8143C3.34812 14.9773 3.25902 15.1525 3.09602 15.2051C2.93302 15.2584 2.75859 15.1693 2.70528 15.0063C2.65272 14.8433 2.74184 14.6681 2.90408 14.6155H2.90484Z" fill="#E6E7E8"/>
<path d="M2.94749 14.6186C3.11048 14.5661 3.28568 14.6544 3.33823 14.8174C3.39155 14.9804 3.30243 15.1556 3.13943 15.2081C2.97643 15.2607 2.80126 15.1716 2.74871 15.0093C2.69615 14.8463 2.78525 14.6712 2.94749 14.6186Z" fill="#898989"/>
<path d="M3.51573 16.0604C3.66806 15.9827 3.85467 16.0437 3.93312 16.196C4.01081 16.3483 3.94987 16.5349 3.79754 16.6134C3.64521 16.6911 3.4586 16.6301 3.38091 16.4778C3.30322 16.3255 3.36416 16.1389 3.51649 16.0604H3.51573Z" fill="#474747"/>
<path d="M3.4304 16.0688C3.58273 15.9911 3.76934 16.0513 3.84779 16.2044C3.92548 16.3567 3.86455 16.5441 3.71221 16.6218C3.55988 16.6995 3.37327 16.6385 3.29482 16.4862C3.21713 16.3339 3.27807 16.1465 3.4304 16.0688Z" fill="#E6E7E8"/>
<path d="M3.47307 16.0642C3.6254 15.9865 3.81277 16.0467 3.89046 16.1998C3.96814 16.3521 3.90797 16.5387 3.75488 16.6164C3.60254 16.6941 3.41518 16.6332 3.33749 16.4808C3.2598 16.3285 3.32073 16.1411 3.47307 16.0642Z" fill="#898989"/>
<path d="M4.26063 17.3994C4.39925 17.2989 4.59271 17.3293 4.69401 17.468C4.79455 17.6066 4.76407 17.8 4.62545 17.9013C4.48683 18.0019 4.29261 17.9714 4.19207 17.8328C4.09153 17.6942 4.12201 17.5007 4.26063 17.3994Z" fill="#474747"/>
<path d="M4.17759 17.4207C4.31621 17.3202 4.51043 17.3507 4.61097 17.4893C4.71151 17.6279 4.68105 17.8221 4.54243 17.9227C4.40381 18.0232 4.21033 17.9927 4.10903 17.8541C4.00849 17.7155 4.03897 17.5213 4.17759 17.4207Z" fill="#E6E7E8"/>
<path d="M4.21873 17.4101C4.35735 17.3095 4.55157 17.34 4.65211 17.4786C4.75265 17.6172 4.72219 17.8107 4.58357 17.9112C4.44495 18.0118 4.25071 17.9813 4.15017 17.8427C4.04963 17.7041 4.08011 17.5106 4.21873 17.4093V17.4101Z" fill="#898989"/>
<path d="M5.20509 18.6059C5.32619 18.4848 5.5227 18.4848 5.6438 18.6059C5.76491 18.727 5.76491 18.9235 5.6438 19.0446C5.5227 19.1657 5.32619 19.1657 5.20509 19.0446C5.08398 18.9235 5.08398 18.727 5.20509 18.6059Z" fill="#474747"/>
<path d="M5.12663 18.6402C5.24773 18.5191 5.44424 18.5191 5.56534 18.6402C5.68645 18.7613 5.68645 18.9578 5.56534 19.0789C5.44424 19.2 5.24773 19.2 5.12663 19.0789C5.00552 18.9578 5.00552 18.7613 5.12663 18.6402Z" fill="#E6E7E8"/>
<path d="M5.16624 18.6227C5.28734 18.5016 5.48385 18.5016 5.60496 18.6227C5.72606 18.7438 5.72606 18.9395 5.60496 19.0606C5.48385 19.1817 5.28734 19.1817 5.16624 19.0606C5.04513 18.9395 5.04513 18.743 5.16624 18.6219V18.6227Z" fill="#898989"/>
<path d="M6.32702 19.6494C6.42756 19.5108 6.62178 19.4803 6.76041 19.5808C6.89903 19.6814 6.92951 19.8756 6.82897 20.0142C6.72843 20.1528 6.53419 20.1833 6.39557 20.0828C6.25694 19.9822 6.22648 19.788 6.32702 19.6494Z" fill="#474747"/>
<path d="M6.25467 19.6951C6.35521 19.5565 6.54943 19.526 6.68805 19.6266C6.82667 19.7271 6.85713 19.9213 6.75659 20.0599C6.65605 20.1986 6.46183 20.229 6.32321 20.1285C6.18459 20.0279 6.15413 19.8337 6.25467 19.6951Z" fill="#E6E7E8"/>
<path d="M6.29123 19.6722C6.39177 19.5336 6.58599 19.5032 6.72461 19.6037C6.86323 19.7042 6.89371 19.8985 6.79317 20.0363C6.69263 20.1749 6.49839 20.2054 6.35977 20.1049C6.22115 20.0043 6.19069 19.8101 6.29123 19.6715V19.6722Z" fill="#898989"/>
<path d="M7.59899 20.5047C7.67668 20.3524 7.86329 20.2914 8.01638 20.3691C8.16871 20.4468 8.22965 20.6334 8.15196 20.7865C8.07427 20.9389 7.88766 20.9998 7.73457 20.9221C7.58224 20.8444 7.5213 20.6578 7.59899 20.5055V20.5047Z" fill="#474747"/>
<path d="M7.53424 20.5611C7.61193 20.4087 7.79853 20.3478 7.95163 20.4255C8.10396 20.5032 8.1649 20.6898 8.08721 20.8429C8.00952 20.9952 7.82289 21.0562 7.6698 20.9785C7.51746 20.9008 7.45655 20.7142 7.53424 20.5611Z" fill="#E6E7E8"/>
<path d="M7.56625 20.5329C7.64394 20.3805 7.83054 20.3196 7.98364 20.3973C8.13597 20.475 8.1969 20.6616 8.11922 20.8147C8.04153 20.967 7.85492 21.028 7.70183 20.9503C7.54949 20.8726 7.48856 20.686 7.56625 20.5336V20.5329Z" fill="#898989"/>
<path d="M8.98826 21.1506C9.04158 20.9876 9.21601 20.8985 9.379 20.9518C9.542 21.0044 9.6311 21.1796 9.57779 21.3426C9.52523 21.5056 9.35006 21.5947 9.18706 21.5413C9.02407 21.4888 8.93494 21.3136 8.98826 21.1506Z" fill="#474747"/>
<path d="M8.93342 21.2161C8.98597 21.0531 9.16117 20.964 9.32416 21.0173C9.48716 21.0706 9.57626 21.245 9.52295 21.408C9.46963 21.571 9.29522 21.6602 9.13222 21.6068C8.96923 21.5535 8.8801 21.3783 8.93342 21.2161Z" fill="#E6E7E8"/>
<path d="M8.96086 21.1834C9.01341 21.0204 9.18858 20.9313 9.35158 20.9846C9.51458 21.0379 9.6037 21.2123 9.55038 21.3753C9.49707 21.5383 9.32264 21.6274 9.15964 21.5741C8.99664 21.5215 8.90754 21.3464 8.96086 21.1834Z" fill="#898989"/>
<path d="M10.4613 21.571C10.488 21.4019 10.6472 21.2869 10.8163 21.3136C10.9853 21.3403 11.1011 21.4994 11.0737 21.6685C11.047 21.8376 10.8878 21.9526 10.7188 21.926C10.5497 21.8993 10.4339 21.7401 10.4613 21.571Z" fill="#474747"/>
<path d="M10.4179 21.6442C10.4446 21.4751 10.6038 21.3593 10.7728 21.386C10.9419 21.4126 11.0577 21.5718 11.0303 21.7409C11.0036 21.91 10.8444 22.0258 10.6754 21.9983C10.5063 21.9717 10.3905 21.8125 10.4179 21.6434V21.6442Z" fill="#E6E7E8"/>
<path d="M10.44 21.6076C10.4667 21.4385 10.6258 21.3227 10.7949 21.3502C10.964 21.3768 11.079 21.536 11.0524 21.7051C11.0257 21.8742 10.8665 21.99 10.6974 21.9625C10.5283 21.9359 10.4133 21.7767 10.44 21.6076Z" fill="#898989"/>
<path d="M11.9824 21.7554C11.9824 21.584 12.1218 21.4454 12.2924 21.4454C12.4637 21.4454 12.6023 21.584 12.6023 21.7554C12.6023 21.9267 12.4637 22.0654 12.2924 22.0654C12.121 22.0654 11.9824 21.9267 11.9824 21.7554Z" fill="#474747"/>
<path d="M11.9511 21.8354C11.9511 21.664 12.0898 21.5254 12.2611 21.5254C12.4325 21.5254 12.5711 21.664 12.5711 21.8354C12.5711 22.0067 12.4317 22.1453 12.2611 22.1453C12.0898 22.1453 11.9511 22.006 11.9511 21.8354Z" fill="#E6E7E8"/>
<path d="M11.9671 21.795C11.9671 21.6236 12.1058 21.485 12.2771 21.485C12.4485 21.485 12.5871 21.6236 12.5871 21.795C12.5871 21.9664 12.4485 22.105 12.2771 22.105C12.1058 22.105 11.9671 21.9664 11.9671 21.795Z" fill="#898989"/>
<path d="M13.5141 21.6998C13.4874 21.5307 13.6032 21.3723 13.7723 21.3448C13.9414 21.3182 14.1005 21.4332 14.1272 21.603C14.1539 21.7721 14.0389 21.9313 13.8698 21.958C13.7007 21.9846 13.5415 21.8696 13.5148 21.7005L13.5141 21.6998Z" fill="#474747"/>
<path d="M13.495 21.7835C13.4684 21.6145 13.5834 21.4553 13.7525 21.4286C13.9215 21.402 14.0807 21.517 14.1074 21.6868C14.134 21.8559 14.0183 22.0151 13.8499 22.0417C13.6809 22.0684 13.5217 21.9526 13.495 21.7843V21.7835Z" fill="#E6E7E8"/>
<path d="M13.5041 21.7417C13.4775 21.5726 13.5925 21.4134 13.7616 21.3867C13.9307 21.3601 14.0899 21.4751 14.1165 21.6442C14.1432 21.8133 14.0282 21.9725 13.8591 21.9991C13.69 22.0258 13.5308 21.9108 13.5041 21.7409V21.7417Z" fill="#898989"/>
<path d="M15.0176 21.4058C14.965 21.2428 15.0541 21.0683 15.2171 21.015C15.3801 20.9625 15.5553 21.0516 15.6079 21.2138C15.6612 21.3768 15.5721 21.5512 15.4083 21.6046C15.2453 21.6571 15.0701 21.568 15.0176 21.4058Z" fill="#474747"/>
<path d="M15.0122 21.4918C14.9589 21.3288 15.0488 21.1536 15.211 21.1011C15.374 21.0478 15.5492 21.1369 15.6018 21.2999C15.6543 21.4629 15.5652 21.6381 15.4022 21.6906C15.2392 21.7439 15.064 21.6541 15.0115 21.4918H15.0122Z" fill="#E6E7E8"/>
<path d="M15.0145 21.4484C14.962 21.2854 15.0503 21.1102 15.2133 21.0577C15.3763 21.0051 15.5507 21.0935 15.604 21.2565C15.6566 21.4195 15.5675 21.5946 15.4052 21.6472C15.2423 21.7005 15.0678 21.6106 15.0145 21.4484Z" fill="#898989"/>
<path d="M16.4564 20.8802C16.3787 20.7279 16.4396 20.5405 16.5919 20.4628C16.7443 20.3851 16.9316 20.4461 17.0093 20.5984C17.087 20.7515 17.0261 20.9381 16.8737 21.0158C16.7214 21.0935 16.5348 21.0325 16.4564 20.8802Z" fill="#474747"/>
<path d="M16.4647 20.9655C16.387 20.8132 16.4472 20.6258 16.6003 20.5481C16.7526 20.4704 16.94 20.5306 17.0177 20.6837C17.0954 20.836 17.0345 21.0227 16.8821 21.1011C16.7298 21.1788 16.5424 21.1179 16.4647 20.9655Z" fill="#E6E7E8"/>
<path d="M16.4609 20.9229C16.3832 20.7705 16.4442 20.5832 16.5965 20.5062C16.7488 20.4285 16.9354 20.4887 17.0131 20.6418C17.0908 20.7941 17.0299 20.9815 16.8776 21.0592C16.7252 21.1369 16.5386 21.076 16.4602 20.9236L16.4609 20.9229Z" fill="#898989"/>
<path d="M17.7961 20.1353C17.6956 19.9967 17.7268 19.8025 17.8646 19.7019C18.0033 19.6014 18.1967 19.6319 18.298 19.7705C18.3986 19.9091 18.3681 20.1026 18.2295 20.2039C18.0909 20.3044 17.8974 20.2739 17.7961 20.1353Z" fill="#474747"/>
<path d="M17.8167 20.2183C17.7161 20.0797 17.7466 19.8855 17.8852 19.7849C18.0238 19.6844 18.2181 19.7149 18.3186 19.8535C18.4191 19.9921 18.3887 20.1863 18.2501 20.2869C18.1114 20.3874 17.9172 20.3562 17.8167 20.2183Z" fill="#E6E7E8"/>
<path d="M17.8068 20.1765C17.7062 20.0378 17.7367 19.8444 17.8753 19.7431C18.0139 19.6425 18.2074 19.673 18.3079 19.8116C18.4085 19.9502 18.378 20.1445 18.2394 20.245C18.1008 20.3455 17.9065 20.3151 17.806 20.1765H17.8068Z" fill="#898989"/>
<path d="M19.0018 19.1901C18.8807 19.069 18.8807 18.8725 19.0018 18.7514C19.1229 18.6303 19.3195 18.6303 19.4406 18.7514C19.5617 18.8725 19.5617 19.069 19.4406 19.1901C19.3195 19.3112 19.1229 19.3112 19.0018 19.1901Z" fill="#474747"/>
<path d="M19.0361 19.2693C18.915 19.1482 18.915 18.9517 19.0361 18.8306C19.1572 18.7095 19.3538 18.7095 19.4749 18.8306C19.596 18.9517 19.596 19.1482 19.4749 19.2693C19.3538 19.3904 19.1572 19.3904 19.0361 19.2693Z" fill="#E6E7E8"/>
<path d="M19.0194 19.2297C18.8983 19.1086 18.8983 18.9121 19.0194 18.791C19.1405 18.6699 19.337 18.6699 19.4581 18.791C19.5792 18.9121 19.5792 19.1086 19.4581 19.2297C19.337 19.3508 19.1405 19.3508 19.0194 19.2297Z" fill="#898989"/>
<path d="M20.0453 18.0682C19.9067 17.9676 19.8762 17.7734 19.9768 17.6348C20.0773 17.4961 20.2715 17.4657 20.4101 17.5662C20.5488 17.6668 20.5792 17.861 20.4787 17.9996C20.3782 18.1382 20.184 18.1687 20.0453 18.0682Z" fill="#474747"/>
<path d="M20.0918 18.1413C19.9532 18.0407 19.9227 17.8465 20.0233 17.7079C20.1238 17.5693 20.318 17.5388 20.4566 17.6393C20.5953 17.7399 20.6257 17.9341 20.5252 18.0727C20.4246 18.2113 20.2304 18.2418 20.0918 18.1413Z" fill="#E6E7E8"/>
<path d="M20.0682 18.1047C19.9296 18.0042 19.8991 17.8099 19.9996 17.6713C20.1002 17.5327 20.2936 17.5022 20.4323 17.6028C20.5709 17.7033 20.6014 17.8975 20.5008 18.0362C20.4003 18.1748 20.206 18.2052 20.0674 18.1047H20.0682Z" fill="#898989"/>
<path d="M20.9007 16.797C20.7483 16.7193 20.6874 16.5327 20.7651 16.3803C20.8428 16.228 21.0294 16.1671 21.1825 16.2447C21.3348 16.3224 21.3958 16.509 21.3181 16.6621C21.2404 16.8145 21.0538 16.8754 20.9014 16.7977L20.9007 16.797Z" fill="#474747"/>
<path d="M20.957 16.8617C20.8039 16.784 20.7438 16.5974 20.8215 16.4443C20.8991 16.292 21.0857 16.2311 21.2388 16.3087C21.3912 16.3864 21.4521 16.573 21.3744 16.7261C21.2967 16.8785 21.1101 16.9394 20.957 16.8617Z" fill="#E6E7E8"/>
<path d="M20.9288 16.8297C20.7765 16.752 20.7156 16.5654 20.7933 16.4123C20.871 16.26 21.0576 16.199 21.2099 16.2767C21.3622 16.3544 21.4232 16.5418 21.3455 16.6941C21.2678 16.8465 21.0812 16.9074 20.9281 16.8297H20.9288Z" fill="#898989"/>
<path d="M21.5466 15.4077C21.3836 15.3551 21.2944 15.1799 21.3478 15.0169C21.4011 14.854 21.5755 14.7648 21.7385 14.8182C21.9015 14.8707 21.9906 15.0459 21.9373 15.2089C21.8847 15.3719 21.7096 15.461 21.5466 15.4077Z" fill="#474747"/>
<path d="M21.6128 15.4625C21.4498 15.4092 21.3607 15.2348 21.414 15.0718C21.4666 14.9088 21.6418 14.8197 21.8048 14.873C21.9678 14.9263 22.0569 15.1007 22.0036 15.2637C21.9503 15.4267 21.7758 15.5158 21.6128 15.4633V15.4625Z" fill="#E6E7E8"/>
<path d="M21.5793 15.4351C21.4171 15.3818 21.3272 15.2073 21.3805 15.0444C21.433 14.8814 21.6082 14.7922 21.7712 14.8456C21.9342 14.8989 22.0233 15.0733 21.97 15.2363C21.9175 15.3993 21.7423 15.4884 21.5793 15.4351Z" fill="#898989"/>
<path d="M21.967 13.9346C21.7979 13.9079 21.6829 13.7488 21.7096 13.5797C21.7362 13.4106 21.8954 13.2956 22.0645 13.3222C22.2336 13.3489 22.3486 13.5081 22.3219 13.6772C22.2953 13.8463 22.1361 13.9613 21.967 13.9346Z" fill="#474747"/>
<path d="M22.0409 13.978C21.8718 13.9514 21.756 13.7922 21.7834 13.6231C21.8101 13.454 21.9693 13.3382 22.1384 13.3657C22.3075 13.3923 22.4232 13.5515 22.3966 13.7206C22.3699 13.8897 22.2107 14.0055 22.0417 13.9788L22.0409 13.978Z" fill="#E6E7E8"/>
<path d="M22.0036 13.9559C21.8345 13.9293 21.7187 13.7701 21.7461 13.601C21.7728 13.4319 21.9312 13.3169 22.1011 13.3436C22.2702 13.3702 22.3859 13.5294 22.3585 13.6985C22.3318 13.8676 22.1727 13.9834 22.0036 13.9559Z" fill="#898989"/>
<path d="M22.1513 12.4136C21.9799 12.4136 21.8413 12.2742 21.8413 12.1036C21.8413 11.9322 21.9799 11.7936 22.1513 11.7936C22.3227 11.7936 22.4613 11.9322 22.4613 12.1036C22.4613 12.2742 22.3227 12.4136 22.1513 12.4136Z" fill="#474747"/>
<path d="M22.2313 12.4448C22.0599 12.4448 21.9213 12.3054 21.9213 12.1348C21.9213 11.9634 22.0599 11.8248 22.2313 11.8248C22.4027 11.8248 22.5413 11.9634 22.5413 12.1348C22.5413 12.3062 22.4019 12.4448 22.2313 12.4448Z" fill="#E6E7E8"/>
<path d="M22.1917 12.4288C22.0203 12.4288 21.8817 12.2902 21.8817 12.1188C21.8817 11.9474 22.0203 11.8088 22.1917 11.8088C22.3631 11.8088 22.5017 11.9482 22.5017 12.1188C22.5017 12.2902 22.3631 12.4288 22.1917 12.4288Z" fill="#898989"/>
<path d="M22.0965 10.8819C21.9274 10.9085 21.769 10.7928 21.7415 10.6237C21.7149 10.4546 21.8299 10.2954 21.999 10.2687C22.1681 10.2421 22.3273 10.3571 22.3539 10.5269C22.3806 10.696 22.2656 10.8545 22.0965 10.8819Z" fill="#474747"/>
<path d="M22.1803 10.9009C22.0112 10.9276 21.852 10.8118 21.8253 10.6427C21.7987 10.4736 21.9137 10.3144 22.0828 10.2878C22.2519 10.2611 22.4111 10.3761 22.4377 10.5452C22.4644 10.7143 22.3486 10.8735 22.1803 10.9002V10.9009Z" fill="#E6E7E8"/>
<path d="M22.1384 10.8918C21.9693 10.9184 21.8101 10.8034 21.7834 10.6336C21.7568 10.4645 21.8718 10.306 22.0409 10.2786C22.21 10.252 22.3692 10.367 22.3958 10.5361C22.4225 10.7052 22.3075 10.8643 22.1384 10.891V10.8918Z" fill="#898989"/>
<path d="M21.8017 9.37836C21.6387 9.43167 21.4643 9.3418 21.411 9.17956C21.3577 9.01657 21.4475 8.84215 21.6098 8.78883C21.7728 8.73627 21.9472 8.82539 22.0005 8.98838C22.0531 9.15138 21.9639 9.3258 21.8009 9.37912L21.8017 9.37836Z" fill="#474747"/>
<path d="M21.8878 9.3837C21.7248 9.43702 21.5496 9.34714 21.497 9.18415C21.4437 9.02115 21.5329 8.84673 21.6959 8.79341C21.8588 8.74086 22.034 8.82997 22.0866 8.99221C22.1399 9.1552 22.05 9.33038 21.8878 9.38294V9.3837Z" fill="#E6E7E8"/>
<path d="M21.8451 9.38141C21.6821 9.43397 21.5077 9.34485 21.4544 9.18186C21.4011 9.01886 21.4902 8.84444 21.6532 8.79112C21.8162 8.73857 21.9914 8.82768 22.0439 8.98992C22.0972 9.15291 22.0073 9.3281 21.8451 9.38065V9.38141Z" fill="#898989"/>
<path d="M21.2762 7.93959C21.1238 8.01728 20.9372 7.95634 20.8588 7.80401C20.7811 7.65168 20.842 7.46431 20.9944 7.38662C21.1467 7.30893 21.3333 7.36986 21.4118 7.5222C21.4894 7.67453 21.4285 7.86114 21.2762 7.93959Z" fill="#474747"/>
<path d="M21.3615 7.93119C21.2084 8.00888 21.0218 7.94795 20.9441 7.79562C20.8664 7.64329 20.9266 7.45668 21.0797 7.37823C21.232 7.30054 21.4194 7.36147 21.497 7.5138C21.5747 7.66614 21.5138 7.8535 21.3615 7.93119Z" fill="#E6E7E8"/>
<path d="M21.3188 7.93501C21.1665 8.0127 20.9799 7.95177 20.9014 7.79943C20.8237 7.6471 20.8847 7.4605 21.037 7.38281C21.1893 7.30512 21.3767 7.36605 21.4544 7.51838C21.5321 7.67071 21.4711 7.85808 21.3188 7.93577V7.93501Z" fill="#898989"/>
<path d="M20.5312 6.5998C20.3926 6.70034 20.1984 6.66911 20.0979 6.53125C19.9973 6.39263 20.0278 6.1984 20.1664 6.09786C20.305 5.99732 20.4985 6.02779 20.5998 6.16642C20.7003 6.30504 20.6699 6.4985 20.5312 6.5998Z" fill="#474747"/>
<path d="M20.615 6.57923C20.4764 6.67977 20.2822 6.64931 20.1816 6.51068C20.0811 6.37206 20.1116 6.1786 20.2502 6.0773C20.3888 5.97676 20.583 6.00722 20.6836 6.14584C20.7841 6.28447 20.7537 6.47869 20.615 6.57923Z" fill="#E6E7E8"/>
<path d="M20.5731 6.58912C20.4345 6.68966 20.2411 6.65919 20.1398 6.52057C20.0392 6.38195 20.0697 6.18849 20.2083 6.08795C20.3469 5.98741 20.5412 6.01787 20.6417 6.15649C20.7422 6.29512 20.7118 6.48858 20.5731 6.58988V6.58912Z" fill="#898989"/>
<path d="M19.5868 5.39408C19.4657 5.51518 19.2692 5.51518 19.1481 5.39408C19.027 5.27298 19.027 5.07647 19.1481 4.95536C19.2692 4.83426 19.4657 4.83426 19.5868 4.95536C19.7079 5.07647 19.7079 5.27298 19.5868 5.39408Z" fill="#474747"/>
<path d="M19.6653 5.35981C19.5442 5.48091 19.3476 5.48091 19.2265 5.35981C19.1054 5.2387 19.1054 5.04219 19.2265 4.92109C19.3476 4.79999 19.5442 4.79999 19.6653 4.92109C19.7864 5.04219 19.7864 5.2387 19.6653 5.35981Z" fill="#E6E7E8"/>
<path d="M19.6256 5.37656C19.5045 5.49767 19.308 5.49767 19.1869 5.37656C19.0658 5.25546 19.0658 5.05971 19.1869 4.93784C19.308 4.81674 19.5045 4.81674 19.6256 4.93784C19.7468 5.05895 19.7468 5.25546 19.6256 5.37656Z" fill="#898989"/>
<path d="M18.4649 4.35059C18.3643 4.48921 18.1701 4.51968 18.0315 4.41914C17.8928 4.3186 17.8624 4.12437 17.9629 3.98575C18.0635 3.84713 18.2569 3.81666 18.3963 3.9172C18.5349 4.01774 18.5654 4.21196 18.4649 4.35059Z" fill="#474747"/>
<path d="M18.5372 4.3049C18.4367 4.44352 18.2425 4.47399 18.1038 4.37345C17.9652 4.27291 17.9347 4.07869 18.0353 3.94007C18.1358 3.80144 18.33 3.77098 18.4686 3.87151C18.6073 3.97205 18.6377 4.16628 18.5372 4.3049Z" fill="#E6E7E8"/>
<path d="M18.5007 4.32776C18.4001 4.46638 18.2059 4.49685 18.0673 4.39631C17.9286 4.29577 17.8982 4.10231 17.9987 3.96292C18.0993 3.8243 18.2935 3.79383 18.4321 3.89437C18.5707 3.99491 18.6012 4.18914 18.5007 4.32776Z" fill="#898989"/>
<path d="M17.1936 3.49526C17.116 3.6476 16.9294 3.70853 16.7763 3.63084C16.6239 3.55315 16.563 3.36654 16.6407 3.21345C16.7184 3.06112 16.905 3.00019 17.0581 3.07787C17.2104 3.15556 17.2713 3.34217 17.1936 3.49526Z" fill="#474747"/>
<path d="M17.2576 3.4389C17.18 3.592 16.9926 3.65217 16.8403 3.57448C16.6879 3.49679 16.627 3.31018 16.7047 3.15708C16.7824 3.00475 16.969 2.94382 17.1221 3.02151C17.2744 3.0992 17.3353 3.28657 17.2576 3.4389Z" fill="#E6E7E8"/>
<path d="M17.2257 3.46707C17.148 3.6194 16.9614 3.68033 16.809 3.60264C16.6567 3.52496 16.5958 3.33835 16.6735 3.18602C16.7511 3.03368 16.9378 2.97275 17.0908 3.05044C17.2432 3.12813 17.3041 3.31474 17.2264 3.46783L17.2257 3.46707Z" fill="#898989"/>
<path d="M15.8036 2.84936C15.7511 3.01236 15.5759 3.10147 15.4129 3.04815C15.2499 2.9956 15.1608 2.82042 15.2133 2.65742C15.2666 2.49442 15.4411 2.40531 15.6041 2.45863C15.7663 2.51118 15.8562 2.68637 15.8029 2.84936H15.8036Z" fill="#474747"/>
<path d="M15.8585 2.78311C15.8051 2.9461 15.63 3.03522 15.4677 2.9819C15.3047 2.92935 15.2156 2.75416 15.2689 2.59117C15.3215 2.42817 15.4967 2.33906 15.6597 2.39237C15.8227 2.44493 15.9118 2.62087 15.8592 2.78311H15.8585Z" fill="#E6E7E8"/>
<path d="M15.8311 2.81662C15.7777 2.97961 15.6033 3.06873 15.4403 3.01541C15.2773 2.96285 15.1882 2.78767 15.2415 2.62468C15.2948 2.46168 15.4693 2.37257 15.6323 2.42588C15.7952 2.47844 15.8844 2.65362 15.8311 2.81662Z" fill="#898989"/>
<path d="M14.3306 2.42893C14.3039 2.59802 14.1447 2.71303 13.9756 2.68637C13.8065 2.65972 13.6908 2.50053 13.7182 2.33144C13.7449 2.16235 13.9033 2.04734 14.0731 2.074C14.2422 2.10066 14.3572 2.25984 14.3306 2.42893Z" fill="#474747"/>
<path d="M14.374 2.35505C14.3473 2.52414 14.1881 2.63991 14.0191 2.61249C13.85 2.58583 13.7342 2.42664 13.7616 2.25756C13.7883 2.08847 13.9475 1.97346 14.1165 2.00012C14.2856 2.02677 14.4014 2.18596 14.3747 2.35505H14.374Z" fill="#E6E7E8"/>
<path d="M14.3527 2.39237C14.326 2.56146 14.1668 2.67647 13.9977 2.64982C13.8286 2.62316 13.7136 2.46473 13.7403 2.29488C13.7669 2.12579 13.9261 2.01002 14.0952 2.03744C14.2643 2.0641 14.3801 2.22328 14.3527 2.39237Z" fill="#898989"/>
<path d="M15.3779 9.56494C15.3611 9.59541 15.3725 9.63349 15.403 9.65025C15.9613 9.95415 16.4023 10.2862 16.7374 10.5886C16.7694 10.6176 16.7603 10.6716 16.7199 10.6869C16.7199 10.6869 16.7199 10.6869 16.7191 10.6869C16.5668 10.7432 16.4152 10.7257 16.2637 10.6869C15.9598 10.6084 15.6848 10.4622 15.4091 10.319C14.9506 10.0806 14.4997 9.82696 14.0091 9.65711C13.8903 9.61598 13.7692 9.57865 13.6481 9.5459C13.6237 9.53905 13.5811 9.55123 13.5636 9.57028C13.0357 10.1689 12.3495 10.4508 11.5787 10.5597C10.9153 10.6541 10.2557 10.6145 9.60064 10.4827C9.59302 10.4812 9.58616 10.4774 9.56255 10.469C9.6014 10.4546 9.62805 10.4447 9.65471 10.4348C10.066 10.2862 10.44 10.0775 10.7515 9.76526C10.9869 9.52915 11.1544 9.25342 11.2298 8.92591C11.2367 8.8962 11.2405 8.86574 11.2481 8.82308C11.0752 8.82004 10.9092 8.81471 10.7439 8.81394C9.96166 8.81166 9.18781 8.8863 8.43376 9.1049C7.60355 9.34635 6.86018 9.73708 6.27446 10.3883C5.75043 10.9717 5.43206 11.6504 5.37646 12.4402C5.36732 12.5728 5.3795 12.7076 5.39168 12.8401C5.41453 13.0762 5.54555 13.2453 5.75957 13.3337C5.99874 13.4327 6.24551 13.5142 6.49228 13.5949C6.81904 13.7023 7.13741 13.8219 7.40399 14.0481C7.71627 14.3116 7.89451 14.7283 7.90822 15.1365C7.75437 14.8577 7.49159 14.7778 7.2151 14.7389C6.92795 14.6986 6.63701 14.6826 6.34834 14.6529C6.26379 14.6445 6.18001 14.6323 6.09699 14.6155C5.97055 14.5889 5.84944 14.547 5.74814 14.4464C5.74281 14.5158 5.74433 14.579 5.73215 14.6399C5.70549 14.777 5.63237 14.8928 5.5463 14.9994C5.45719 15.1091 5.36502 15.2157 5.27515 15.3246C4.97734 15.6841 4.83492 15.9919 4.94155 16.4984C4.86843 16.3993 4.79302 16.3026 4.7237 16.2006C4.38019 15.6986 4.3246 15.1601 4.52187 14.5904C4.5988 14.3672 4.67725 14.1441 4.74961 13.9186C4.87681 13.5225 4.86842 13.1272 4.71913 12.7396C4.39162 11.888 4.35582 11.0159 4.56604 10.1392C4.99714 8.33638 6.04672 6.98976 7.6424 6.06282C8.10473 5.79471 8.60362 5.60658 9.12307 5.47862C9.14821 5.47253 9.17334 5.46643 9.19771 5.45882C9.20228 5.45806 9.20609 5.45349 9.22133 5.44359C8.8603 4.83806 8.32638 4.44352 7.70715 4.13353C7.88005 4.12591 8.05217 4.1122 8.22507 4.11068C8.86563 4.10534 9.49019 4.20512 10.0934 4.42448C10.6403 4.62404 11.1323 4.91575 11.5612 5.31334C11.5954 5.34533 11.6472 5.3697 11.6944 5.3758C12.5231 5.4969 13.3084 5.7414 14.0175 6.19687C15.0183 6.83972 15.6825 7.74228 16.0428 8.86954C16.1197 9.11023 16.2317 9.32198 16.384 9.51925C16.5203 9.69595 16.6521 9.87646 16.777 10.0608C16.8334 10.1438 16.8753 10.236 16.9035 10.3319V10.3342C16.9301 10.4226 16.825 10.4896 16.7557 10.4294C16.4236 10.1392 15.9971 9.82619 15.4624 9.53524C15.4319 9.51848 15.3931 9.52991 15.3771 9.56114L15.3779 9.56494Z" fill="#292929"/>
<path d="M15.3291 9.46137C15.3124 9.49184 15.3238 9.52992 15.3543 9.54668C15.9126 9.85058 16.3536 10.1827 16.6887 10.485C16.7207 10.514 16.7115 10.5681 16.6712 10.5833C16.6712 10.5833 16.6712 10.5833 16.6704 10.5833C16.5181 10.6397 16.3665 10.6221 16.2149 10.5833C15.911 10.5048 15.6361 10.3586 15.3604 10.2154C14.9018 9.97702 14.4509 9.72338 13.9604 9.55353C13.8416 9.5124 13.7205 9.47508 13.5994 9.44233C13.575 9.43547 13.5324 9.44766 13.5148 9.4667C12.987 10.0654 12.3007 10.3472 11.5299 10.4561C10.8665 10.5505 10.2069 10.5109 9.55191 10.3792C9.54429 10.3776 9.53744 10.3738 9.51383 10.3655C9.55267 10.351 9.57933 10.3411 9.60599 10.3312C10.0173 10.1827 10.3913 9.97397 10.7028 9.66169C10.9381 9.42557 11.1057 9.14985 11.1811 8.82233C11.188 8.79263 11.1918 8.76216 11.1994 8.71951C11.0265 8.71646 10.8604 8.71113 10.6952 8.71037C9.91294 8.70809 9.13908 8.78273 8.38504 9.00133C7.55483 9.24277 6.81143 9.6335 6.22572 10.2847C5.70169 10.8682 5.38331 11.5468 5.32771 12.3366C5.31857 12.4692 5.33077 12.604 5.34296 12.7365C5.36581 12.9726 5.4968 13.1417 5.71083 13.2301C5.94999 13.3291 6.19678 13.4106 6.44356 13.4913C6.77031 13.5987 7.08869 13.7183 7.35527 13.9445C7.66755 14.2081 7.84579 14.6247 7.8595 15.0329C7.70564 14.7542 7.44286 14.6742 7.16638 14.6353C6.87923 14.595 6.58827 14.579 6.2996 14.5493C6.21505 14.5409 6.13128 14.5287 6.04826 14.512C5.92183 14.4853 5.80071 14.4434 5.69941 14.3429C5.69408 14.4122 5.69561 14.4754 5.68342 14.5363C5.65676 14.6734 5.58365 14.7892 5.49758 14.8958C5.40847 15.0055 5.3163 15.1121 5.22642 15.2211C4.92861 15.5806 4.78617 15.8883 4.89281 16.3948C4.81969 16.2958 4.74429 16.199 4.67498 16.097C4.33147 15.595 4.27586 15.0565 4.47313 14.4868C4.55006 14.2637 4.62851 14.0405 4.70087 13.815C4.82806 13.419 4.81969 13.0237 4.67041 12.636C4.34289 11.7844 4.30709 10.9123 4.51731 10.0357C4.94841 8.23281 5.99798 6.88619 7.59366 5.95924C8.05599 5.69114 8.55489 5.50301 9.07435 5.37505C9.09948 5.36895 9.12461 5.36286 9.14899 5.35524C9.15356 5.35448 9.15737 5.34991 9.1726 5.34001C8.81158 4.73449 8.27764 4.33995 7.65841 4.02995C7.83131 4.02233 8.00345 4.00862 8.17634 4.0071C8.8169 4.00177 9.44147 4.10155 10.0447 4.32091C10.5916 4.52046 11.0836 4.81218 11.5124 5.20977C11.5467 5.24176 11.5985 5.26613 11.6457 5.27222C12.4744 5.39333 13.2597 5.63782 13.9688 6.09329C14.9696 6.73614 15.6338 7.63871 15.994 8.76597C16.071 9.00666 16.1829 9.2184 16.3353 9.41567C16.4716 9.59238 16.6034 9.77289 16.7283 9.95721C16.7847 10.0402 16.8265 10.1324 16.8547 10.2284V10.2306C16.8814 10.319 16.7763 10.386 16.707 10.3259C16.3749 10.0357 15.9484 9.72262 15.4137 9.43166C15.3832 9.41491 15.3443 9.42633 15.3284 9.45756L15.3291 9.46137Z" fill="url(#paint3_radial_0_631)"/>
<g opacity="0.69">
<path d="M15.3291 9.46137C15.3124 9.49184 15.3238 9.52992 15.3543 9.54668C15.9126 9.85058 16.3536 10.1827 16.6887 10.485C16.7207 10.514 16.7115 10.5681 16.6712 10.5833C16.6712 10.5833 16.6712 10.5833 16.6704 10.5833C16.5181 10.6397 16.3665 10.6221 16.2149 10.5833C15.911 10.5048 15.6361 10.3586 15.3604 10.2154C14.9018 9.97702 14.4509 9.72338 13.9604 9.55353C13.8416 9.5124 13.7205 9.47508 13.5994 9.44233C13.575 9.43547 13.5324 9.44766 13.5148 9.4667C12.987 10.0654 12.3007 10.3472 11.5299 10.4561C10.8665 10.5505 10.2069 10.5109 9.55191 10.3792C9.54429 10.3776 9.53744 10.3738 9.51383 10.3655C9.55267 10.351 9.57933 10.3411 9.60599 10.3312C10.0173 10.1827 10.3913 9.97397 10.7028 9.66169C10.9381 9.42557 11.1057 9.14985 11.1811 8.82233C11.188 8.79263 11.1918 8.76216 11.1994 8.71951C11.0265 8.71646 10.8604 8.71113 10.6952 8.71037C9.91294 8.70809 9.13908 8.78273 8.38504 9.00133C7.55483 9.24277 6.81143 9.6335 6.22572 10.2847C5.70169 10.8682 5.38331 11.5468 5.32771 12.3366C5.31857 12.4692 5.33077 12.604 5.34296 12.7365C5.36581 12.9726 5.4968 13.1417 5.71083 13.2301C5.94999 13.3291 6.19678 13.4106 6.44356 13.4913C6.77031 13.5987 7.08869 13.7183 7.35527 13.9445C7.66755 14.2081 7.84579 14.6247 7.8595 15.0329C7.70564 14.7542 7.44286 14.6742 7.16638 14.6353C6.87923 14.595 6.58827 14.579 6.2996 14.5493C6.21505 14.5409 6.13128 14.5287 6.04826 14.512C5.92183 14.4853 5.80071 14.4434 5.69941 14.3429C5.69408 14.4122 5.69561 14.4754 5.68342 14.5363C5.65676 14.6734 5.58365 14.7892 5.49758 14.8958C5.40847 15.0055 5.3163 15.1121 5.22642 15.2211C4.92861 15.5806 4.78617 15.8883 4.89281 16.3948C4.81969 16.2958 4.74429 16.199 4.67498 16.097C4.33147 15.595 4.27586 15.0565 4.47313 14.4868C4.55006 14.2637 4.62851 14.0405 4.70087 13.815C4.82806 13.419 4.81969 13.0237 4.67041 12.636C4.34289 11.7844 4.30709 10.9123 4.51731 10.0357C4.94841 8.23281 5.99798 6.88619 7.59366 5.95924C8.05599 5.69114 8.55489 5.50301 9.07435 5.37505C9.09948 5.36895 9.12461 5.36286 9.14899 5.35524C9.15356 5.35448 9.15737 5.34991 9.1726 5.34001C8.81158 4.73449 8.27764 4.33995 7.65841 4.02995C7.83131 4.02233 8.00345 4.00862 8.17634 4.0071C8.8169 4.00177 9.44147 4.10155 10.0447 4.32091C10.5916 4.52046 11.0836 4.81218 11.5124 5.20977C11.5467 5.24176 11.5985 5.26613 11.6457 5.27222C12.4744 5.39333 13.2597 5.63782 13.9688 6.09329C14.9696 6.73614 15.6338 7.63871 15.994 8.76597C16.071 9.00666 16.1829 9.2184 16.3353 9.41567C16.4716 9.59238 16.6034 9.77289 16.7283 9.95721C16.7847 10.0402 16.8265 10.1324 16.8547 10.2284V10.2306C16.8814 10.319 16.7763 10.386 16.707 10.3259C16.3749 10.0357 15.9484 9.72262 15.4137 9.43166C15.3832 9.41491 15.3443 9.42633 15.3284 9.45756L15.3291 9.46137Z" fill="#4A4A4A"/>
</g>
<path d="M9.79029 15.0626C9.80248 15.0299 9.78572 14.9941 9.75297 14.9819C9.15735 14.761 8.67369 14.4937 8.29819 14.2423C8.26239 14.2179 8.26392 14.1631 8.30124 14.1425C8.30124 14.1425 8.30124 14.1425 8.302 14.1425C8.44443 14.0656 8.59754 14.0603 8.75292 14.0778C9.0652 14.1121 9.35843 14.2179 9.65167 14.3208C10.1391 14.4914 10.622 14.6787 11.1316 14.777C11.255 14.8006 11.3799 14.8204 11.5048 14.8364C11.5299 14.8394 11.5703 14.8219 11.5848 14.8006C12.0227 14.1334 12.6618 13.7571 13.4097 13.5393C14.0533 13.3519 14.7114 13.2978 15.3786 13.3352C15.3862 13.3352 15.3931 13.3382 15.4182 13.3435C15.3817 13.3633 15.3565 13.3771 15.3314 13.39C14.9452 13.5949 14.6048 13.8554 14.3405 14.208C14.1409 14.4754 14.0145 14.7724 13.9855 15.1068C13.9825 15.1373 13.9833 15.1677 13.9817 15.2111C14.1531 15.1898 14.3184 15.1715 14.4821 15.1487C15.2568 15.0405 16.0123 14.8562 16.7275 14.5325C17.5151 14.176 18.196 13.6832 18.6827 12.9559C19.1184 12.3039 19.3377 11.5864 19.2806 10.7973C19.2707 10.6648 19.2403 10.533 19.2083 10.4035C19.1519 10.1727 18.998 10.0242 18.7741 9.96709C18.5228 9.90311 18.2676 9.85741 18.0124 9.81247C17.6735 9.75306 17.3422 9.67918 17.0451 9.49334C16.6986 9.27626 16.4632 8.88934 16.3916 8.48794C16.5836 8.74233 16.8555 8.78423 17.1342 8.78346C17.4244 8.7827 17.7146 8.75757 18.0048 8.74538C18.0894 8.74157 18.1747 8.74157 18.2592 8.74691C18.3879 8.75528 18.5144 8.77966 18.6286 8.86496C18.6241 8.79565 18.6134 8.7332 18.6172 8.6715C18.6241 8.53212 18.6804 8.4072 18.7505 8.28915C18.8229 8.16804 18.899 8.04922 18.9729 7.92812C19.2166 7.52977 19.3141 7.20454 19.1367 6.7186C19.2227 6.80619 19.3119 6.8915 19.3949 6.98213C19.8062 7.42999 19.9372 7.95478 19.8229 8.54735C19.778 8.77966 19.7323 9.0112 19.6927 9.24503C19.6234 9.65481 19.6874 10.0455 19.89 10.4081C20.3348 11.204 20.4939 12.0624 20.4109 12.9604C20.2403 14.8059 19.3926 16.2881 17.9439 17.4322C17.5242 17.7635 17.0573 18.0194 16.5615 18.2205C16.5379 18.2304 16.5135 18.2395 16.4899 18.2502C16.4853 18.2517 16.4823 18.2563 16.4693 18.2685C16.9126 18.8169 17.4968 19.1314 18.1541 19.35C17.9843 19.382 17.8152 19.4201 17.6446 19.446C17.0109 19.542 16.3787 19.5321 15.7511 19.4003C15.1813 19.2799 14.6528 19.0613 14.1721 18.7285C14.1333 18.7018 14.0785 18.6851 14.0312 18.6851C13.1934 18.6828 12.3815 18.5518 11.6152 18.2014C10.5337 17.7071 9.74763 16.9074 9.23123 15.8433C9.12155 15.6156 8.97989 15.4221 8.80089 15.2485C8.64095 15.0931 8.48481 14.9331 8.33477 14.7679C8.26698 14.694 8.21213 14.6087 8.171 14.5173V14.515C8.13139 14.4312 8.2266 14.3497 8.30353 14.4C8.67369 14.6399 9.13983 14.8897 9.71032 15.1015C9.74307 15.1136 9.77963 15.0969 9.79182 15.0641L9.79029 15.0626Z" fill="#292929"/>
<path d="M9.74156 14.959C9.75374 14.9263 9.73699 14.8905 9.70424 14.8783C9.10862 14.6574 8.62495 14.3901 8.24945 14.1387C8.21366 14.1144 8.21518 14.0595 8.2525 14.0389C8.2525 14.0389 8.2525 14.0389 8.25327 14.0389C8.3957 13.962 8.54878 13.9567 8.70416 13.9742C9.01645 14.0085 9.30969 14.1144 9.60293 14.2172C10.0904 14.3878 10.5733 14.5752 11.0828 14.6734C11.2062 14.697 11.3311 14.7168 11.4561 14.7328C11.4812 14.7359 11.5215 14.7184 11.536 14.697C11.974 14.0298 12.613 13.6535 13.361 13.4357C14.0046 13.2483 14.6627 13.1943 15.3299 13.2316C15.3375 13.2316 15.3443 13.2346 15.3695 13.24C15.3329 13.2598 15.3078 13.2735 15.2827 13.2864C14.8965 13.4913 14.556 13.7518 14.2917 14.1045C14.0922 14.3718 13.9657 14.6688 13.9368 15.0032C13.9337 15.0337 13.9345 15.0641 13.933 15.1076C14.1044 15.0862 14.2696 15.068 14.4334 15.0451C15.208 14.9369 15.9636 14.7526 16.6788 14.4289C17.4663 14.0725 18.1473 13.5797 18.634 12.8523C19.0696 12.2003 19.289 11.4828 19.2319 10.6937C19.222 10.5612 19.1915 10.4294 19.1595 10.2999C19.1032 10.0692 18.9493 9.92064 18.7254 9.86351C18.474 9.79953 18.2189 9.75383 17.9637 9.7089C17.6248 9.64949 17.2934 9.5756 16.9964 9.38976C16.6498 9.17268 16.4145 8.78576 16.3429 8.38436C16.5348 8.63876 16.8067 8.68065 17.0855 8.67989C17.3757 8.67913 17.6659 8.65399 17.9561 8.6418C18.0406 8.638 18.1259 8.638 18.2105 8.64333C18.3392 8.65171 18.4656 8.67608 18.5799 8.76139C18.5753 8.69208 18.5647 8.62962 18.5685 8.56793C18.5753 8.42854 18.6317 8.30363 18.7018 8.18557C18.7741 8.06446 18.8503 7.94565 18.9242 7.82454C19.1679 7.42619 19.2654 7.10096 19.0879 6.61502C19.174 6.70261 19.2631 6.78792 19.3461 6.87855C19.7574 7.32641 19.8884 7.8512 19.7742 8.44377C19.7292 8.67608 19.6835 8.90762 19.6439 9.14146C19.5746 9.55123 19.6386 9.94196 19.8412 10.3045C20.286 11.1005 20.4452 11.9588 20.3622 12.8568C20.1916 14.7024 19.3438 16.1846 17.8951 17.3286C17.4755 17.6599 17.0086 17.9158 16.5127 18.1169C16.4891 18.1268 16.4648 18.1359 16.4411 18.1466C16.4366 18.1481 16.4335 18.1527 16.4206 18.1649C16.8639 18.7133 17.448 19.0278 18.1054 19.2464C17.9355 19.2784 17.7664 19.3165 17.5958 19.3424C16.9621 19.4384 16.3299 19.4285 15.7023 19.2967C15.1326 19.1764 14.604 18.9578 14.1234 18.6249C14.0846 18.5983 14.0297 18.5815 13.9825 18.5815C13.1447 18.5792 12.3327 18.4482 11.5665 18.0979C10.4849 17.6035 9.6989 16.8038 9.18249 15.7397C9.07281 15.512 8.93115 15.3185 8.75216 15.1449C8.59221 14.9895 8.43606 14.8296 8.28601 14.6643C8.21822 14.5904 8.16339 14.5051 8.12226 14.4137V14.4114C8.08266 14.3276 8.17786 14.2461 8.25479 14.2964C8.62496 14.5363 9.09109 14.7861 9.66158 14.9979C9.69433 15.0101 9.7309 14.9933 9.74308 14.9606L9.74156 14.959Z" fill="url(#paint4_radial_0_631)"/>
<g opacity="0.69">
<path d="M9.74156 14.959C9.75374 14.9263 9.73699 14.8905 9.70424 14.8783C9.10862 14.6574 8.62495 14.3901 8.24945 14.1387C8.21366 14.1144 8.21518 14.0595 8.2525 14.0389C8.2525 14.0389 8.2525 14.0389 8.25327 14.0389C8.3957 13.962 8.54878 13.9567 8.70416 13.9742C9.01645 14.0085 9.30969 14.1144 9.60293 14.2172C10.0904 14.3878 10.5733 14.5752 11.0828 14.6734C11.2062 14.697 11.3311 14.7168 11.4561 14.7328C11.4812 14.7359 11.5215 14.7184 11.536 14.697C11.974 14.0298 12.613 13.6535 13.361 13.4357C14.0046 13.2483 14.6627 13.1943 15.3299 13.2316C15.3375 13.2316 15.3443 13.2346 15.3695 13.24C15.3329 13.2598 15.3078 13.2735 15.2827 13.2864C14.8965 13.4913 14.556 13.7518 14.2917 14.1045C14.0922 14.3718 13.9657 14.6688 13.9368 15.0032C13.9337 15.0337 13.9345 15.0641 13.933 15.1076C14.1044 15.0862 14.2696 15.068 14.4334 15.0451C15.208 14.9369 15.9636 14.7526 16.6788 14.4289C17.4663 14.0725 18.1473 13.5797 18.634 12.8523C19.0696 12.2003 19.289 11.4828 19.2319 10.6937C19.222 10.5612 19.1915 10.4294 19.1595 10.2999C19.1032 10.0692 18.9493 9.92064 18.7254 9.86351C18.474 9.79953 18.2189 9.75383 17.9637 9.7089C17.6248 9.64949 17.2934 9.5756 16.9964 9.38976C16.6498 9.17268 16.4145 8.78576 16.3429 8.38436C16.5348 8.63876 16.8067 8.68065 17.0855 8.67989C17.3757 8.67913 17.6659 8.65399 17.9561 8.6418C18.0406 8.638 18.1259 8.638 18.2105 8.64333C18.3392 8.65171 18.4656 8.67608 18.5799 8.76139C18.5753 8.69208 18.5647 8.62962 18.5685 8.56793C18.5753 8.42854 18.6317 8.30363 18.7018 8.18557C18.7741 8.06446 18.8503 7.94565 18.9242 7.82454C19.1679 7.42619 19.2654 7.10096 19.0879 6.61502C19.174 6.70261 19.2631 6.78792 19.3461 6.87855C19.7574 7.32641 19.8884 7.8512 19.7742 8.44377C19.7292 8.67608 19.6835 8.90762 19.6439 9.14146C19.5746 9.55123 19.6386 9.94196 19.8412 10.3045C20.286 11.1005 20.4452 11.9588 20.3622 12.8568C20.1916 14.7024 19.3438 16.1846 17.8951 17.3286C17.4755 17.6599 17.0086 17.9158 16.5127 18.1169C16.4891 18.1268 16.4648 18.1359 16.4411 18.1466C16.4366 18.1481 16.4335 18.1527 16.4206 18.1649C16.8639 18.7133 17.448 19.0278 18.1054 19.2464C17.9355 19.2784 17.7664 19.3165 17.5958 19.3424C16.9621 19.4384 16.3299 19.4285 15.7023 19.2967C15.1326 19.1764 14.604 18.9578 14.1234 18.6249C14.0846 18.5983 14.0297 18.5815 13.9825 18.5815C13.1447 18.5792 12.3327 18.4482 11.5665 18.0979C10.4849 17.6035 9.6989 16.8038 9.18249 15.7397C9.07281 15.512 8.93115 15.3185 8.75216 15.1449C8.59221 14.9895 8.43606 14.8296 8.28601 14.6643C8.21822 14.5904 8.16339 14.5051 8.12226 14.4137V14.4114C8.08266 14.3276 8.17786 14.2461 8.25479 14.2964C8.62496 14.5363 9.09109 14.7861 9.66158 14.9979C9.69433 15.0101 9.7309 14.9933 9.74308 14.9606L9.74156 14.959Z" fill="#4A4A4A"/>
</g>
<path d="M13.3541 11.8111L12.8682 11.3168L12.4165 10.8567H12.4158C12.383 10.891 11.5178 11.7913 11.517 11.7913C11.3494 11.9657 11.2733 12.2399 11.3639 12.4661C11.3761 12.4981 11.3921 12.5286 11.4111 12.5575C11.4286 12.5842 11.4485 12.6093 11.4698 12.6322C11.4705 12.6329 11.4713 12.6337 11.4728 12.6352C11.6092 12.783 11.8232 12.8622 12.022 12.8492C12.2223 12.8363 12.4607 12.7121 12.5186 12.5057C12.5475 12.4029 12.5224 12.2947 12.4775 12.2011C12.4775 12.2011 12.4516 12.1287 12.3784 12.07C12.3053 12.0106 12.1842 11.9665 11.9923 12.0251L11.9009 12.0563L11.6556 12.1394C11.6153 12.1515 11.5772 12.1256 11.5665 12.0914C11.5597 12.0731 11.5612 12.0533 11.5734 12.0342C11.5901 12.0068 11.693 11.9375 11.7432 11.9032C11.7432 11.9032 11.7958 11.84 11.8415 11.7715C11.9131 11.6633 12.0205 11.5811 12.1484 11.5529C12.2444 11.5323 12.367 11.5338 12.5133 11.5887C12.597 11.6199 12.6884 11.6679 12.7882 11.7395C12.8065 11.7524 12.8278 11.7616 12.8499 11.7631C12.8827 11.7654 12.9367 11.7753 12.987 11.8126C13.0418 11.853 13.0921 11.9253 13.1051 12.0571C13.1051 12.0571 13.0083 11.9459 12.853 11.955C12.8499 11.955 12.8476 11.955 12.8446 11.955C12.8446 11.955 12.8507 11.9581 12.8613 11.9649C12.8979 11.9908 12.984 12.0731 12.9642 12.2643C12.9642 12.2643 12.9527 12.46 12.7661 12.6421C12.7258 12.6824 12.722 12.7395 12.7456 12.7822C12.7623 12.8134 12.7928 12.8363 12.8331 12.8416H12.8354C13.0868 12.8736 13.3161 12.7197 13.4349 12.5057C13.5636 12.2734 13.5453 12.0061 13.3541 11.8118V11.8111ZM12.4188 11.0746L12.5841 11.2574L12.4226 11.4462L12.3761 11.3967L12.2505 11.2634L12.4158 11.0776L12.4188 11.0746Z" fill="#292929"/>
<path d="M12.8872 13.2034C12.8872 13.2278 12.8682 13.2476 12.8438 13.2476L12.2078 13.2544C12.1834 13.2544 12.1636 13.2354 12.1636 13.211C12.1636 13.1965 12.1713 13.1821 12.1834 13.1737C12.2048 13.16 12.2352 13.1661 12.2588 13.1577C12.2809 13.1501 12.3007 13.1379 12.3183 13.1227C12.3548 13.0914 12.3807 13.0488 12.4036 13.0077C12.4142 12.9886 12.4234 12.9696 12.434 12.9513C12.4683 12.8866 12.5003 12.8195 12.5269 12.751C12.5635 12.8607 12.6138 12.962 12.6747 13.0602C12.6983 13.0991 12.7334 13.131 12.776 13.147C12.7973 13.1554 12.8202 13.1592 12.8431 13.1608C12.8659 13.1623 12.8857 13.179 12.8857 13.2034H12.8872Z" fill="#292929"/>
<path d="M13.3061 11.7639L12.8674 11.3175L12.4158 10.8575L12.3685 10.8095C12.3685 10.8095 11.4698 11.7441 11.469 11.7441C11.2862 11.9345 11.2116 12.2437 11.3449 12.4806C11.3502 12.4905 11.3563 12.5004 11.3632 12.5103C11.3929 12.5552 11.4286 12.5964 11.4705 12.6322C11.4713 12.6329 11.4721 12.6337 11.4736 12.6352C11.6099 12.7517 11.7988 12.8134 11.9748 12.8013C12.1751 12.7883 12.4135 12.6642 12.4714 12.4577C12.5003 12.3549 12.4752 12.2468 12.4302 12.1531C12.4302 12.1531 12.4158 12.1135 12.38 12.0693C12.3251 12.0023 12.2185 11.9253 12.0319 11.9558C12.0052 11.9604 11.9763 11.9672 11.9458 11.9764L11.6092 12.0906C11.5947 12.0952 11.5802 12.0944 11.568 12.0906C11.5261 12.0777 11.4995 12.0282 11.5261 11.9863C11.5429 11.9596 11.6465 11.8895 11.696 11.8553C11.696 11.8553 11.7485 11.7921 11.7942 11.7235C11.8658 11.6153 11.974 11.5331 12.1012 11.5049C12.2124 11.4813 12.3586 11.4866 12.5369 11.5704C12.6008 11.5994 12.6686 11.639 12.741 11.6908C12.7593 11.7045 12.7806 11.7128 12.8027 11.7144C12.8469 11.7174 12.9284 11.7342 12.9878 11.8111C13.0213 11.8545 13.0487 11.9177 13.0571 12.0076C13.0571 12.0076 12.9573 11.8926 12.7974 11.9055C12.7974 11.9055 12.8248 11.9177 12.8537 11.9528C12.8568 11.9558 12.8591 11.9596 12.8621 11.9634C12.8971 12.0099 12.9299 12.0883 12.9169 12.2155C12.9169 12.2155 12.9055 12.4113 12.7189 12.5933C12.6595 12.6512 12.6793 12.7464 12.7463 12.7807C12.7577 12.7868 12.7707 12.7906 12.7852 12.7929H12.7875C13.0396 12.8249 13.2681 12.671 13.3869 12.457C13.5156 12.2247 13.4973 11.9573 13.3061 11.7631V11.7639ZM12.3746 11.3983L12.2025 11.2155L12.3708 11.0266L12.4165 11.0769L12.5369 11.2086L12.3769 11.3952L12.3754 11.3967L12.3746 11.3983Z" fill="url(#paint5_radial_0_631)"/>
<path d="M12.8385 13.1562C12.8385 13.1806 12.8194 13.2004 12.7951 13.2004L12.1591 13.2072C12.1347 13.2072 12.1149 13.1882 12.1149 13.1638C12.1149 13.1493 12.1225 13.1349 12.1347 13.1265C12.156 13.1128 12.1865 13.1189 12.2101 13.1105C12.2322 13.1029 12.252 13.0907 12.2695 13.0755C12.3061 13.0442 12.332 13.0016 12.3548 12.9604C12.3655 12.9414 12.3746 12.9224 12.3853 12.9041C12.4196 12.8393 12.4516 12.7723 12.4782 12.7038C12.5148 12.8134 12.565 12.9147 12.626 13.013C12.6496 13.0518 12.6846 13.0838 12.7273 13.0998C12.7486 13.1082 12.7714 13.112 12.7943 13.1135C12.8171 13.1151 12.837 13.1318 12.837 13.1562H12.8385Z" fill="url(#paint6_radial_0_631)"/>
<g opacity="0.69">
<path d="M13.3061 11.7639L12.8674 11.3175L12.4158 10.8575L12.3685 10.8095C12.3685 10.8095 11.4698 11.7441 11.469 11.7441C11.2862 11.9345 11.2116 12.2437 11.3449 12.4806C11.3502 12.4905 11.3563 12.5004 11.3632 12.5103C11.3929 12.5552 11.4286 12.5964 11.4705 12.6322C11.4713 12.6329 11.4721 12.6337 11.4736 12.6352C11.6099 12.7517 11.7988 12.8134 11.9748 12.8013C12.1751 12.7883 12.4135 12.6642 12.4714 12.4577C12.5003 12.3549 12.4752 12.2468 12.4302 12.1531C12.4302 12.1531 12.4158 12.1135 12.38 12.0693C12.3251 12.0023 12.2185 11.9253 12.0319 11.9558C12.0052 11.9604 11.9763 11.9672 11.9458 11.9764L11.6092 12.0906C11.5947 12.0952 11.5802 12.0944 11.568 12.0906C11.5261 12.0777 11.4995 12.0282 11.5261 11.9863C11.5429 11.9596 11.6465 11.8895 11.696 11.8553C11.696 11.8553 11.7485 11.7921 11.7942 11.7235C11.8658 11.6153 11.974 11.5331 12.1012 11.5049C12.2124 11.4813 12.3586 11.4866 12.5369 11.5704C12.6008 11.5994 12.6686 11.639 12.741 11.6908C12.7593 11.7045 12.7806 11.7128 12.8027 11.7144C12.8469 11.7174 12.9284 11.7342 12.9878 11.8111C13.0213 11.8545 13.0487 11.9177 13.0571 12.0076C13.0571 12.0076 12.9573 11.8926 12.7974 11.9055C12.7974 11.9055 12.8248 11.9177 12.8537 11.9528C12.8568 11.9558 12.8591 11.9596 12.8621 11.9634C12.8971 12.0099 12.9299 12.0883 12.9169 12.2155C12.9169 12.2155 12.9055 12.4113 12.7189 12.5933C12.6595 12.6512 12.6793 12.7464 12.7463 12.7807C12.7577 12.7868 12.7707 12.7906 12.7852 12.7929H12.7875C13.0396 12.8249 13.2681 12.671 13.3869 12.457C13.5156 12.2247 13.4973 11.9573 13.3061 11.7631V11.7639ZM12.3746 11.3983L12.2025 11.2155L12.3708 11.0266L12.4165 11.0769L12.5369 11.2086L12.3769 11.3952L12.3754 11.3967L12.3746 11.3983Z" fill="#4A4A4A"/>
<path d="M12.8385 13.1562C12.8385 13.1806 12.8194 13.2004 12.7951 13.2004L12.1591 13.2072C12.1347 13.2072 12.1149 13.1882 12.1149 13.1638C12.1149 13.1493 12.1225 13.1349 12.1347 13.1265C12.156 13.1128 12.1865 13.1189 12.2101 13.1105C12.2322 13.1029 12.252 13.0907 12.2695 13.0755C12.3061 13.0442 12.332 13.0016 12.3548 12.9604C12.3655 12.9414 12.3746 12.9224 12.3853 12.9041C12.4196 12.8393 12.4516 12.7723 12.4782 12.7038C12.5148 12.8134 12.565 12.9147 12.626 13.013C12.6496 13.0518 12.6846 13.0838 12.7273 13.0998C12.7486 13.1082 12.7714 13.112 12.7943 13.1135C12.8171 13.1151 12.837 13.1318 12.837 13.1562H12.8385Z" fill="#4A4A4A"/>
</g>
<path d="M20.1527 2.93848L20.0186 3.05502L19.7955 3.24848L19.6264 3.39548L11.1613 10.7318L10.9945 10.8765L7.54566 13.8653L7.38722 14.0032L3.04651 17.7658L2.83781 17.9471L2.61541 18.1398L2.51792 18.2243C1.67247 16.8975 1.086 15.3886 0.832367 13.7693L0.865876 13.7404L1.1195 13.521L1.36401 13.307L9.10401 6.59066L9.15353 6.54801L10.5146 5.36514H10.5161L10.8437 5.07952H10.8444L12.0699 4.01548L12.1278 3.96673L12.9672 3.23782L12.9702 3.23629L15.4433 1.08993L15.649 0.9117L15.8371 0.748703L16.0351 0.576569C17.5722 1.07927 18.9698 1.8912 20.1535 2.93925L20.1527 2.93848Z" fill="url(#paint7_linear_0_631)"/>
<path d="M24.0974 11.3602L24.089 11.3678L23.6129 11.7761L23.3875 11.9695L15.7503 18.5335L15.5705 18.6882L14.7853 19.3638L14.6459 19.4841L14.5926 19.529L14.3702 19.7195L13.7448 20.2572L13.5331 20.4392L10.9069 22.6968L10.641 22.9238L10.2907 23.2254L10.069 23.4166C9.01946 23.2048 8.02018 22.8529 7.09323 22.3807L7.26537 22.2329L7.53879 21.9984L7.76121 21.8064L10.2625 19.6562L10.4316 19.5108L11.2062 18.8458L11.3563 18.7156L11.945 18.2106L12.1865 18.0042L13.2002 17.1328L13.4287 16.9363L17.7649 13.2095L17.9119 13.0838H17.9134L19.7734 11.4836L19.9638 11.3191L22.9823 8.72561L23.1666 8.56795L23.5154 8.26709L23.5748 8.21606C23.8864 9.21308 24.0669 10.268 24.0981 11.3594L24.0974 11.3602Z" fill="url(#paint8_linear_0_631)"/>
<defs>
<linearGradient id="paint0_linear_0_631" x1="8.58381" y1="23.0129" x2="16.2088" y2="0.869054" gradientUnits="userSpaceOnUse">
<stop stop-color="#A7A7A7"/>
<stop offset="0.51" stop-color="#BABABA"/>
<stop offset="1" stop-color="#D2D2D2"/>
</linearGradient>
<linearGradient id="paint1_linear_0_631" x1="12.3883" y1="1.1326" x2="12.3883" y2="22.7966" gradientUnits="userSpaceOnUse">
<stop stop-color="#3B3B3B"/>
<stop offset="0.22" stop-color="#4F4F4F"/>
<stop offset="0.58" stop-color="#787878"/>
<stop offset="1" stop-color="#EAEAEA"/>
</linearGradient>
<linearGradient id="paint2_linear_0_631" x1="8.9616" y1="21.977" x2="15.8623" y2="1.9369" gradientUnits="userSpaceOnUse">
<stop stop-color="#A7A7A7"/>
<stop offset="0.51" stop-color="#BABABA"/>
<stop offset="1" stop-color="#D2D2D2"/>
</linearGradient>
<radialGradient id="paint3_radial_0_631" cx="0" cy="0" r="1" gradientUnits="userSpaceOnUse" gradientTransform="translate(10.2286 11.3724) rotate(19.77) scale(6.2205)">
<stop stop-color="white"/>
<stop offset="0.6" stop-color="#DDDDDD"/>
<stop offset="1" stop-color="#CCCCCC"/>
</radialGradient>
<radialGradient id="paint4_radial_0_631" cx="0" cy="0" r="1" gradientUnits="userSpaceOnUse" gradientTransform="translate(14.8501 12.2144) rotate(19.77) scale(6.17404 6.17404)">
<stop stop-color="white"/>
<stop offset="0.6" stop-color="#DDDDDD"/>
<stop offset="1" stop-color="#CCCCCC"/>
</radialGradient>
<radialGradient id="paint5_radial_0_631" cx="0" cy="0" r="1" gradientUnits="userSpaceOnUse" gradientTransform="translate(12.3731 11.8058) scale(1.04729 1.04729)">
<stop stop-color="white"/>
<stop offset="0.6" stop-color="#DDDDDD"/>
<stop offset="1" stop-color="#CCCCCC"/>
</radialGradient>
<radialGradient id="paint6_radial_0_631" cx="0" cy="0" r="1" gradientUnits="userSpaceOnUse" gradientTransform="translate(12.4775 12.9551) scale(0.31152)">
<stop stop-color="white"/>
<stop offset="0.6" stop-color="#DDDDDD"/>
<stop offset="1" stop-color="#CCCCCC"/>
</radialGradient>
<linearGradient id="paint7_linear_0_631" x1="-3.06278" y1="20.8795" x2="17.8479" y2="1.55836" gradientUnits="userSpaceOnUse">
<stop stop-color="white" stop-opacity="0"/>
<stop offset="1" stop-color="white" stop-opacity="0.3"/>
</linearGradient>
<linearGradient id="paint8_linear_0_631" x1="3.91405" y1="27.6636" x2="24.7897" y2="8.37524" gradientUnits="userSpaceOnUse">
<stop stop-color="white" stop-opacity="0"/>
<stop offset="1" stop-color="white" stop-opacity="0.3"/>
</linearGradient>
</defs>
</svg>
