<svg width="24" height="24" viewBox="0 0 24 24" fill="none" xmlns="http://www.w3.org/2000/svg">
<path d="M23.517 11.7068C23.517 11.7349 23.517 11.7624 23.5162 11.7905V11.8583C23.4347 18.254 18.2249 23.4143 11.8102 23.4143C11.0912 23.4143 10.3882 23.3488 9.70498 23.2254C8.63865 23.0327 7.62336 22.6937 6.67966 22.2329C4.78617 21.3083 3.17981 19.8878 2.02818 18.1405C1.16674 16.8335 0.559695 15.3437 0.279403 13.7412C0.17277 13.1288 0.111834 12.4996 0.104217 11.8583V11.7905C0.103455 11.7624 0.103455 11.7349 0.103455 11.7068C0.103455 5.24176 5.34369 0 11.8094 0C13.0799 0 14.3024 0.202603 15.4487 0.576579C16.9857 1.07928 18.3834 1.89121 19.567 2.93926C21.1459 4.33691 22.3448 6.15423 22.9884 8.21682C23.2999 9.21383 23.4804 10.2687 23.5116 11.3602C23.5155 11.4752 23.517 11.591 23.517 11.7068Z" fill="#787878"/>
<path d="M23.5162 12.2932C23.5162 18.759 18.2752 24 11.8094 24C5.34369 24 0.103455 18.759 0.103455 12.2932C0.103455 5.82749 5.34445 0.586487 11.8094 0.586487C18.2744 0.586487 23.5162 5.82825 23.5162 12.2932Z" fill="#474747"/>
<path d="M23.517 11.9413C23.517 18.4063 18.276 23.6473 11.8102 23.6473C11.0135 23.6473 10.2351 23.5674 9.48333 23.4158C8.43375 23.2041 7.43447 22.8522 6.50752 22.3799C4.63612 21.4271 3.05338 19.986 1.93145 18.2243C1.086 16.8975 0.499528 15.3886 0.245894 13.7693C0.151448 13.1737 0.103455 12.5629 0.103455 11.9413C0.103455 11.9132 0.103455 11.8857 0.104217 11.8576V11.7898C0.185715 5.39333 5.39472 0.233826 11.8094 0.233826C13.0075 0.233826 14.163 0.413578 15.2507 0.747948C16.8083 1.22627 18.2265 2.02069 19.4322 3.05579C21.0294 4.42754 22.2534 6.22278 22.9282 8.26709C23.2527 9.24963 23.4507 10.2893 23.5033 11.3671C23.5094 11.5072 23.5147 11.6481 23.5162 11.7898V11.8576C23.517 11.8857 23.517 11.9132 23.517 11.9413Z" fill="url(#paint0_linear_0_634)"/>
<path d="M22.6335 11.965C22.6335 17.9463 17.784 22.7966 11.8019 22.7966C5.81975 22.7966 0.970245 17.9471 0.970245 11.965C0.970245 5.98287 5.81975 1.1326 11.8019 1.1326C17.784 1.1326 22.6335 5.98211 22.6335 11.965Z" fill="url(#paint1_linear_0_634)"/>
<path d="M22.4202 11.9566C22.4202 17.8092 17.6765 22.5513 11.8254 22.5513C5.97434 22.5513 1.23071 17.8084 1.23071 11.9566C1.23071 6.10472 5.97434 1.36261 11.8254 1.36261C17.6765 1.36261 22.4202 6.10549 22.4202 11.9566Z" fill="url(#paint2_linear_0_634)"/>
<path d="M12.223 2.24387C12.223 2.41524 12.0844 2.55386 11.913 2.55386C11.7417 2.55386 11.603 2.41524 11.603 2.24387C11.603 2.07249 11.7417 1.93387 11.913 1.93387C12.0844 1.93387 12.223 2.07249 12.223 2.24387Z" fill="#474747"/>
<path d="M12.2543 2.16464C12.2543 2.33601 12.1156 2.47464 11.9442 2.47464C11.7729 2.47464 11.6342 2.33601 11.6342 2.16464C11.6342 1.99327 11.7729 1.85464 11.9442 1.85464C12.1156 1.85464 12.2543 1.99327 12.2543 2.16464Z" fill="#E6E7E8"/>
<path d="M12.239 2.20425C12.239 2.37563 12.1004 2.51425 11.929 2.51425C11.7576 2.51425 11.619 2.37563 11.619 2.20425C11.619 2.03288 11.7576 1.89426 11.929 1.89426C12.1004 1.89426 12.239 2.03288 12.239 2.20425Z" fill="#898989"/>
<path d="M10.6913 2.29946C10.718 2.46855 10.603 2.62774 10.4339 2.65439C10.2648 2.68105 10.1056 2.56604 10.0789 2.39695C10.0523 2.22786 10.1673 2.06867 10.3364 2.04202C10.5055 2.01536 10.6647 2.13037 10.6913 2.29946Z" fill="#474747"/>
<path d="M10.7104 2.21645C10.737 2.38554 10.622 2.54473 10.4529 2.57139C10.2838 2.59804 10.1246 2.48303 10.098 2.31394C10.0713 2.14485 10.1863 1.98567 10.3554 1.95901C10.5245 1.93235 10.6837 2.04736 10.7104 2.21645Z" fill="#E6E7E8"/>
<path d="M10.7012 2.25759C10.7279 2.42668 10.6129 2.58586 10.4438 2.61252C10.2747 2.63918 10.1155 2.52417 10.0889 2.35508C10.0622 2.18599 10.1772 2.0268 10.3463 2.00015C10.5154 1.97349 10.6746 2.0885 10.7012 2.25759Z" fill="#898989"/>
<path d="M9.18779 2.59421C9.24111 2.75721 9.15123 2.93239 8.98899 2.98494C8.826 3.03826 8.65082 2.94838 8.59827 2.78615C8.54495 2.62315 8.63482 2.44797 8.79705 2.39542C8.96005 2.3421 9.13448 2.43198 9.18779 2.59421Z" fill="#474747"/>
<path d="M9.1939 2.50814C9.24645 2.67113 9.15733 2.84631 8.9951 2.89887C8.8321 2.95142 8.65693 2.86231 8.60437 2.70007C8.55105 2.53708 8.64092 2.3619 8.80315 2.30934C8.96615 2.25679 9.14134 2.3459 9.1939 2.50814Z" fill="#E6E7E8"/>
<path d="M9.19084 2.55156C9.24416 2.71456 9.15427 2.88974 8.99204 2.9423C8.82904 2.99485 8.65463 2.90574 8.60131 2.7435C8.54876 2.58051 8.6371 2.40609 8.8001 2.35277C8.96309 2.30021 9.13829 2.38933 9.19084 2.55156Z" fill="#898989"/>
<path d="M7.74901 3.11976C7.8267 3.27209 7.76576 3.45946 7.61343 3.53715C7.4611 3.61484 7.27373 3.55391 7.19681 3.40158C7.11912 3.24925 7.18003 3.06264 7.33236 2.98419C7.4847 2.9065 7.67206 2.96743 7.74975 3.11976H7.74901Z" fill="#474747"/>
<path d="M7.74141 3.03446C7.8191 3.1868 7.75816 3.37417 7.60583 3.45186C7.4535 3.52955 7.26613 3.46861 7.18844 3.31628C7.11075 3.16395 7.17168 2.97734 7.32402 2.89889C7.47635 2.8212 7.66372 2.88213 7.74141 3.03446Z" fill="#E6E7E8"/>
<path d="M7.74522 3.07713C7.82291 3.22946 7.76198 3.41683 7.60964 3.49452C7.45731 3.57221 7.26994 3.51128 7.19225 3.35894C7.11456 3.20661 7.1755 3.02 7.32783 2.94155C7.48016 2.86386 7.66753 2.9248 7.74522 3.07713Z" fill="#898989"/>
<path d="M6.40925 3.86466C6.50979 4.00328 6.47931 4.1975 6.34069 4.29804C6.20207 4.39858 6.00785 4.36812 5.90731 4.22949C5.80677 4.09087 5.83725 3.89741 5.97587 3.79611C6.11449 3.69557 6.30795 3.72603 6.40925 3.86466Z" fill="#474747"/>
<path d="M6.38868 3.78165C6.48922 3.92027 6.45876 4.11373 6.32014 4.21503C6.18152 4.31557 5.98728 4.28511 5.88674 4.14649C5.7862 4.00786 5.81668 3.81364 5.9553 3.7131C6.09392 3.61256 6.28814 3.64303 6.38868 3.78165Z" fill="#E6E7E8"/>
<path d="M6.39935 3.82279C6.49989 3.96141 6.46943 4.15563 6.33081 4.25617C6.19219 4.35671 5.99797 4.32625 5.89743 4.18762C5.79689 4.049 5.82735 3.85554 5.96597 3.75424C6.10459 3.6537 6.29805 3.68416 6.39935 3.82279Z" fill="#898989"/>
<path d="M5.20356 4.80915C5.32466 4.93026 5.32466 5.12676 5.20356 5.24787C5.08245 5.36897 4.88594 5.36897 4.76484 5.24787C4.64374 5.12676 4.64374 4.93026 4.76484 4.80915C4.88594 4.68805 5.08245 4.68805 5.20356 4.80915Z" fill="#474747"/>
<path d="M5.17005 4.73069C5.29115 4.85179 5.29115 5.0483 5.17005 5.16941C5.04895 5.29051 4.85244 5.29051 4.73133 5.16941C4.61023 5.0483 4.61023 4.85179 4.73133 4.73069C4.85244 4.60959 5.04895 4.60959 5.17005 4.73069Z" fill="#E6E7E8"/>
<path d="M5.1868 4.7703C5.30791 4.89141 5.30791 5.08791 5.1868 5.20902C5.0657 5.33012 4.86919 5.33012 4.74809 5.20902C4.62698 5.08791 4.62698 4.89141 4.74809 4.7703C4.86919 4.6492 5.0657 4.6492 5.1868 4.7703Z" fill="#898989"/>
<path d="M4.16006 5.93106C4.29869 6.0316 4.32914 6.22582 4.22861 6.36444C4.12807 6.50306 3.93385 6.53353 3.79522 6.43299C3.6566 6.33245 3.62614 6.13823 3.72668 5.9996C3.82722 5.86098 4.02144 5.83052 4.16006 5.93106Z" fill="#474747"/>
<path d="M4.11434 5.8587C4.25296 5.95924 4.28344 6.15346 4.1829 6.29209C4.08236 6.43071 3.88814 6.46117 3.74952 6.36063C3.6109 6.26009 3.58042 6.06587 3.68096 5.92725C3.7815 5.78862 3.97572 5.75816 4.11434 5.8587Z" fill="#E6E7E8"/>
<path d="M4.13721 5.89526C4.27583 5.9958 4.30631 6.19002 4.20577 6.32864C4.10523 6.46727 3.91099 6.49774 3.77237 6.3972C3.63374 6.29666 3.60328 6.10243 3.70382 5.96381C3.80436 5.82519 3.99858 5.79472 4.13721 5.89526Z" fill="#898989"/>
<path d="M3.30474 7.20226C3.45708 7.27995 3.51801 7.46656 3.44032 7.61966C3.36263 7.77199 3.17603 7.83292 3.02293 7.75523C2.8706 7.67754 2.80966 7.49094 2.88735 7.33784C2.96504 7.18551 3.15165 7.12457 3.30474 7.20226Z" fill="#474747"/>
<path d="M3.24838 7.1383C3.40071 7.21599 3.46164 7.4026 3.38396 7.55569C3.30627 7.70802 3.11966 7.76896 2.96657 7.69127C2.81423 7.61358 2.7533 7.42697 2.83099 7.27387C2.90868 7.12154 3.09528 7.06061 3.24838 7.1383Z" fill="#E6E7E8"/>
<path d="M3.27654 7.17028C3.42888 7.24797 3.48981 7.43458 3.41212 7.58768C3.33443 7.74001 3.14783 7.80094 2.99473 7.72325C2.8424 7.64556 2.78147 7.45895 2.85915 7.30586C2.93684 7.15353 3.12345 7.09259 3.27654 7.17028Z" fill="#898989"/>
<path d="M2.65882 8.59232C2.82181 8.64488 2.91092 8.82006 2.8576 8.98306C2.80429 9.14605 2.62987 9.23517 2.46688 9.18186C2.30388 9.1293 2.21476 8.95412 2.26808 8.79112C2.32063 8.62813 2.49582 8.53901 2.65882 8.59232Z" fill="#474747"/>
<path d="M2.59331 8.53749C2.75631 8.59004 2.84543 8.76522 2.79211 8.92822C2.7388 9.09121 2.56437 9.18033 2.40137 9.12701C2.23837 9.07369 2.14927 8.89927 2.20259 8.73628C2.2559 8.57328 2.43031 8.48417 2.59331 8.53749Z" fill="#E6E7E8"/>
<path d="M2.62607 8.56489C2.78907 8.61744 2.87817 8.79263 2.82486 8.95562C2.77154 9.11862 2.59713 9.20773 2.43413 9.15442C2.27114 9.1011 2.18201 8.92668 2.23457 8.76368C2.28712 8.60069 2.46231 8.51157 2.62531 8.56489H2.62607Z" fill="#898989"/>
<path d="M2.2384 10.0654C2.40749 10.092 2.52326 10.2512 2.49584 10.4203C2.46918 10.5894 2.31 10.7044 2.14091 10.6778C1.97182 10.6511 1.85606 10.4919 1.88348 10.3228C1.91013 10.1537 2.06932 10.038 2.2384 10.0654Z" fill="#474747"/>
<path d="M2.16527 10.022C2.33436 10.0486 2.45013 10.2078 2.42271 10.3769C2.39605 10.546 2.23687 10.6618 2.06778 10.6351C1.89869 10.6084 1.78291 10.4493 1.81033 10.2802C1.83698 10.1111 1.99618 9.99531 2.16527 10.0227V10.022Z" fill="#E6E7E8"/>
<path d="M2.20183 10.0433C2.37091 10.07 2.48668 10.2291 2.45926 10.3982C2.4326 10.5673 2.27342 10.6831 2.10433 10.6557C1.93524 10.629 1.81948 10.4698 1.84613 10.3007C1.87279 10.1317 2.03197 10.0159 2.20106 10.0433H2.20183Z" fill="#898989"/>
<path d="M2.05408 11.5864C2.22546 11.5864 2.36406 11.725 2.36406 11.8964C2.36406 12.0678 2.22546 12.2064 2.05408 12.2064C1.88271 12.2064 1.74408 12.0678 1.74408 11.8964C1.74408 11.725 1.88271 11.5864 2.05408 11.5864Z" fill="#474747"/>
<path d="M1.9741 11.5552C2.14547 11.5552 2.2841 11.6938 2.2841 11.8652C2.2841 12.0365 2.14547 12.1752 1.9741 12.1752C1.80272 12.1752 1.66409 12.0365 1.66409 11.8652C1.66409 11.6938 1.80272 11.5552 1.9741 11.5552Z" fill="#E6E7E8"/>
<path d="M2.01371 11.5704C2.18508 11.5704 2.32369 11.709 2.32369 11.8804C2.32369 12.0518 2.18508 12.1904 2.01371 12.1904C1.84233 12.1904 1.7037 12.0518 1.7037 11.8804C1.7037 11.709 1.84233 11.5704 2.01371 11.5704Z" fill="#898989"/>
<path d="M2.10892 13.1174C2.278 13.0907 2.43719 13.2057 2.46384 13.3756C2.4905 13.5447 2.3755 13.7038 2.20641 13.7305C2.03732 13.7572 1.87812 13.6421 1.85146 13.4731C1.82481 13.304 1.93983 13.1448 2.10892 13.1181V13.1174Z" fill="#474747"/>
<path d="M2.02589 13.0991C2.19498 13.0724 2.35416 13.1874 2.38082 13.3565C2.40748 13.5256 2.29247 13.6848 2.12338 13.7115C1.9543 13.7381 1.79511 13.6231 1.76846 13.454C1.7418 13.2849 1.8568 13.1257 2.02589 13.0991Z" fill="#E6E7E8"/>
<path d="M2.06778 13.1082C2.23687 13.0816 2.39605 13.1966 2.42271 13.3657C2.44936 13.5347 2.33436 13.6939 2.16527 13.7206C1.99618 13.7472 1.83698 13.6322 1.81033 13.4631C1.78367 13.2941 1.89869 13.1349 2.06778 13.1082Z" fill="#898989"/>
<path d="M2.40365 14.6217C2.56664 14.5691 2.74108 14.6582 2.79439 14.8205C2.84695 14.9834 2.75782 15.1579 2.59559 15.2112C2.43259 15.2637 2.25742 15.1746 2.20487 15.0124C2.15155 14.8494 2.24141 14.675 2.40365 14.6217Z" fill="#474747"/>
<path d="M2.31835 14.6155C2.48135 14.5622 2.65652 14.6513 2.70908 14.8143C2.76163 14.9773 2.67253 15.1525 2.50953 15.2051C2.34654 15.2584 2.17211 15.1693 2.11879 15.0063C2.06624 14.8433 2.15536 14.6681 2.31759 14.6155H2.31835Z" fill="#E6E7E8"/>
<path d="M2.361 14.6186C2.524 14.5661 2.69919 14.6544 2.75174 14.8174C2.80506 14.9804 2.71594 15.1556 2.55294 15.2081C2.38995 15.2607 2.21477 15.1716 2.16222 15.0093C2.10966 14.8463 2.19877 14.6712 2.361 14.6186Z" fill="#898989"/>
<path d="M2.92924 16.0604C3.08158 15.9827 3.26818 16.0437 3.34663 16.196C3.42432 16.3483 3.36339 16.5349 3.21105 16.6134C3.05872 16.6911 2.87212 16.6301 2.79443 16.4778C2.71674 16.3255 2.77767 16.1389 2.93001 16.0604H2.92924Z" fill="#474747"/>
<path d="M2.84392 16.0688C2.99625 15.9911 3.18285 16.0513 3.2613 16.2044C3.33899 16.3567 3.27806 16.5441 3.12573 16.6218C2.97339 16.6995 2.78679 16.6385 2.70834 16.4862C2.63065 16.3339 2.69158 16.1465 2.84392 16.0688Z" fill="#E6E7E8"/>
<path d="M2.88658 16.0642C3.03891 15.9865 3.22628 16.0467 3.30397 16.1998C3.38166 16.3521 3.32148 16.5387 3.16839 16.6164C3.01606 16.6941 2.82869 16.6332 2.751 16.4808C2.67331 16.3285 2.73425 16.1411 2.88658 16.0642Z" fill="#898989"/>
<path d="M3.67414 17.3994C3.81276 17.2989 4.00622 17.3293 4.10752 17.468C4.20806 17.6066 4.17759 17.8 4.03896 17.9013C3.90034 18.0019 3.70612 17.9714 3.60558 17.8328C3.50504 17.6942 3.53552 17.5007 3.67414 17.3994Z" fill="#474747"/>
<path d="M3.5911 17.4207C3.72973 17.3202 3.92395 17.3507 4.02449 17.4893C4.12502 17.6279 4.09457 17.8221 3.95594 17.9227C3.81732 18.0232 3.62384 17.9927 3.52254 17.8541C3.422 17.7155 3.45248 17.5213 3.5911 17.4207Z" fill="#E6E7E8"/>
<path d="M3.63224 17.4101C3.77086 17.3095 3.96508 17.34 4.06562 17.4786C4.16616 17.6172 4.1357 17.8107 3.99708 17.9112C3.85846 18.0118 3.66422 17.9813 3.56368 17.8427C3.46314 17.7041 3.49362 17.5106 3.63224 17.4093V17.4101Z" fill="#898989"/>
<path d="M4.6186 18.6059C4.7397 18.4848 4.93621 18.4848 5.05732 18.6059C5.17842 18.727 5.17842 18.9235 5.05732 19.0446C4.93621 19.1657 4.7397 19.1657 4.6186 19.0446C4.49749 18.9235 4.49749 18.727 4.6186 18.6059Z" fill="#474747"/>
<path d="M4.54014 18.6402C4.66124 18.5191 4.85775 18.5191 4.97886 18.6402C5.09996 18.7613 5.09996 18.9578 4.97886 19.0789C4.85775 19.2 4.66124 19.2 4.54014 19.0789C4.41903 18.9578 4.41903 18.7613 4.54014 18.6402Z" fill="#E6E7E8"/>
<path d="M4.57975 18.6227C4.70085 18.5016 4.89736 18.5016 5.01847 18.6227C5.13957 18.7438 5.13957 18.9395 5.01847 19.0606C4.89736 19.1817 4.70085 19.1817 4.57975 19.0606C4.45865 18.9395 4.45865 18.743 4.57975 18.6219V18.6227Z" fill="#898989"/>
<path d="M5.74054 19.6494C5.84108 19.5108 6.0353 19.4803 6.17392 19.5808C6.31254 19.6814 6.34302 19.8756 6.24248 20.0142C6.14194 20.1528 5.9477 20.1833 5.80908 20.0828C5.67046 19.9822 5.64 19.788 5.74054 19.6494Z" fill="#474747"/>
<path d="M5.66818 19.6951C5.76872 19.5565 5.96294 19.526 6.10156 19.6266C6.24018 19.7271 6.27064 19.9213 6.1701 20.0599C6.06956 20.1986 5.87534 20.229 5.73672 20.1285C5.5981 20.0279 5.56764 19.8337 5.66818 19.6951Z" fill="#E6E7E8"/>
<path d="M5.70474 19.6722C5.80528 19.5336 5.9995 19.5032 6.13812 19.6037C6.27674 19.7042 6.30722 19.8985 6.20668 20.0363C6.10614 20.1749 5.9119 20.2054 5.77328 20.1049C5.63466 20.0043 5.6042 19.8101 5.70474 19.6715V19.6722Z" fill="#898989"/>
<path d="M7.01251 20.5047C7.0902 20.3524 7.2768 20.2914 7.4299 20.3691C7.58223 20.4468 7.64316 20.6334 7.56547 20.7865C7.48778 20.9389 7.30118 20.9998 7.14808 20.9221C6.99575 20.8444 6.93482 20.6578 7.01251 20.5055V20.5047Z" fill="#474747"/>
<path d="M6.94775 20.5611C7.02544 20.4087 7.21205 20.3478 7.36514 20.4255C7.51747 20.5032 7.57841 20.6898 7.50072 20.8429C7.42303 20.9952 7.2364 21.0562 7.08331 20.9785C6.93098 20.9008 6.87006 20.7142 6.94775 20.5611Z" fill="#E6E7E8"/>
<path d="M6.97976 20.5329C7.05745 20.3805 7.24406 20.3196 7.39715 20.3973C7.54948 20.475 7.61042 20.6616 7.53273 20.8147C7.45504 20.967 7.26843 21.028 7.11534 20.9503C6.96301 20.8726 6.90207 20.686 6.97976 20.5336V20.5329Z" fill="#898989"/>
<path d="M8.40177 21.1506C8.45509 20.9876 8.62952 20.8985 8.79252 20.9518C8.95551 21.0044 9.04462 21.1796 8.9913 21.3426C8.93874 21.5056 8.76357 21.5947 8.60058 21.5413C8.43758 21.4888 8.34846 21.3136 8.40177 21.1506Z" fill="#474747"/>
<path d="M8.34693 21.2161C8.39949 21.0531 8.57468 20.964 8.73768 21.0173C8.90067 21.0706 8.98977 21.245 8.93646 21.408C8.88314 21.571 8.70873 21.6602 8.54573 21.6068C8.38274 21.5535 8.29362 21.3783 8.34693 21.2161Z" fill="#E6E7E8"/>
<path d="M8.37437 21.1834C8.42692 21.0204 8.6021 20.9313 8.76509 20.9846C8.92809 21.0379 9.01721 21.2123 8.9639 21.3753C8.91058 21.5383 8.73615 21.6274 8.57315 21.5741C8.41016 21.5215 8.32105 21.3464 8.37437 21.1834Z" fill="#898989"/>
<path d="M9.87484 21.571C9.9015 21.4019 10.0607 21.2869 10.2298 21.3136C10.3989 21.3403 10.5146 21.4994 10.4872 21.6685C10.4606 21.8376 10.3014 21.9526 10.1323 21.926C9.96318 21.8993 9.84742 21.7401 9.87484 21.571Z" fill="#474747"/>
<path d="M9.83141 21.6442C9.85807 21.4751 10.0173 21.3593 10.1864 21.386C10.3554 21.4126 10.4712 21.5718 10.4438 21.7409C10.4171 21.91 10.258 22.0258 10.0889 21.9983C9.91978 21.9717 9.80399 21.8125 9.83141 21.6434V21.6442Z" fill="#E6E7E8"/>
<path d="M9.85351 21.6076C9.88017 21.4385 10.0393 21.3227 10.2084 21.3502C10.3775 21.3768 10.4925 21.536 10.4659 21.7051C10.4392 21.8742 10.28 21.99 10.1109 21.9625C9.94185 21.9359 9.82685 21.7767 9.85351 21.6076Z" fill="#898989"/>
<path d="M11.3958 21.7554C11.3958 21.584 11.5352 21.4454 11.7058 21.4454C11.8772 21.4454 12.0158 21.584 12.0158 21.7554C12.0158 21.9267 11.8772 22.0654 11.7058 22.0654C11.5345 22.0654 11.3958 21.9267 11.3958 21.7554Z" fill="#474747"/>
<path d="M11.3646 21.8354C11.3646 21.664 11.5032 21.5254 11.6746 21.5254C11.846 21.5254 11.9846 21.664 11.9846 21.8354C11.9846 22.0067 11.8452 22.1453 11.6746 22.1453C11.5032 22.1453 11.3646 22.006 11.3646 21.8354Z" fill="#E6E7E8"/>
<path d="M11.3806 21.795C11.3806 21.6236 11.5192 21.485 11.6906 21.485C11.862 21.485 12.0006 21.6236 12.0006 21.795C12.0006 21.9664 11.862 22.105 11.6906 22.105C11.5192 22.105 11.3806 21.9664 11.3806 21.795Z" fill="#898989"/>
<path d="M12.9276 21.6998C12.9009 21.5307 13.0167 21.3723 13.1858 21.3448C13.3549 21.3182 13.5141 21.4332 13.5407 21.603C13.5674 21.7721 13.4524 21.9313 13.2833 21.958C13.1142 21.9846 12.955 21.8696 12.9283 21.7005L12.9276 21.6998Z" fill="#474747"/>
<path d="M12.9085 21.7835C12.8819 21.6145 12.9969 21.4553 13.166 21.4286C13.3351 21.402 13.4942 21.517 13.5209 21.6868C13.5476 21.8559 13.4318 22.0151 13.2635 22.0417C13.0944 22.0684 12.9352 21.9526 12.9085 21.7843V21.7835Z" fill="#E6E7E8"/>
<path d="M12.9177 21.7417C12.891 21.5726 13.006 21.4134 13.1751 21.3867C13.3442 21.3601 13.5034 21.4751 13.53 21.6442C13.5567 21.8133 13.4417 21.9725 13.2726 21.9991C13.1035 22.0258 12.9443 21.9108 12.9177 21.7409V21.7417Z" fill="#898989"/>
<path d="M14.4311 21.4058C14.3785 21.2428 14.4677 21.0683 14.6306 21.015C14.7936 20.9625 14.9688 21.0516 15.0214 21.2138C15.0747 21.3768 14.9856 21.5512 14.8218 21.6046C14.6588 21.6571 14.4837 21.568 14.4311 21.4058Z" fill="#474747"/>
<path d="M14.4258 21.4918C14.3724 21.3288 14.4623 21.1536 14.6245 21.1011C14.7875 21.0478 14.9627 21.1369 15.0153 21.2999C15.0678 21.4629 14.9787 21.6381 14.8157 21.6906C14.6527 21.7439 14.4775 21.6541 14.425 21.4918H14.4258Z" fill="#E6E7E8"/>
<path d="M14.428 21.4484C14.3755 21.2854 14.4638 21.1102 14.6268 21.0577C14.7898 21.0051 14.9642 21.0935 15.0176 21.2565C15.0701 21.4195 14.981 21.5946 14.8188 21.6472C14.6558 21.7005 14.4814 21.6106 14.428 21.4484Z" fill="#898989"/>
<path d="M15.8699 20.8802C15.7922 20.7279 15.8531 20.5405 16.0054 20.4628C16.1578 20.3851 16.3451 20.4461 16.4228 20.5984C16.5005 20.7515 16.4396 20.9381 16.2873 21.0158C16.1349 21.0935 15.9483 21.0325 15.8699 20.8802Z" fill="#474747"/>
<path d="M15.8783 20.9655C15.8006 20.8132 15.8607 20.6258 16.0138 20.5481C16.1661 20.4704 16.3535 20.5306 16.4312 20.6837C16.5089 20.836 16.448 21.0227 16.2956 21.1011C16.1433 21.1788 15.9559 21.1179 15.8783 20.9655Z" fill="#E6E7E8"/>
<path d="M15.8744 20.9229C15.7968 20.7705 15.8577 20.5832 16.01 20.5062C16.1624 20.4285 16.349 20.4887 16.4267 20.6418C16.5043 20.7941 16.4434 20.9815 16.2911 21.0592C16.1387 21.1369 15.9521 21.076 15.8737 20.9236L15.8744 20.9229Z" fill="#898989"/>
<path d="M17.2096 20.1353C17.1091 19.9967 17.1403 19.8025 17.2782 19.7019C17.4168 19.6014 17.6103 19.6319 17.7116 19.7705C17.8121 19.9091 17.7817 20.1026 17.643 20.2039C17.5044 20.3044 17.311 20.2739 17.2096 20.1353Z" fill="#474747"/>
<path d="M17.2302 20.2183C17.1297 20.0797 17.1601 19.8855 17.2988 19.7849C17.4374 19.6844 17.6316 19.7149 17.7321 19.8535C17.8327 19.9921 17.8022 20.1863 17.6636 20.2869C17.525 20.3874 17.3308 20.3562 17.2302 20.2183Z" fill="#E6E7E8"/>
<path d="M17.2203 20.1765C17.1198 20.0378 17.1502 19.8444 17.2889 19.7431C17.4275 19.6425 17.6209 19.673 17.7215 19.8116C17.822 19.9502 17.7915 20.1445 17.6529 20.245C17.5143 20.3455 17.3201 20.3151 17.2195 20.1765H17.2203Z" fill="#898989"/>
<path d="M18.4154 19.1901C18.2942 19.069 18.2942 18.8725 18.4154 18.7514C18.5365 18.6303 18.733 18.6303 18.8541 18.7514C18.9752 18.8725 18.9752 19.069 18.8541 19.1901C18.733 19.3112 18.5365 19.3112 18.4154 19.1901Z" fill="#474747"/>
<path d="M18.4497 19.2693C18.3285 19.1482 18.3285 18.9517 18.4497 18.8306C18.5708 18.7095 18.7673 18.7095 18.8884 18.8306C19.0095 18.9517 19.0095 19.1482 18.8884 19.2693C18.7673 19.3904 18.5708 19.3904 18.4497 19.2693Z" fill="#E6E7E8"/>
<path d="M18.4329 19.2297C18.3118 19.1086 18.3118 18.9121 18.4329 18.791C18.554 18.6699 18.7505 18.6699 18.8716 18.791C18.9927 18.9121 18.9927 19.1086 18.8716 19.2297C18.7505 19.3508 18.554 19.3508 18.4329 19.2297Z" fill="#898989"/>
<path d="M19.4588 18.0682C19.3202 17.9676 19.2897 17.7734 19.3903 17.6348C19.4908 17.4961 19.685 17.4657 19.8237 17.5662C19.9623 17.6668 19.9928 17.861 19.8922 17.9996C19.7917 18.1382 19.5975 18.1687 19.4588 18.0682Z" fill="#474747"/>
<path d="M19.5053 18.1413C19.3667 18.0407 19.3362 17.8465 19.4368 17.7079C19.5373 17.5693 19.7315 17.5388 19.8701 17.6393C20.0088 17.7399 20.0392 17.9341 19.9387 18.0727C19.8381 18.2113 19.6439 18.2418 19.5053 18.1413Z" fill="#E6E7E8"/>
<path d="M19.4817 18.1047C19.3431 18.0042 19.3126 17.8099 19.4131 17.6713C19.5137 17.5327 19.7071 17.5022 19.8458 17.6028C19.9844 17.7033 20.0149 17.8975 19.9143 18.0362C19.8138 18.1748 19.6195 18.2053 19.4809 18.1047H19.4817Z" fill="#898989"/>
<path d="M20.3142 16.797C20.1619 16.7193 20.1009 16.5327 20.1786 16.3803C20.2563 16.228 20.4429 16.1671 20.596 16.2447C20.7483 16.3224 20.8093 16.509 20.7316 16.6621C20.6539 16.8145 20.4673 16.8754 20.315 16.7977L20.3142 16.797Z" fill="#474747"/>
<path d="M20.3705 16.8617C20.2175 16.784 20.1573 16.5974 20.235 16.4443C20.3127 16.292 20.4993 16.2311 20.6524 16.3087C20.8047 16.3864 20.8656 16.573 20.7879 16.7261C20.7102 16.8785 20.5236 16.9394 20.3705 16.8617Z" fill="#E6E7E8"/>
<path d="M20.3424 16.8297C20.19 16.752 20.1291 16.5654 20.2068 16.4123C20.2845 16.26 20.4711 16.199 20.6234 16.2767C20.7757 16.3544 20.8367 16.5418 20.759 16.6941C20.6813 16.8465 20.4947 16.9074 20.3416 16.8297H20.3424Z" fill="#898989"/>
<path d="M20.9601 15.4077C20.7971 15.3551 20.708 15.1799 20.7613 15.0169C20.8146 14.854 20.989 14.7648 21.152 14.8182C21.315 14.8707 21.4041 15.0459 21.3508 15.2089C21.2982 15.3719 21.1231 15.461 20.9601 15.4077Z" fill="#474747"/>
<path d="M21.0263 15.4625C20.8633 15.4092 20.7742 15.2348 20.8276 15.0718C20.8801 14.9088 21.0553 14.8197 21.2183 14.873C21.3813 14.9263 21.4704 15.1007 21.4171 15.2637C21.3638 15.4267 21.1893 15.5158 21.0263 15.4633V15.4625Z" fill="#E6E7E8"/>
<path d="M20.9928 15.4351C20.8306 15.3818 20.7407 15.2073 20.794 15.0444C20.8466 14.8814 21.0218 14.7922 21.1847 14.8456C21.3477 14.8989 21.4368 15.0733 21.3835 15.2363C21.331 15.3993 21.1558 15.4884 20.9928 15.4351Z" fill="#898989"/>
<path d="M21.3805 13.9346C21.2114 13.9079 21.0964 13.7488 21.1231 13.5797C21.1497 13.4106 21.3089 13.2956 21.478 13.3222C21.6471 13.3489 21.7621 13.5081 21.7355 13.6772C21.7088 13.8463 21.5496 13.9613 21.3805 13.9346Z" fill="#474747"/>
<path d="M21.4544 13.978C21.2853 13.9514 21.1695 13.7922 21.197 13.6231C21.2236 13.454 21.3828 13.3382 21.5519 13.3657C21.721 13.3923 21.8368 13.5515 21.8101 13.7206C21.7834 13.8897 21.6243 14.0054 21.4552 13.9788L21.4544 13.978Z" fill="#E6E7E8"/>
<path d="M21.4171 13.9559C21.248 13.9293 21.1322 13.7701 21.1596 13.601C21.1863 13.4319 21.3447 13.3169 21.5146 13.3436C21.6837 13.3702 21.7994 13.5294 21.772 13.6985C21.7454 13.8676 21.5862 13.9834 21.4171 13.9559Z" fill="#898989"/>
<path d="M21.5648 12.4136C21.3934 12.4136 21.2548 12.2742 21.2548 12.1036C21.2548 11.9322 21.3934 11.7936 21.5648 11.7936C21.7362 11.7936 21.8748 11.9322 21.8748 12.1036C21.8748 12.2742 21.7362 12.4136 21.5648 12.4136Z" fill="#474747"/>
<path d="M21.6448 12.4448C21.4734 12.4448 21.3348 12.3054 21.3348 12.1348C21.3348 11.9634 21.4734 11.8248 21.6448 11.8248C21.8162 11.8248 21.9548 11.9634 21.9548 12.1348C21.9548 12.3062 21.8154 12.4448 21.6448 12.4448Z" fill="#E6E7E8"/>
<path d="M21.6052 12.4288C21.4338 12.4288 21.2952 12.2902 21.2952 12.1188C21.2952 11.9474 21.4338 11.8088 21.6052 11.8088C21.7766 11.8088 21.9152 11.9482 21.9152 12.1188C21.9152 12.2902 21.7766 12.4288 21.6052 12.4288Z" fill="#898989"/>
<path d="M21.51 10.8819C21.3409 10.9085 21.1825 10.7928 21.1551 10.6237C21.1284 10.4546 21.2434 10.2954 21.4125 10.2687C21.5816 10.2421 21.7408 10.3571 21.7674 10.5269C21.7941 10.696 21.6791 10.8545 21.51 10.8819Z" fill="#474747"/>
<path d="M21.5938 10.9009C21.4247 10.9276 21.2655 10.8118 21.2389 10.6427C21.2122 10.4736 21.3272 10.3144 21.4963 10.2878C21.6654 10.2611 21.8246 10.3761 21.8512 10.5452C21.8779 10.7143 21.7621 10.8735 21.5938 10.9002V10.9009Z" fill="#E6E7E8"/>
<path d="M21.5519 10.8918C21.3828 10.9184 21.2236 10.8034 21.197 10.6336C21.1703 10.4645 21.2853 10.306 21.4544 10.2786C21.6235 10.252 21.7827 10.367 21.8093 10.5361C21.836 10.7052 21.721 10.8643 21.5519 10.891V10.8918Z" fill="#898989"/>
<path d="M21.2152 9.37836C21.0522 9.43167 20.8778 9.3418 20.8245 9.17956C20.7712 9.01657 20.861 8.84215 21.0233 8.78883C21.1863 8.73627 21.3607 8.82539 21.414 8.98838C21.4666 9.15138 21.3775 9.3258 21.2145 9.37912L21.2152 9.37836Z" fill="#474747"/>
<path d="M21.3013 9.3837C21.1383 9.43702 20.9631 9.34714 20.9106 9.18415C20.8572 9.02115 20.9464 8.84673 21.1094 8.79341C21.2724 8.74086 21.4475 8.82997 21.5001 8.99221C21.5534 9.1552 21.4635 9.33038 21.3013 9.38294V9.3837Z" fill="#E6E7E8"/>
<path d="M21.2586 9.38141C21.0956 9.43397 20.9212 9.34485 20.8679 9.18186C20.8146 9.01886 20.9037 8.84444 21.0667 8.79112C21.2297 8.73857 21.4049 8.82768 21.4574 8.98992C21.5107 9.15291 21.4209 9.3281 21.2586 9.38065V9.38141Z" fill="#898989"/>
<path d="M20.6897 7.93956C20.5374 8.01725 20.3508 7.95631 20.2723 7.80398C20.1946 7.65165 20.2555 7.46428 20.4079 7.38659C20.5602 7.3089 20.7468 7.36983 20.8253 7.52216C20.903 7.6745 20.842 7.86111 20.6897 7.93956Z" fill="#474747"/>
<path d="M20.775 7.93119C20.6219 8.00888 20.4353 7.94795 20.3576 7.79562C20.2799 7.64329 20.3401 7.45668 20.4932 7.37823C20.6455 7.30054 20.8329 7.36147 20.9106 7.5138C20.9882 7.66614 20.9273 7.8535 20.775 7.93119Z" fill="#E6E7E8"/>
<path d="M20.7323 7.93501C20.58 8.0127 20.3934 7.95177 20.3149 7.79943C20.2372 7.6471 20.2982 7.4605 20.4505 7.38281C20.6028 7.30512 20.7902 7.36605 20.8679 7.51838C20.9456 7.67071 20.8847 7.85808 20.7323 7.93577V7.93501Z" fill="#898989"/>
<path d="M19.9448 6.5998C19.8061 6.70034 19.6119 6.66911 19.5114 6.53125C19.4108 6.39263 19.4413 6.1984 19.5799 6.09786C19.7185 5.99732 19.912 6.02779 20.0133 6.16642C20.1138 6.30504 20.0834 6.4985 19.9448 6.5998Z" fill="#474747"/>
<path d="M20.0285 6.57923C19.8899 6.67977 19.6957 6.64931 19.5951 6.51068C19.4946 6.37206 19.5251 6.1786 19.6637 6.0773C19.8023 5.97676 19.9965 6.00722 20.0971 6.14584C20.1976 6.28447 20.1672 6.47869 20.0285 6.57923Z" fill="#E6E7E8"/>
<path d="M19.9867 6.58912C19.848 6.68966 19.6546 6.65919 19.5533 6.52057C19.4527 6.38195 19.4832 6.18849 19.6218 6.08795C19.7604 5.98741 19.9547 6.01787 20.0552 6.15649C20.1557 6.29512 20.1253 6.48858 19.9867 6.58988V6.58912Z" fill="#898989"/>
<path d="M19.0003 5.39408C18.8792 5.51518 18.6827 5.51518 18.5616 5.39408C18.4405 5.27297 18.4405 5.07646 18.5616 4.95536C18.6827 4.83426 18.8792 4.83426 19.0003 4.95536C19.1214 5.07646 19.1214 5.27297 19.0003 5.39408Z" fill="#474747"/>
<path d="M19.0788 5.35981C18.9577 5.48091 18.7612 5.48091 18.6401 5.35981C18.5189 5.2387 18.5189 5.04219 18.6401 4.92109C18.7612 4.79999 18.9577 4.79999 19.0788 4.92109C19.1999 5.04219 19.1999 5.2387 19.0788 5.35981Z" fill="#E6E7E8"/>
<path d="M19.0392 5.37656C18.9181 5.49767 18.7215 5.49767 18.6004 5.37656C18.4793 5.25546 18.4793 5.05971 18.6004 4.93784C18.7215 4.81674 18.9181 4.81674 19.0392 4.93784C19.1603 5.05895 19.1603 5.25546 19.0392 5.37656Z" fill="#898989"/>
<path d="M17.8784 4.35059C17.7778 4.48921 17.5836 4.51968 17.445 4.41914C17.3064 4.3186 17.2759 4.12437 17.3764 3.98575C17.477 3.84713 17.6704 3.81666 17.8098 3.9172C17.9484 4.01774 17.9789 4.21196 17.8784 4.35059Z" fill="#474747"/>
<path d="M17.9507 4.3049C17.8502 4.44352 17.656 4.47399 17.5173 4.37345C17.3787 4.27291 17.3482 4.07869 17.4488 3.94007C17.5493 3.80144 17.7435 3.77098 17.8822 3.87151C18.0208 3.97205 18.0513 4.16628 17.9507 4.3049Z" fill="#E6E7E8"/>
<path d="M17.9142 4.32776C17.8136 4.46638 17.6194 4.49685 17.4808 4.39631C17.3421 4.29577 17.3117 4.10231 17.4122 3.96292C17.5128 3.8243 17.707 3.79383 17.8456 3.89437C17.9842 3.99491 18.0147 4.18914 17.9142 4.32776Z" fill="#898989"/>
<path d="M16.6072 3.49526C16.5295 3.6476 16.3429 3.70853 16.1898 3.63084C16.0374 3.55315 15.9765 3.36654 16.0542 3.21345C16.1319 3.06112 16.3185 3.00019 16.4716 3.07787C16.6239 3.15556 16.6849 3.34217 16.6072 3.49526Z" fill="#474747"/>
<path d="M16.6712 3.4389C16.5935 3.592 16.4061 3.65217 16.2538 3.57448C16.1014 3.49679 16.0405 3.31018 16.1182 3.15708C16.1959 3.00475 16.3825 2.94382 16.5356 3.02151C16.6879 3.0992 16.7488 3.28657 16.6712 3.4389Z" fill="#E6E7E8"/>
<path d="M16.6392 3.46707C16.5615 3.6194 16.3749 3.68033 16.2225 3.60264C16.0702 3.52496 16.0093 3.33835 16.087 3.18602C16.1647 3.03368 16.3513 2.97275 16.5044 3.05044C16.6567 3.12813 16.7176 3.31474 16.6399 3.46783L16.6392 3.46707Z" fill="#898989"/>
<path d="M15.2171 2.84936C15.1646 3.01236 14.9894 3.10147 14.8264 3.04815C14.6634 2.9956 14.5743 2.82042 14.6268 2.65742C14.6802 2.49442 14.8546 2.40531 15.0176 2.45863C15.1798 2.51118 15.2697 2.68637 15.2164 2.84936H15.2171Z" fill="#474747"/>
<path d="M15.272 2.78311C15.2187 2.9461 15.0435 3.03522 14.8812 2.9819C14.7182 2.92935 14.6291 2.75416 14.6824 2.59117C14.735 2.42817 14.9102 2.33906 15.0732 2.39237C15.2362 2.44493 15.3253 2.62087 15.2727 2.78311H15.272Z" fill="#E6E7E8"/>
<path d="M15.2446 2.81662C15.1912 2.97961 15.0168 3.06873 14.8538 3.01541C14.6908 2.96285 14.6017 2.78767 14.655 2.62468C14.7084 2.46168 14.8828 2.37257 15.0458 2.42588C15.2088 2.47844 15.2979 2.65362 15.2446 2.81662Z" fill="#898989"/>
<path d="M13.7441 2.42893C13.7174 2.59802 13.5582 2.71303 13.3891 2.68637C13.2201 2.65972 13.1043 2.50053 13.1317 2.33144C13.1584 2.16235 13.3168 2.04734 13.4866 2.074C13.6557 2.10066 13.7707 2.25984 13.7441 2.42893Z" fill="#474747"/>
<path d="M13.7875 2.35505C13.7608 2.52414 13.6017 2.63991 13.4326 2.61249C13.2635 2.58583 13.1477 2.42664 13.1751 2.25756C13.2018 2.08847 13.361 1.97346 13.5301 2.00012C13.6992 2.02677 13.8149 2.18596 13.7883 2.35505H13.7875Z" fill="#E6E7E8"/>
<path d="M13.7662 2.39237C13.7395 2.56146 13.5803 2.67647 13.4112 2.64982C13.2421 2.62316 13.1271 2.46473 13.1538 2.29488C13.1805 2.12579 13.3396 2.01002 13.5087 2.03744C13.6778 2.0641 13.7936 2.22328 13.7662 2.39237Z" fill="#898989"/>
<path d="M14.7914 9.56494C14.7746 9.59541 14.786 9.63349 14.8165 9.65025C15.3748 9.95415 15.8158 10.2862 16.1509 10.5886C16.1829 10.6176 16.1738 10.6716 16.1334 10.6869C16.1334 10.6869 16.1334 10.6869 16.1326 10.6869C15.9803 10.7432 15.8287 10.7257 15.6772 10.6869C15.3733 10.6084 15.0983 10.4622 14.8226 10.319C14.3641 10.0806 13.9132 9.82696 13.4227 9.65711C13.3038 9.61598 13.1827 9.57865 13.0616 9.5459C13.0373 9.53905 12.9946 9.55123 12.9771 9.57028C12.4492 10.1689 11.763 10.4508 10.9922 10.5597C10.3288 10.6541 9.66918 10.6145 9.01415 10.4827C9.00653 10.4812 8.99968 10.4774 8.97606 10.469C9.01491 10.4546 9.04156 10.4447 9.06822 10.4348C9.47952 10.2862 9.85351 10.0775 10.165 9.76526C10.4004 9.52915 10.5679 9.25342 10.6434 8.92591C10.6502 8.8962 10.654 8.86574 10.6616 8.82308C10.4887 8.82004 10.3227 8.81471 10.1574 8.81394C9.37518 8.81166 8.60132 8.8863 7.84727 9.1049C7.01706 9.34635 6.27369 9.73708 5.68797 10.3883C5.16395 10.9717 4.84557 11.6504 4.78997 12.4402C4.78083 12.5728 4.79301 12.7076 4.8052 12.8401C4.82805 13.0762 4.95906 13.2453 5.17309 13.3337C5.41225 13.4327 5.65902 13.5142 5.9058 13.5949C6.23255 13.7023 6.55092 13.8219 6.8175 14.0481C7.12979 14.3116 7.30802 14.7283 7.32173 15.1365C7.16788 14.8577 6.9051 14.7778 6.62861 14.7389C6.34147 14.6986 6.05052 14.6826 5.76185 14.6529C5.67731 14.6445 5.59352 14.6323 5.5105 14.6155C5.38406 14.5889 5.26295 14.547 5.16165 14.4464C5.15632 14.5158 5.15785 14.579 5.14566 14.6399C5.119 14.777 5.04589 14.8928 4.95982 14.9994C4.8707 15.1091 4.77854 15.2157 4.68866 15.3246C4.39085 15.6841 4.24843 15.9919 4.35506 16.4984C4.28194 16.3993 4.20653 16.3026 4.13722 16.2006C3.79371 15.6986 3.73811 15.1601 3.93538 14.5904C4.01231 14.3672 4.09076 14.1441 4.16312 13.9186C4.29032 13.5225 4.28193 13.1272 4.13264 12.7396C3.80513 11.888 3.76933 11.0159 3.97955 10.1392C4.41065 8.33638 5.46023 6.98976 7.05591 6.06282C7.51824 5.79471 8.01713 5.60658 8.53658 5.47862C8.56172 5.47253 8.58685 5.46643 8.61122 5.45882C8.61579 5.45806 8.61961 5.45349 8.63484 5.44359C8.27381 4.83806 7.7399 4.44352 7.12066 4.13353C7.29356 4.12591 7.46568 4.1122 7.63858 4.11068C8.27914 4.10534 8.9037 4.20512 9.50694 4.42448C10.0538 4.62404 10.5459 4.91575 10.9747 5.31334C11.0089 5.34533 11.0607 5.3697 11.108 5.3758C11.9366 5.4969 12.7219 5.7414 13.431 6.19687C14.4319 6.83972 15.096 7.74228 15.4563 8.86954C15.5332 9.11023 15.6452 9.32198 15.7975 9.51925C15.9339 9.69595 16.0656 9.87646 16.1905 10.0608C16.2469 10.1438 16.2888 10.236 16.317 10.3319V10.3342C16.3436 10.4226 16.2385 10.4896 16.1692 10.4294C15.8371 10.1392 15.4106 9.82619 14.8759 9.53524C14.8454 9.51848 14.8066 9.52991 14.7906 9.56114L14.7914 9.56494Z" fill="#292929"/>
<path d="M14.7426 9.46137C14.7259 9.49184 14.7373 9.52992 14.7678 9.54668C15.3261 9.85058 15.7671 10.1827 16.1022 10.485C16.1342 10.514 16.1251 10.5681 16.0847 10.5833C16.0847 10.5833 16.0847 10.5833 16.0839 10.5833C15.9316 10.6397 15.78 10.6221 15.6284 10.5833C15.3245 10.5048 15.0496 10.3586 14.7739 10.2154C14.3153 9.97702 13.8644 9.72338 13.3739 9.55353C13.2551 9.5124 13.134 9.47508 13.0129 9.44233C12.9885 9.43547 12.9459 9.44766 12.9284 9.4667C12.4005 10.0654 11.7143 10.3472 10.9435 10.4561C10.2801 10.5505 9.62045 10.5109 8.96542 10.3792C8.95781 10.3776 8.95095 10.3738 8.92734 10.3655C8.96619 10.351 8.99284 10.3411 9.0195 10.3312C9.4308 10.1827 9.80477 9.97397 10.1163 9.66169C10.3516 9.42557 10.5192 9.14985 10.5946 8.82233C10.6015 8.79263 10.6053 8.76216 10.6129 8.71951C10.44 8.71646 10.274 8.71113 10.1087 8.71037C9.32645 8.70809 8.5526 8.78273 7.79855 9.00133C6.96834 9.24277 6.22495 9.6335 5.63923 10.2847C5.11521 10.8682 4.79683 11.5468 4.74123 12.3366C4.73209 12.4692 4.74429 12.604 4.75647 12.7365C4.77932 12.9726 4.91032 13.1417 5.12434 13.2301C5.36351 13.3291 5.61029 13.4106 5.85707 13.4913C6.18383 13.5987 6.5022 13.7183 6.76878 13.9445C7.08106 14.2081 7.2593 14.6247 7.27301 15.0329C7.11915 14.7542 6.85637 14.6742 6.57989 14.6353C6.29274 14.595 6.00178 14.579 5.71311 14.5493C5.62856 14.5409 5.5448 14.5287 5.46177 14.512C5.33534 14.4853 5.21423 14.4434 5.11293 14.3429C5.1076 14.4122 5.10912 14.4754 5.09693 14.5363C5.07028 14.6734 4.99716 14.7892 4.91109 14.8958C4.82198 15.0055 4.72981 15.1121 4.63994 15.2211C4.34213 15.5806 4.19969 15.8883 4.30632 16.3948C4.2332 16.2958 4.15781 16.199 4.08849 16.097C3.74498 15.595 3.68937 15.0565 3.88664 14.4868C3.96357 14.2637 4.04202 14.0405 4.11438 13.815C4.24158 13.419 4.23321 13.0237 4.08392 12.636C3.7564 11.7844 3.72061 10.9123 3.93082 10.0357C4.36193 8.23281 5.41149 6.88619 7.00717 5.95924C7.4695 5.69114 7.96841 5.50301 8.48786 5.37505C8.51299 5.36895 8.53813 5.36286 8.5625 5.35524C8.56707 5.35448 8.57088 5.34991 8.58612 5.34001C8.22509 4.73449 7.69115 4.33995 7.07192 4.02995C7.24482 4.02233 7.41696 4.00862 7.58986 4.0071C8.23041 4.00177 8.85498 4.10155 9.45822 4.32091C10.0051 4.52046 10.4971 4.81218 10.9259 5.20977C10.9602 5.24176 11.012 5.26613 11.0592 5.27222C11.8879 5.39333 12.6732 5.63782 13.3823 6.09329C14.3831 6.73614 15.0473 7.63871 15.4076 8.76597C15.4845 9.00666 15.5964 9.2184 15.7488 9.41567C15.8851 9.59238 16.0169 9.77289 16.1418 9.95721C16.1982 10.0402 16.2401 10.1324 16.2682 10.2284V10.2306C16.2949 10.319 16.1898 10.386 16.1205 10.3259C15.7884 10.0357 15.3619 9.72262 14.8272 9.43166C14.7967 9.41491 14.7579 9.42633 14.7419 9.45756L14.7426 9.46137Z" fill="url(#paint3_radial_0_634)"/>
<g opacity="0.69">
<path d="M14.7426 9.46137C14.7259 9.49184 14.7373 9.52992 14.7678 9.54668C15.3261 9.85058 15.7671 10.1827 16.1022 10.485C16.1342 10.514 16.1251 10.5681 16.0847 10.5833C16.0847 10.5833 16.0847 10.5833 16.0839 10.5833C15.9316 10.6397 15.78 10.6221 15.6284 10.5833C15.3245 10.5048 15.0496 10.3586 14.7739 10.2154C14.3153 9.97702 13.8644 9.72338 13.3739 9.55353C13.2551 9.5124 13.134 9.47508 13.0129 9.44233C12.9885 9.43547 12.9459 9.44766 12.9284 9.4667C12.4005 10.0654 11.7143 10.3472 10.9435 10.4561C10.2801 10.5505 9.62045 10.5109 8.96542 10.3792C8.95781 10.3776 8.95095 10.3738 8.92734 10.3655C8.96619 10.351 8.99284 10.3411 9.0195 10.3312C9.4308 10.1827 9.80477 9.97397 10.1163 9.66169C10.3516 9.42557 10.5192 9.14985 10.5946 8.82233C10.6015 8.79263 10.6053 8.76216 10.6129 8.71951C10.44 8.71646 10.274 8.71113 10.1087 8.71037C9.32645 8.70809 8.5526 8.78273 7.79855 9.00133C6.96834 9.24277 6.22495 9.6335 5.63923 10.2847C5.11521 10.8682 4.79683 11.5468 4.74123 12.3366C4.73209 12.4692 4.74429 12.604 4.75647 12.7365C4.77932 12.9726 4.91032 13.1417 5.12434 13.2301C5.36351 13.3291 5.61029 13.4106 5.85707 13.4913C6.18383 13.5987 6.5022 13.7183 6.76878 13.9445C7.08106 14.2081 7.2593 14.6247 7.27301 15.0329C7.11915 14.7542 6.85637 14.6742 6.57989 14.6353C6.29274 14.595 6.00178 14.579 5.71311 14.5493C5.62856 14.5409 5.5448 14.5287 5.46177 14.512C5.33534 14.4853 5.21423 14.4434 5.11293 14.3429C5.1076 14.4122 5.10912 14.4754 5.09693 14.5363C5.07028 14.6734 4.99716 14.7892 4.91109 14.8958C4.82198 15.0055 4.72981 15.1121 4.63994 15.2211C4.34213 15.5806 4.19969 15.8883 4.30632 16.3948C4.2332 16.2958 4.15781 16.199 4.08849 16.097C3.74498 15.595 3.68937 15.0565 3.88664 14.4868C3.96357 14.2637 4.04202 14.0405 4.11438 13.815C4.24158 13.419 4.23321 13.0237 4.08392 12.636C3.7564 11.7844 3.72061 10.9123 3.93082 10.0357C4.36193 8.23281 5.41149 6.88619 7.00717 5.95924C7.4695 5.69114 7.96841 5.50301 8.48786 5.37505C8.51299 5.36895 8.53813 5.36286 8.5625 5.35524C8.56707 5.35448 8.57088 5.34991 8.58612 5.34001C8.22509 4.73449 7.69115 4.33995 7.07192 4.02995C7.24482 4.02233 7.41696 4.00862 7.58986 4.0071C8.23041 4.00177 8.85498 4.10155 9.45822 4.32091C10.0051 4.52046 10.4971 4.81218 10.9259 5.20977C10.9602 5.24176 11.012 5.26613 11.0592 5.27222C11.8879 5.39333 12.6732 5.63782 13.3823 6.09329C14.3831 6.73614 15.0473 7.63871 15.4076 8.76597C15.4845 9.00666 15.5964 9.2184 15.7488 9.41567C15.8851 9.59238 16.0169 9.77289 16.1418 9.95721C16.1982 10.0402 16.2401 10.1324 16.2682 10.2284V10.2306C16.2949 10.319 16.1898 10.386 16.1205 10.3259C15.7884 10.0357 15.3619 9.72262 14.8272 9.43166C14.7967 9.41491 14.7579 9.42633 14.7419 9.45756L14.7426 9.46137Z" fill="#4A4A4A"/>
</g>
<path d="M9.20381 15.0626C9.21599 15.0299 9.19924 14.9941 9.16649 14.9819C8.57087 14.761 8.0872 14.4937 7.7117 14.2423C7.6759 14.2179 7.67743 14.1631 7.71475 14.1425C7.71475 14.1425 7.71475 14.1425 7.71552 14.1425C7.85795 14.0656 8.01105 14.0603 8.16643 14.0778C8.47871 14.1121 8.77194 14.2179 9.06518 14.3208C9.55264 14.4914 10.0356 14.6787 10.5451 14.777C10.6685 14.8006 10.7934 14.8204 10.9183 14.8364C10.9434 14.8394 10.9838 14.8219 10.9983 14.8006C11.4362 14.1334 12.0753 13.7571 12.8232 13.5393C13.4668 13.3519 14.1249 13.2978 14.7921 13.3352C14.7998 13.3352 14.8066 13.3382 14.8317 13.3435C14.7952 13.3633 14.77 13.3771 14.7449 13.39C14.3587 13.5949 14.0183 13.8554 13.754 14.208C13.5544 14.4754 13.428 14.7724 13.3991 15.1068C13.396 15.1373 13.3968 15.1677 13.3952 15.2111C13.5666 15.1898 13.7319 15.1715 13.8957 15.1487C14.6703 15.0405 15.4258 14.8562 16.141 14.5325C16.9286 14.176 17.6095 13.6832 18.0962 12.9559C18.5319 12.3039 18.7513 11.5864 18.6941 10.7973C18.6842 10.6648 18.6538 10.533 18.6218 10.4035C18.5654 10.1727 18.4115 10.0242 18.1876 9.96709C17.9363 9.90311 17.6811 9.85741 17.426 9.81247C17.087 9.75306 16.7557 9.67918 16.4586 9.49334C16.1121 9.27626 15.8767 8.88934 15.8051 8.48794C15.9971 8.74233 16.269 8.78423 16.5478 8.78346C16.8379 8.7827 17.1282 8.75757 17.4184 8.74538C17.5029 8.74157 17.5882 8.74157 17.6727 8.74691C17.8015 8.75528 17.9279 8.77966 18.0421 8.86496C18.0376 8.79565 18.0269 8.7332 18.0307 8.6715C18.0376 8.53212 18.0939 8.4072 18.164 8.28915C18.2364 8.16804 18.3125 8.04922 18.3864 7.92812C18.6302 7.52977 18.7276 7.20454 18.5502 6.7186C18.6362 6.80619 18.7254 6.8915 18.8084 6.98213C19.2197 7.42999 19.3507 7.95478 19.2364 8.54735C19.1915 8.77966 19.1458 9.0112 19.1062 9.24503C19.0369 9.65481 19.1009 10.0455 19.3035 10.4081C19.7483 11.204 19.9075 12.0624 19.8244 12.9604C19.6538 14.8059 18.8061 16.2881 17.3574 17.4322C16.9377 17.7635 16.4708 18.0194 15.975 18.2205C15.9514 18.2304 15.927 18.2395 15.9034 18.2502C15.8988 18.2517 15.8958 18.2563 15.8828 18.2685C16.3261 18.8169 16.9103 19.1314 17.5676 19.35C17.3978 19.382 17.2287 19.4201 17.0581 19.446C16.4244 19.542 15.7922 19.5321 15.1646 19.4003C14.5949 19.2799 14.0663 19.0613 13.5857 18.7285C13.5468 18.7018 13.492 18.6851 13.4447 18.6851C12.6069 18.6828 11.795 18.5518 11.0287 18.2014C9.94719 17.7071 9.16115 16.9074 8.64474 15.8433C8.53506 15.6156 8.3934 15.4221 8.21441 15.2485C8.05446 15.0931 7.89833 14.9331 7.74828 14.7679C7.68049 14.694 7.62564 14.6087 7.58451 14.5173V14.515C7.5449 14.4312 7.64011 14.3497 7.71704 14.4C8.08721 14.6399 8.55334 14.8897 9.12383 15.1015C9.15658 15.1136 9.19315 15.0969 9.20533 15.0641L9.20381 15.0626Z" fill="#292929"/>
<path d="M9.15507 14.959C9.16726 14.9263 9.1505 14.8905 9.11775 14.8783C8.52213 14.6574 8.03847 14.3901 7.66297 14.1387C7.62717 14.1144 7.62869 14.0595 7.66602 14.0389C7.66602 14.0389 7.66602 14.0389 7.66678 14.0389C7.80921 13.962 7.9623 13.9567 8.11768 13.9742C8.42996 14.0085 8.7232 14.1144 9.01644 14.2172C9.50391 14.3878 9.9868 14.5752 10.4963 14.6734C10.6197 14.697 10.7447 14.7168 10.8696 14.7328C10.8947 14.7359 10.9351 14.7184 10.9495 14.697C11.3875 14.0298 12.0265 13.6535 12.7745 13.4357C13.4181 13.2483 14.0762 13.1943 14.7434 13.2316C14.751 13.2316 14.7579 13.2346 14.783 13.24C14.7464 13.2598 14.7213 13.2735 14.6962 13.2864C14.31 13.4913 13.9695 13.7518 13.7052 14.1045C13.5057 14.3718 13.3792 14.6688 13.3503 15.0032C13.3473 15.0337 13.348 15.0641 13.3465 15.1076C13.5179 15.0862 13.6831 15.068 13.8469 15.0451C14.6215 14.937 15.3771 14.7526 16.0923 14.4289C16.8798 14.0725 17.5608 13.5797 18.0475 12.8523C18.4832 12.2003 18.7025 11.4828 18.6454 10.6937C18.6355 10.5612 18.605 10.4294 18.573 10.2999C18.5167 10.0692 18.3628 9.92064 18.1389 9.86351C17.8875 9.79953 17.6324 9.75383 17.3772 9.7089C17.0383 9.64949 16.707 9.5756 16.4099 9.38976C16.0634 9.17268 15.828 8.78576 15.7564 8.38436C15.9483 8.63876 16.2203 8.68065 16.499 8.67989C16.7892 8.67913 17.0794 8.65399 17.3696 8.6418C17.4541 8.638 17.5395 8.638 17.624 8.64333C17.7527 8.65171 17.8792 8.67608 17.9934 8.76139C17.9888 8.69208 17.9782 8.62962 17.982 8.56793C17.9888 8.42854 18.0452 8.30363 18.1153 8.18557C18.1876 8.06447 18.2638 7.94565 18.3377 7.82454C18.5814 7.42619 18.6789 7.10096 18.5014 6.61502C18.5875 6.70261 18.6766 6.78792 18.7596 6.87855C19.1709 7.32641 19.3019 7.8512 19.1877 8.44377C19.1428 8.67608 19.0971 8.90763 19.0575 9.14146C18.9881 9.55123 19.0521 9.94197 19.2547 10.3045C19.6995 11.1005 19.8587 11.9588 19.7757 12.8569C19.6051 14.7024 18.7573 16.1846 17.3087 17.3286C16.889 17.6599 16.4221 17.9158 15.9262 18.1169C15.9026 18.1268 15.8783 18.1359 15.8547 18.1466C15.8501 18.1481 15.847 18.1527 15.8341 18.1649C16.2774 18.7133 16.8616 19.0278 17.5189 19.2464C17.349 19.2784 17.1799 19.3165 17.0093 19.3424C16.3756 19.4384 15.7435 19.4285 15.1158 19.2967C14.5461 19.1764 14.0175 18.9578 13.5369 18.6249C13.4981 18.5983 13.4432 18.5815 13.396 18.5815C12.5582 18.5792 11.7462 18.4482 10.98 18.0979C9.89845 17.6035 9.11241 16.8038 8.596 15.7397C8.48632 15.512 8.34466 15.3185 8.16567 15.1449C8.00572 14.9895 7.84957 14.8296 7.69952 14.6643C7.63174 14.5904 7.5769 14.5051 7.53577 14.4137V14.4114C7.49617 14.3276 7.59138 14.2461 7.6683 14.2964C8.03847 14.5363 8.50461 14.7861 9.07509 14.9979C9.10784 15.0101 9.14441 14.9933 9.1566 14.9606L9.15507 14.959Z" fill="url(#paint4_radial_0_634)"/>
<g opacity="0.69">
<path d="M9.15507 14.959C9.16726 14.9263 9.1505 14.8905 9.11775 14.8783C8.52213 14.6574 8.03847 14.3901 7.66297 14.1387C7.62717 14.1144 7.62869 14.0595 7.66602 14.0389C7.66602 14.0389 7.66602 14.0389 7.66678 14.0389C7.80921 13.962 7.9623 13.9567 8.11768 13.9742C8.42996 14.0085 8.7232 14.1144 9.01644 14.2172C9.50391 14.3878 9.9868 14.5752 10.4963 14.6734C10.6197 14.697 10.7447 14.7168 10.8696 14.7328C10.8947 14.7359 10.9351 14.7184 10.9495 14.697C11.3875 14.0298 12.0265 13.6535 12.7745 13.4357C13.4181 13.2483 14.0762 13.1943 14.7434 13.2316C14.751 13.2316 14.7579 13.2346 14.783 13.24C14.7464 13.2598 14.7213 13.2735 14.6962 13.2864C14.31 13.4913 13.9695 13.7518 13.7052 14.1045C13.5057 14.3718 13.3792 14.6688 13.3503 15.0032C13.3473 15.0337 13.348 15.0641 13.3465 15.1076C13.5179 15.0862 13.6831 15.068 13.8469 15.0451C14.6215 14.937 15.3771 14.7526 16.0923 14.4289C16.8798 14.0725 17.5608 13.5797 18.0475 12.8523C18.4832 12.2003 18.7025 11.4828 18.6454 10.6937C18.6355 10.5612 18.605 10.4294 18.573 10.2999C18.5167 10.0692 18.3628 9.92064 18.1389 9.86351C17.8875 9.79953 17.6324 9.75383 17.3772 9.7089C17.0383 9.64949 16.707 9.5756 16.4099 9.38976C16.0634 9.17268 15.828 8.78576 15.7564 8.38436C15.9483 8.63876 16.2203 8.68065 16.499 8.67989C16.7892 8.67913 17.0794 8.65399 17.3696 8.6418C17.4541 8.638 17.5395 8.638 17.624 8.64333C17.7527 8.65171 17.8792 8.67608 17.9934 8.76139C17.9888 8.69208 17.9782 8.62962 17.982 8.56793C17.9888 8.42854 18.0452 8.30363 18.1153 8.18557C18.1876 8.06447 18.2638 7.94565 18.3377 7.82454C18.5814 7.42619 18.6789 7.10096 18.5014 6.61502C18.5875 6.70261 18.6766 6.78792 18.7596 6.87855C19.1709 7.32641 19.3019 7.8512 19.1877 8.44377C19.1428 8.67608 19.0971 8.90763 19.0575 9.14146C18.9881 9.55123 19.0521 9.94197 19.2547 10.3045C19.6995 11.1005 19.8587 11.9588 19.7757 12.8569C19.6051 14.7024 18.7573 16.1846 17.3087 17.3286C16.889 17.6599 16.4221 17.9158 15.9262 18.1169C15.9026 18.1268 15.8783 18.1359 15.8547 18.1466C15.8501 18.1481 15.847 18.1527 15.8341 18.1649C16.2774 18.7133 16.8616 19.0278 17.5189 19.2464C17.349 19.2784 17.1799 19.3165 17.0093 19.3424C16.3756 19.4384 15.7435 19.4285 15.1158 19.2967C14.5461 19.1764 14.0175 18.9578 13.5369 18.6249C13.4981 18.5983 13.4432 18.5815 13.396 18.5815C12.5582 18.5792 11.7462 18.4482 10.98 18.0979C9.89845 17.6035 9.11241 16.8038 8.596 15.7397C8.48632 15.512 8.34466 15.3185 8.16567 15.1449C8.00572 14.9895 7.84957 14.8296 7.69952 14.6643C7.63174 14.5904 7.5769 14.5051 7.53577 14.4137V14.4114C7.49617 14.3276 7.59138 14.2461 7.6683 14.2964C8.03847 14.5363 8.50461 14.7861 9.07509 14.9979C9.10784 15.0101 9.14441 14.9933 9.1566 14.9606L9.15507 14.959Z" fill="#4A4A4A"/>
</g>
<path d="M12.7676 11.8111L12.2817 11.3168L11.83 10.8567H11.8293C11.7965 10.891 10.9313 11.7913 10.9305 11.7913C10.7629 11.9657 10.6868 12.2399 10.7774 12.4661C10.7896 12.4981 10.8056 12.5286 10.8246 12.5575C10.8422 12.5842 10.862 12.6093 10.8833 12.6322C10.8841 12.6329 10.8848 12.6337 10.8863 12.6352C11.0227 12.783 11.2367 12.8622 11.4355 12.8492C11.6358 12.8363 11.8742 12.7121 11.9321 12.5057C11.961 12.4029 11.9359 12.2947 11.891 12.2011C11.891 12.2011 11.8651 12.1287 11.792 12.07C11.7188 12.0106 11.5977 11.9665 11.4058 12.0251L11.3144 12.0563L11.0691 12.1394C11.0288 12.1515 10.9907 12.1256 10.98 12.0914C10.9732 12.0731 10.9747 12.0533 10.9869 12.0342C11.0036 12.0068 11.1065 11.9375 11.1567 11.9032C11.1567 11.9032 11.2093 11.84 11.255 11.7715C11.3266 11.6633 11.434 11.5811 11.5619 11.5529C11.6579 11.5323 11.7805 11.5338 11.9268 11.5887C12.0105 11.6199 12.102 11.6679 12.2017 11.7395C12.22 11.7524 12.2413 11.7616 12.2634 11.7631C12.2962 11.7654 12.3502 11.7753 12.4005 11.8126C12.4554 11.853 12.5056 11.9253 12.5186 12.0571C12.5186 12.0571 12.4218 11.9459 12.2665 11.955C12.2634 11.955 12.2611 11.955 12.2581 11.955C12.2581 11.955 12.2642 11.9581 12.2749 11.9649C12.3114 11.9908 12.3975 12.0731 12.3777 12.2643C12.3777 12.2643 12.3663 12.46 12.1796 12.6421C12.1393 12.6824 12.1355 12.7395 12.1591 12.7822C12.1758 12.8134 12.2063 12.8363 12.2467 12.8416H12.2489C12.5003 12.8736 12.7296 12.7197 12.8484 12.5057C12.9771 12.2734 12.9588 12.0061 12.7676 11.8118V11.8111ZM11.8323 11.0746L11.9976 11.2574L11.8361 11.4462L11.7897 11.3967L11.664 11.2634L11.8293 11.0776L11.8323 11.0746Z" fill="#292929"/>
<path d="M12.3007 13.2034C12.3007 13.2278 12.2817 13.2476 12.2573 13.2476L11.6213 13.2544C11.597 13.2544 11.5771 13.2354 11.5771 13.211C11.5771 13.1965 11.5848 13.1821 11.597 13.1737C11.6183 13.16 11.6487 13.1661 11.6724 13.1577C11.6944 13.1501 11.7143 13.1379 11.7318 13.1227C11.7683 13.0914 11.7942 13.0488 11.8171 13.0077C11.8277 12.9886 11.8369 12.9696 11.8475 12.9513C11.8818 12.8866 11.9138 12.8195 11.9405 12.751C11.977 12.8607 12.0273 12.962 12.0882 13.0602C12.1119 13.0991 12.1469 13.131 12.1895 13.147C12.2109 13.1554 12.2337 13.1592 12.2566 13.1608C12.2794 13.1623 12.2992 13.179 12.2992 13.2034H12.3007Z" fill="#292929"/>
<path d="M12.7196 11.7639L12.2809 11.3175L11.8293 10.8575L11.7821 10.8095C11.7821 10.8095 10.8833 11.7441 10.8825 11.7441C10.6997 11.9345 10.6251 12.2437 10.7584 12.4806C10.7637 12.4905 10.7698 12.5004 10.7767 12.5103C10.8064 12.5552 10.8422 12.5964 10.8841 12.6322C10.8848 12.6329 10.8856 12.6337 10.8871 12.6352C11.0234 12.7517 11.2123 12.8134 11.3883 12.8013C11.5886 12.7883 11.827 12.6642 11.8849 12.4577C11.9138 12.3549 11.8887 12.2468 11.8437 12.1531C11.8437 12.1531 11.8293 12.1135 11.7935 12.0693C11.7386 12.0023 11.632 11.9253 11.4454 11.9558C11.4187 11.9604 11.3898 11.9672 11.3593 11.9764L11.0227 12.0906C11.0082 12.0952 10.9937 12.0944 10.9815 12.0906C10.9397 12.0777 10.913 12.0282 10.9397 11.9863C10.9564 11.9596 11.06 11.8895 11.1095 11.8553C11.1095 11.8553 11.1621 11.7921 11.2078 11.7235C11.2794 11.6153 11.3875 11.5331 11.5147 11.5049C11.6259 11.4813 11.7722 11.4866 11.9504 11.5704C12.0144 11.5994 12.0821 11.639 12.1545 11.6908C12.1728 11.7045 12.1941 11.7128 12.2162 11.7144C12.2604 11.7174 12.3419 11.7342 12.4013 11.8111C12.4348 11.8545 12.4622 11.9177 12.4706 12.0076C12.4706 12.0076 12.3708 11.8926 12.2109 11.9055C12.2109 11.9055 12.2383 11.9177 12.2672 11.9528C12.2703 11.9558 12.2726 11.9596 12.2756 11.9634C12.3106 12.0099 12.3434 12.0883 12.3304 12.2155C12.3304 12.2155 12.319 12.4113 12.1324 12.5933C12.073 12.6512 12.0928 12.7464 12.1598 12.7807C12.1713 12.7868 12.1842 12.7906 12.1987 12.7929H12.201C12.4531 12.8249 12.6816 12.671 12.8004 12.457C12.9291 12.2247 12.9108 11.9573 12.7196 11.7631V11.7639ZM11.7881 11.3983L11.616 11.2155L11.7843 11.0266L11.83 11.0769L11.9504 11.2086L11.7904 11.3952L11.7889 11.3967L11.7881 11.3983Z" fill="url(#paint5_radial_0_634)"/>
<path d="M12.252 13.1562C12.252 13.1806 12.2329 13.2004 12.2086 13.2004L11.5726 13.2072C11.5482 13.2072 11.5284 13.1882 11.5284 13.1638C11.5284 13.1493 11.536 13.1349 11.5482 13.1265C11.5695 13.1128 11.6 13.1189 11.6236 13.1105C11.6457 13.1029 11.6655 13.0907 11.683 13.0755C11.7196 13.0442 11.7455 13.0016 11.7683 12.9604C11.779 12.9414 11.7881 12.9224 11.7988 12.9041C11.8331 12.8393 11.8651 12.7723 11.8917 12.7038C11.9283 12.8134 11.9786 12.9147 12.0395 13.013C12.0631 13.0518 12.0981 13.0838 12.1408 13.0998C12.1621 13.1082 12.185 13.112 12.2078 13.1135C12.2307 13.1151 12.2505 13.1318 12.2505 13.1562H12.252Z" fill="url(#paint6_radial_0_634)"/>
<g opacity="0.69">
<path d="M12.7196 11.7639L12.2809 11.3175L11.8293 10.8575L11.7821 10.8095C11.7821 10.8095 10.8833 11.7441 10.8825 11.7441C10.6997 11.9345 10.6251 12.2437 10.7584 12.4806C10.7637 12.4905 10.7698 12.5004 10.7767 12.5103C10.8064 12.5552 10.8422 12.5964 10.8841 12.6322C10.8848 12.6329 10.8856 12.6337 10.8871 12.6352C11.0234 12.7517 11.2123 12.8134 11.3883 12.8013C11.5886 12.7883 11.827 12.6642 11.8849 12.4577C11.9138 12.3549 11.8887 12.2468 11.8437 12.1531C11.8437 12.1531 11.8293 12.1135 11.7935 12.0693C11.7386 12.0023 11.632 11.9253 11.4454 11.9558C11.4187 11.9604 11.3898 11.9672 11.3593 11.9764L11.0227 12.0906C11.0082 12.0952 10.9937 12.0944 10.9815 12.0906C10.9397 12.0777 10.913 12.0282 10.9397 11.9863C10.9564 11.9596 11.06 11.8895 11.1095 11.8553C11.1095 11.8553 11.1621 11.7921 11.2078 11.7235C11.2794 11.6153 11.3875 11.5331 11.5147 11.5049C11.6259 11.4813 11.7722 11.4866 11.9504 11.5704C12.0144 11.5994 12.0821 11.639 12.1545 11.6908C12.1728 11.7045 12.1941 11.7128 12.2162 11.7144C12.2604 11.7174 12.3419 11.7342 12.4013 11.8111C12.4348 11.8545 12.4622 11.9177 12.4706 12.0076C12.4706 12.0076 12.3708 11.8926 12.2109 11.9055C12.2109 11.9055 12.2383 11.9177 12.2672 11.9528C12.2703 11.9558 12.2726 11.9596 12.2756 11.9634C12.3106 12.0099 12.3434 12.0883 12.3304 12.2155C12.3304 12.2155 12.319 12.4113 12.1324 12.5933C12.073 12.6512 12.0928 12.7464 12.1598 12.7807C12.1713 12.7868 12.1842 12.7906 12.1987 12.7929H12.201C12.4531 12.8249 12.6816 12.671 12.8004 12.457C12.9291 12.2247 12.9108 11.9573 12.7196 11.7631V11.7639ZM11.7881 11.3983L11.616 11.2155L11.7843 11.0266L11.83 11.0769L11.9504 11.2086L11.7904 11.3952L11.7889 11.3967L11.7881 11.3983Z" fill="#4A4A4A"/>
<path d="M12.252 13.1562C12.252 13.1806 12.2329 13.2004 12.2086 13.2004L11.5726 13.2072C11.5482 13.2072 11.5284 13.1882 11.5284 13.1638C11.5284 13.1493 11.536 13.1349 11.5482 13.1265C11.5695 13.1128 11.6 13.1189 11.6236 13.1105C11.6457 13.1029 11.6655 13.0907 11.683 13.0755C11.7196 13.0442 11.7455 13.0016 11.7683 12.9604C11.779 12.9414 11.7881 12.9224 11.7988 12.9041C11.8331 12.8393 11.8651 12.7723 11.8917 12.7038C11.9283 12.8134 11.9786 12.9147 12.0395 13.013C12.0631 13.0518 12.0981 13.0838 12.1408 13.0998C12.1621 13.1082 12.185 13.112 12.2078 13.1135C12.2307 13.1151 12.2505 13.1318 12.2505 13.1562H12.252Z" fill="#4A4A4A"/>
</g>
<path d="M19.5662 2.93848L19.4322 3.05502L19.209 3.24848L19.0399 3.39548L10.5748 10.7318L10.408 10.8765L6.95917 13.8653L6.80074 14.0032L2.46002 17.7658L2.25133 17.9471L2.02893 18.1398L1.93143 18.2243C1.08599 16.8975 0.499514 15.3886 0.24588 13.7693L0.279389 13.7404L0.53301 13.521L0.777519 13.307L8.51753 6.59066L8.56705 6.54801L9.92813 5.36514H9.92965L10.2572 5.07952H10.2579L11.4834 4.01548L11.5413 3.96673L12.3807 3.23782L12.3837 3.23629L14.8568 1.08993L15.0625 0.9117L15.2506 0.748703L15.4487 0.576569C16.9857 1.07927 18.3834 1.8912 19.567 2.93925L19.5662 2.93848Z" fill="url(#paint7_linear_0_634)"/>
<path d="M23.5109 11.3602L23.5025 11.3678L23.0264 11.776L22.801 11.9695L15.1638 18.5335L14.9841 18.6881L14.1988 19.3637L14.0594 19.4841L14.0061 19.529L13.7837 19.7194L13.1583 20.2572L12.9466 20.4392L10.3204 22.6968L10.0546 22.9237L9.7042 23.2254L9.48255 23.4165C8.43298 23.2048 7.43369 22.8529 6.50674 22.3807L6.67888 22.2329L6.95231 21.9983L7.17472 21.8064L9.67601 19.6562L9.8451 19.5107L10.6197 18.8458L10.7698 18.7156L11.3585 18.2106L11.6 18.0042L12.6138 17.1328L12.8423 16.9363L17.1784 13.2095L17.3254 13.0838H17.3269L19.1869 11.4836L19.3773 11.319L22.3958 8.72558L22.5801 8.56792L22.929 8.26706L22.9884 8.21603C23.2999 9.21305 23.4804 10.268 23.5116 11.3594L23.5109 11.3602Z" fill="url(#paint8_linear_0_634)"/>
<path d="M23.517 11.9413C23.517 18.4063 18.276 23.6473 11.8102 23.6473C11.0135 23.6473 10.2351 23.5673 9.48333 23.4158C8.43375 23.204 7.43447 22.8521 6.50752 22.3799C4.63612 21.4271 3.05338 19.986 1.93145 18.2243C1.086 16.8975 0.499528 15.3886 0.245894 13.7693C0.151448 13.1737 0.103455 12.5628 0.103455 11.9413C0.103455 11.9131 0.103455 11.8857 0.104217 11.8575V11.7897C0.185715 5.3933 5.39472 0.233795 11.8094 0.233795C13.0075 0.233795 14.163 0.413548 15.2507 0.747918C16.8083 1.22624 18.2265 2.02066 19.4322 3.05576C21.0294 4.42751 22.2534 6.22275 22.9282 8.26705C23.2527 9.2496 23.4507 10.2893 23.5033 11.367C23.5094 11.5072 23.5147 11.6481 23.5162 11.7897V11.8575C23.517 11.8857 23.517 11.9131 23.517 11.9413Z" fill="url(#paint9_linear_0_634)" style="mix-blend-mode:difference"/>
<defs>
<linearGradient id="paint0_linear_0_634" x1="7.99733" y1="23.0129" x2="15.6223" y2="0.869054" gradientUnits="userSpaceOnUse">
<stop stop-color="#A7A7A7"/>
<stop offset="0.51" stop-color="#BABABA"/>
<stop offset="1" stop-color="#D2D2D2"/>
</linearGradient>
<linearGradient id="paint1_linear_0_634" x1="11.8019" y1="1.1326" x2="11.8019" y2="22.7966" gradientUnits="userSpaceOnUse">
<stop stop-color="#3B3B3B"/>
<stop offset="0.22" stop-color="#4F4F4F"/>
<stop offset="0.58" stop-color="#787878"/>
<stop offset="1" stop-color="#EAEAEA"/>
</linearGradient>
<linearGradient id="paint2_linear_0_634" x1="8.37511" y1="21.977" x2="15.2758" y2="1.9369" gradientUnits="userSpaceOnUse">
<stop stop-color="#A7A7A7"/>
<stop offset="0.51" stop-color="#BABABA"/>
<stop offset="1" stop-color="#D2D2D2"/>
</linearGradient>
<radialGradient id="paint3_radial_0_634" cx="0" cy="0" r="1" gradientUnits="userSpaceOnUse" gradientTransform="translate(9.6421 11.3724) rotate(19.77) scale(6.2205)">
<stop stop-color="white"/>
<stop offset="0.6" stop-color="#DDDDDD"/>
<stop offset="1" stop-color="#CCCCCC"/>
</radialGradient>
<radialGradient id="paint4_radial_0_634" cx="0" cy="0" r="1" gradientUnits="userSpaceOnUse" gradientTransform="translate(14.2636 12.2144) rotate(19.77) scale(6.17404 6.17404)">
<stop stop-color="white"/>
<stop offset="0.6" stop-color="#DDDDDD"/>
<stop offset="1" stop-color="#CCCCCC"/>
</radialGradient>
<radialGradient id="paint5_radial_0_634" cx="0" cy="0" r="1" gradientUnits="userSpaceOnUse" gradientTransform="translate(11.7866 11.8058) scale(1.04729)">
<stop stop-color="white"/>
<stop offset="0.6" stop-color="#DDDDDD"/>
<stop offset="1" stop-color="#CCCCCC"/>
</radialGradient>
<radialGradient id="paint6_radial_0_634" cx="0" cy="0" r="1" gradientUnits="userSpaceOnUse" gradientTransform="translate(11.891 12.9551) scale(0.31152)">
<stop stop-color="white"/>
<stop offset="0.6" stop-color="#DDDDDD"/>
<stop offset="1" stop-color="#CCCCCC"/>
</radialGradient>
<linearGradient id="paint7_linear_0_634" x1="-3.64926" y1="20.8795" x2="17.2614" y2="1.55836" gradientUnits="userSpaceOnUse">
<stop stop-color="white" stop-opacity="0"/>
<stop offset="1" stop-color="white" stop-opacity="0.3"/>
</linearGradient>
<linearGradient id="paint8_linear_0_634" x1="3.32756" y1="27.6636" x2="24.2032" y2="8.37521" gradientUnits="userSpaceOnUse">
<stop stop-color="white" stop-opacity="0"/>
<stop offset="1" stop-color="white" stop-opacity="0.3"/>
</linearGradient>
<linearGradient id="paint9_linear_0_634" x1="7.99733" y1="23.0128" x2="15.6223" y2="0.869024" gradientUnits="userSpaceOnUse">
<stop stop-color="#EDEDED"/>
<stop offset="0.51" stop-color="#E8E8E8"/>
<stop offset="1" stop-color="#F2F2F2"/>
</linearGradient>
</defs>
</svg>
