<svg width="25" height="24" viewBox="0 0 25 24" fill="none" xmlns="http://www.w3.org/2000/svg">
<path d="M22.3587 5.7455C22.3788 5.7795 22.3997 5.81351 22.4182 5.84751C22.4468 5.89542 22.4747 5.94488 22.5025 5.99357L22.511 6.00748C22.5318 6.04457 22.5512 6.08012 22.5705 6.11644C25.5913 11.6381 23.7196 18.6009 18.2645 21.8428C17.3642 22.3784 16.4221 22.7787 15.46 23.0515C14.4639 23.3335 13.4476 23.4781 12.4361 23.4927C10.4191 23.5206 8.42215 23.0275 6.65091 22.0654C5.34798 21.3583 4.16792 20.4 3.19111 19.2068C2.88122 18.8297 2.59142 18.4286 2.3248 18.0051L2.3163 17.9912C2.28694 17.9433 2.2568 17.8962 2.22821 17.8475C2.20734 17.815 2.18725 17.781 2.16715 17.7462C-1.14582 12.1713 0.685707 4.96421 6.26297 1.64969C7.79851 0.737017 9.45615 0.21538 11.1238 0.0554119C12.6393 -0.0929647 14.1625 0.0585028 15.6045 0.487404C17.5404 1.06004 19.3309 2.13114 20.7706 3.64427C21.3642 4.27024 21.8997 4.97116 22.3595 5.74473L22.3587 5.7455Z" fill="#A37417"/>
<path d="M22.6594 6.2517C25.9731 11.8274 24.1416 19.0329 18.5635 22.3482C17.4855 22.9889 16.3456 23.4379 15.1849 23.7022C14.205 23.9278 13.2104 24.0229 12.2251 23.9943C10.2243 23.9348 8.26219 23.3645 6.53731 22.3374C5.24983 21.5685 4.09605 20.5453 3.15711 19.2857C2.91213 18.958 2.68106 18.6125 2.467 18.2524C2.43686 18.2014 2.40672 18.1512 2.3789 18.0994C2.35958 18.067 2.34103 18.036 2.32403 18.0044L2.31553 17.9904C-0.788783 12.4518 1.07442 5.42017 6.56436 2.1582C7.93452 1.34445 9.40129 0.840584 10.8866 0.627292C12.4198 0.4055 13.9693 0.493599 15.4461 0.866859C17.3959 1.36068 19.2196 2.35063 20.7088 3.78803C21.3804 4.43331 21.9847 5.17055 22.5025 5.99281L22.511 6.00672C22.5303 6.03763 22.5488 6.06854 22.5682 6.10023C22.5713 6.10255 22.5728 6.10563 22.5728 6.10795C22.6029 6.15432 22.6315 6.20224 22.6601 6.25015L22.6594 6.2517Z" fill="#6D3C1B"/>
<path d="M22.4785 5.94719C22.5087 5.9982 22.5396 6.04997 22.5674 6.10098C22.5705 6.1033 22.572 6.10639 22.572 6.1087C25.7575 11.6628 23.9066 18.7609 18.3827 22.0437C17.4105 22.621 16.3897 23.0422 15.3487 23.3142C14.3595 23.5746 13.3518 23.6983 12.351 23.6937C10.3402 23.6882 8.35801 23.1651 6.60454 22.1751C5.30856 21.4456 4.13778 20.4603 3.17565 19.2408C2.89126 18.8807 2.62464 18.5012 2.3789 18.1002C2.34721 18.0515 2.3163 17.9997 2.28616 17.9487C2.26607 17.9155 2.24598 17.8815 2.22743 17.8475C-1.00517 12.2872 0.838717 5.14735 6.38197 1.85293C7.8526 0.978894 9.43451 0.462666 11.0296 0.279514C12.552 0.104089 14.086 0.230056 15.5419 0.635773C17.4824 1.17828 19.2861 2.21691 20.7451 3.6999C21.3719 4.33514 21.9352 5.05152 22.4175 5.8475C22.4383 5.87996 22.4584 5.91396 22.4785 5.94719Z" fill="url(#paint0_linear_0_637)"/>
<path d="M21.7281 6.42093C24.7946 11.5809 23.0983 18.2486 17.9391 21.315C12.7799 24.3815 6.11227 22.6844 3.04582 17.5244C-0.0198563 12.366 1.67643 5.69759 6.83483 2.63191C11.9932 -0.433767 18.6617 1.26252 21.7274 6.42093H21.7281Z" fill="url(#paint1_linear_0_637)" stroke="#281401" stroke-width="0.04" stroke-miterlimit="10"/>
<path d="M21.5419 6.52216C24.5411 11.5685 22.8804 18.0909 17.8348 21.0901C12.7884 24.0893 6.26682 22.4301 3.26761 17.3838C0.268391 12.3374 1.92758 5.81583 6.97393 2.81661C12.0203 -0.182607 18.5427 1.47581 21.5419 6.52216Z" fill="url(#paint2_linear_0_637)"/>
<g style="mix-blend-mode:multiply">
<path d="M21.4012 8.79881C21.3556 8.92787 21.2637 9.01829 21.157 9.09557C20.9422 9.25167 20.6988 9.35213 20.4577 9.45414C20.1184 9.59866 19.7761 9.73312 19.453 9.90855L19.4492 9.91086C19.4159 9.93096 19.3804 9.94719 19.3464 9.96651C18.715 10.3119 18.0798 10.6612 17.5342 11.1357C16.3564 12.1612 15.3541 13.8235 15.5983 15.441C15.6972 16.0963 15.9677 16.6674 16.4523 17.128C16.5342 17.2053 16.6285 17.2694 16.7212 17.332C16.8881 17.4441 17.069 17.4495 17.2405 17.3575C17.4337 17.2555 17.62 17.138 17.8039 17.0213C18.0489 16.866 18.2985 16.723 18.589 16.6713C18.9291 16.6094 19.2962 16.7169 19.5682 16.9263C19.3039 16.8776 19.1107 17.0051 18.9383 17.1651C18.7575 17.3305 18.5898 17.5113 18.4167 17.6836C18.3657 17.7339 18.3124 17.7826 18.2567 17.8266C18.171 17.8946 18.0798 17.9502 17.96 17.9634C18.0025 18.0036 18.0435 18.0368 18.0767 18.077C18.1509 18.1689 18.188 18.2787 18.2111 18.3923C18.2336 18.509 18.2544 18.6272 18.2768 18.7439C18.351 19.1303 18.4747 19.3884 18.8626 19.5917C18.7583 19.5855 18.6547 19.5832 18.5519 19.5739C18.0404 19.5283 17.6601 19.274 17.3943 18.8397C17.29 18.6689 17.1872 18.4982 17.0798 18.3312C16.8904 18.036 16.6277 17.8281 16.2938 17.7176C16.137 17.6651 15.9855 17.6033 15.8425 17.5329C15.8363 17.6921 15.8193 17.8537 15.7908 18.0175C15.7282 18.3629 15.7861 18.6929 15.9546 19.0013C16.0496 19.1759 16.1509 19.3482 16.2506 19.5206C16.5056 19.9611 16.5465 20.417 16.3425 20.8884C16.3016 20.9835 16.2537 21.0754 16.2096 21.1697C16.2173 20.7315 16.0496 20.4997 15.7452 20.2501C15.6532 20.1744 15.5597 20.1002 15.4677 20.0237C15.3796 19.9487 15.3008 19.8637 15.2552 19.7547C15.2367 19.706 15.2266 19.6543 15.2119 19.5978C15.1432 19.6968 15.0504 19.7501 14.95 19.7934C14.8843 19.8212 14.8163 19.8444 14.7475 19.8652C14.5126 19.9356 14.2745 19.9966 14.0427 20.0762C13.8201 20.1519 13.6153 20.2609 13.5319 20.5159C13.4778 20.1767 13.5589 19.8034 13.7753 19.5337C13.96 19.3034 14.2042 19.1527 14.4577 19.0121C14.6478 18.9062 14.841 18.7988 15.0226 18.6774C15.1857 18.5708 15.2668 18.4093 15.2483 18.2091C15.2374 18.0979 15.2266 17.9843 15.1972 17.8753C15.0249 17.23 14.6517 16.7192 14.1238 16.3189C12.8201 15.3312 10.882 15.417 9.41674 15.9618C8.73977 16.2146 8.12926 16.6056 7.52494 16.9943C7.49171 17.0152 7.4608 17.0384 7.42602 17.0592L7.42216 17.0615C7.11381 17.2617 6.83174 17.4989 6.54272 17.7269C6.33793 17.89 6.13314 18.0553 5.89357 18.1697C5.77456 18.2261 5.65091 18.264 5.51645 18.2424C5.3673 18.2176 5.29234 18.1295 5.30702 17.9804C5.31475 17.9023 5.33175 17.8196 5.36266 17.7478C5.43917 17.5708 5.51954 17.3954 5.60763 17.223C5.70192 17.0353 5.76065 16.8421 5.78615 16.6295C5.90439 15.6388 6.30933 14.7833 7.03576 14.0894C7.54967 13.5979 8.16172 13.2694 8.82942 13.036C8.86728 13.0237 8.9067 12.9943 8.93065 12.9634C9.22045 12.5646 9.58289 12.2447 10.0033 11.9912C10.4677 11.7122 10.9693 11.5291 11.5017 11.4309C11.6447 11.4039 11.79 11.3869 11.9353 11.366C11.4716 11.7223 11.0922 12.135 10.8905 12.6952C10.9036 12.7007 10.9082 12.703 10.9121 12.7037C10.933 12.7053 10.9546 12.7068 10.977 12.7076C11.4283 12.73 11.8711 12.805 12.2977 12.9541C12.7081 13.0971 13.0898 13.2741 13.4391 13.485C13.419 13.0778 13.4461 12.6581 13.5172 12.2292C13.5906 11.7833 13.7359 11.3583 13.9322 10.9518C13.9415 10.9317 13.9515 10.9124 13.9592 10.8931C13.9608 10.8892 13.9608 10.8838 13.9623 10.8699C13.3742 10.7787 12.8302 10.9147 12.2954 11.152C12.3827 11.0345 12.4677 10.9147 12.5597 10.8027C12.9005 10.3823 13.3008 10.0291 13.7683 9.75399C14.1911 9.50515 14.6455 9.34054 15.1347 9.2764C15.1733 9.27021 15.2181 9.24935 15.2467 9.2223C15.7707 8.74781 16.3518 8.36682 17.0288 8.15044C17.9855 7.84364 18.9306 7.89696 19.8572 8.26713C20.0558 8.34595 20.2544 8.38691 20.4638 8.39387C20.657 8.39928 20.8502 8.41242 21.0419 8.43019C21.1199 8.43792 21.2011 8.46187 21.273 8.49279C21.4113 8.55075 21.453 8.65971 21.4028 8.8019L21.4012 8.79881Z" fill="#3A2415"/>
<path d="M21.2544 9.02757C21.2088 9.15663 21.1169 9.24705 21.0102 9.32433C20.7954 9.48043 20.552 9.58089 20.3108 9.6829C19.9716 9.82741 19.6292 9.96188 19.3062 10.1373L19.3023 10.1396C19.2691 10.1597 19.2336 10.1759 19.1996 10.1953C18.5682 10.5407 17.933 10.89 17.3874 11.3645C16.2096 12.39 15.2073 14.0523 15.4515 15.6697C15.5504 16.3251 15.8209 16.8962 16.3054 17.3568C16.3874 17.434 16.4816 17.4982 16.5744 17.5608C16.7413 17.6728 16.9221 17.6782 17.0937 17.5863C17.2869 17.4843 17.4731 17.3668 17.6571 17.2501C17.902 17.0948 18.1517 16.9518 18.4422 16.9C18.7823 16.8382 19.1493 16.9456 19.4214 17.1551C19.1571 17.1064 18.9639 17.2339 18.7915 17.3939C18.6107 17.5592 18.443 17.7401 18.2699 17.9124C18.2189 17.9626 18.1656 18.0113 18.1099 18.0554C18.0241 18.1234 17.933 18.179 17.8132 18.1921C17.8557 18.2323 17.8966 18.2656 17.9299 18.3057C18.004 18.3977 18.0411 18.5074 18.0643 18.621C18.0867 18.7377 18.1076 18.856 18.13 18.9727C18.2042 19.3591 18.3278 19.6172 18.7158 19.8204C18.6115 19.8142 18.5079 19.8119 18.4051 19.8027C17.8935 19.7571 17.5133 19.5028 17.2475 19.0685C17.1432 18.8977 17.0404 18.7269 16.933 18.56C16.7436 18.2648 16.4809 18.0569 16.147 17.9464C15.9901 17.8938 15.8387 17.832 15.6957 17.7617C15.6895 17.9209 15.6725 18.0824 15.6439 18.2462C15.5813 18.5917 15.6393 18.9217 15.8078 19.23C15.9028 19.4047 16.0041 19.577 16.1037 19.7493C16.3588 20.1898 16.3997 20.6458 16.1957 21.1172C16.1547 21.2122 16.1068 21.3042 16.0628 21.3985C16.0705 20.9603 15.9028 20.7285 15.5983 20.4788C15.5064 20.4031 15.4129 20.3289 15.3209 20.2524C15.2328 20.1775 15.154 20.0925 15.1084 19.9835C15.0898 19.9348 15.0798 19.883 15.0651 19.8266C14.9963 19.9255 14.9036 19.9788 14.8031 20.0221C14.7374 20.0499 14.6694 20.0731 14.6007 20.094C14.3657 20.1643 14.1277 20.2254 13.8959 20.305C13.6733 20.3807 13.4685 20.4897 13.3851 20.7447C13.331 20.4054 13.4121 20.0322 13.6285 19.7625C13.8132 19.5322 14.0574 19.3815 14.3109 19.2408C14.501 19.135 14.6942 19.0275 14.8758 18.9062C15.0388 18.7996 15.12 18.6381 15.1014 18.4379C15.0906 18.3266 15.0798 18.213 15.0504 18.104C14.8781 17.4588 14.5048 16.9479 13.977 16.5476C12.6733 15.56 10.7351 15.6458 9.26992 16.1906C8.59295 16.4433 7.98244 16.8343 7.37812 17.2231C7.34489 17.2439 7.31398 17.2671 7.2792 17.288L7.27534 17.2903C6.96699 17.4904 6.68492 17.7277 6.3959 17.9557C6.19111 18.1187 5.98632 18.2841 5.74675 18.3985C5.62774 18.4549 5.50409 18.4928 5.36963 18.4711C5.22048 18.4464 5.14552 18.3583 5.1602 18.2091C5.16793 18.1311 5.18493 18.0484 5.21584 17.9765C5.29235 17.7996 5.37272 17.6241 5.46081 17.4518C5.5551 17.264 5.61383 17.0708 5.63933 16.8583C5.75757 15.8676 6.16251 15.0121 6.88894 14.3181C7.40285 13.8266 8.0149 13.4982 8.6826 13.2648C8.72046 13.2524 8.75988 13.2231 8.78383 13.1922C9.07363 12.7934 9.43607 12.4735 9.85647 12.22C10.3209 11.941 10.8225 11.7579 11.3549 11.6597C11.4979 11.6327 11.6432 11.6157 11.7885 11.5948C11.3248 11.9511 10.9453 12.3637 10.7436 12.924C10.7568 12.9294 10.7614 12.9317 10.7653 12.9325C10.7861 12.934 10.8078 12.9356 10.8302 12.9364C11.2815 12.9588 11.7243 13.0337 12.1509 13.1829C12.5613 13.3259 12.943 13.5028 13.2923 13.7138C13.2722 13.3065 13.2993 12.8869 13.3704 12.458C13.4438 12.0121 13.5891 11.5871 13.7854 11.1806C13.7946 11.1605 13.8047 11.1412 13.8124 11.1218C13.814 11.118 13.814 11.1126 13.8155 11.0987C13.2274 11.0075 12.6834 11.1435 12.1486 11.3807C12.2359 11.2633 12.3209 11.1435 12.4129 11.0314C12.7537 10.611 13.154 10.2579 13.6215 9.98275C14.0442 9.73391 14.4987 9.5693 14.9878 9.50516C15.0265 9.49898 15.0713 9.47811 15.0999 9.45106C15.6238 8.97657 16.205 8.59558 16.882 8.3792C17.8387 8.0724 18.7838 8.12572 19.7104 8.49589C19.909 8.57471 20.1076 8.61567 20.317 8.62263C20.5102 8.62804 20.7034 8.64117 20.8951 8.65895C20.9731 8.66668 21.0543 8.69063 21.1261 8.72154C21.2645 8.7795 21.3062 8.88847 21.256 9.03066L21.2544 9.02757Z" fill="url(#paint3_radial_0_637)"/>
<path opacity="0.85" d="M21.2544 9.02757C21.2088 9.15663 21.1169 9.24705 21.0102 9.32433C20.7954 9.48043 20.552 9.58089 20.3108 9.6829C19.9716 9.82741 19.6292 9.96188 19.3062 10.1373L19.3023 10.1396C19.2691 10.1597 19.2336 10.1759 19.1996 10.1953C18.5682 10.5407 17.933 10.89 17.3874 11.3645C16.2096 12.39 15.2073 14.0523 15.4515 15.6697C15.5504 16.3251 15.8209 16.8962 16.3054 17.3568C16.3874 17.434 16.4816 17.4982 16.5744 17.5608C16.7413 17.6728 16.9221 17.6782 17.0937 17.5863C17.2869 17.4843 17.4731 17.3668 17.6571 17.2501C17.902 17.0948 18.1517 16.9518 18.4422 16.9C18.7823 16.8382 19.1493 16.9456 19.4214 17.1551C19.1571 17.1064 18.9639 17.2339 18.7915 17.3939C18.6107 17.5592 18.443 17.7401 18.2699 17.9124C18.2189 17.9626 18.1656 18.0113 18.1099 18.0554C18.0241 18.1234 17.933 18.179 17.8132 18.1921C17.8557 18.2323 17.8966 18.2656 17.9299 18.3057C18.004 18.3977 18.0411 18.5074 18.0643 18.621C18.0867 18.7377 18.1076 18.856 18.13 18.9727C18.2042 19.3591 18.3278 19.6172 18.7158 19.8204C18.6115 19.8142 18.5079 19.8119 18.4051 19.8027C17.8935 19.7571 17.5133 19.5028 17.2475 19.0685C17.1432 18.8977 17.0404 18.7269 16.933 18.56C16.7436 18.2648 16.4809 18.0569 16.147 17.9464C15.9901 17.8938 15.8387 17.832 15.6957 17.7617C15.6895 17.9209 15.6725 18.0824 15.6439 18.2462C15.5813 18.5917 15.6393 18.9217 15.8078 19.23C15.9028 19.4047 16.0041 19.577 16.1037 19.7493C16.3588 20.1898 16.3997 20.6458 16.1957 21.1172C16.1547 21.2122 16.1068 21.3042 16.0628 21.3985C16.0705 20.9603 15.9028 20.7285 15.5983 20.4788C15.5064 20.4031 15.4129 20.3289 15.3209 20.2524C15.2328 20.1775 15.154 20.0925 15.1084 19.9835C15.0898 19.9348 15.0798 19.883 15.0651 19.8266C14.9963 19.9255 14.9036 19.9788 14.8031 20.0221C14.7374 20.0499 14.6694 20.0731 14.6007 20.094C14.3657 20.1643 14.1277 20.2254 13.8959 20.305C13.6733 20.3807 13.4685 20.4897 13.3851 20.7447C13.331 20.4054 13.4121 20.0322 13.6285 19.7625C13.8132 19.5322 14.0574 19.3815 14.3109 19.2408C14.501 19.135 14.6942 19.0275 14.8758 18.9062C15.0388 18.7996 15.12 18.6381 15.1014 18.4379C15.0906 18.3266 15.0798 18.213 15.0504 18.104C14.8781 17.4588 14.5048 16.9479 13.977 16.5476C12.6733 15.56 10.7351 15.6458 9.26992 16.1906C8.59295 16.4433 7.98244 16.8343 7.37812 17.2231C7.34489 17.2439 7.31398 17.2671 7.2792 17.288L7.27534 17.2903C6.96699 17.4904 6.68492 17.7277 6.3959 17.9557C6.19111 18.1187 5.98632 18.2841 5.74675 18.3985C5.62774 18.4549 5.50409 18.4928 5.36963 18.4711C5.22048 18.4464 5.14552 18.3583 5.1602 18.2091C5.16793 18.1311 5.18493 18.0484 5.21584 17.9765C5.29235 17.7996 5.37272 17.6241 5.46081 17.4518C5.5551 17.264 5.61383 17.0708 5.63933 16.8583C5.75757 15.8676 6.16251 15.0121 6.88894 14.3181C7.40285 13.8266 8.0149 13.4982 8.6826 13.2648C8.72046 13.2524 8.75988 13.2231 8.78383 13.1922C9.07363 12.7934 9.43607 12.4735 9.85647 12.22C10.3209 11.941 10.8225 11.7579 11.3549 11.6597C11.4979 11.6327 11.6432 11.6157 11.7885 11.5948C11.3248 11.9511 10.9453 12.3637 10.7436 12.924C10.7568 12.9294 10.7614 12.9317 10.7653 12.9325C10.7861 12.934 10.8078 12.9356 10.8302 12.9364C11.2815 12.9588 11.7243 13.0337 12.1509 13.1829C12.5613 13.3259 12.943 13.5028 13.2923 13.7138C13.2722 13.3065 13.2993 12.8869 13.3704 12.458C13.4438 12.0121 13.5891 11.5871 13.7854 11.1806C13.7946 11.1605 13.8047 11.1412 13.8124 11.1218C13.814 11.118 13.814 11.1126 13.8155 11.0987C13.2274 11.0075 12.6834 11.1435 12.1486 11.3807C12.2359 11.2633 12.3209 11.1435 12.4129 11.0314C12.7537 10.611 13.154 10.2579 13.6215 9.98275C14.0442 9.73391 14.4987 9.5693 14.9878 9.50516C15.0265 9.49898 15.0713 9.47811 15.0999 9.45106C15.6238 8.97657 16.205 8.59558 16.882 8.3792C17.8387 8.0724 18.7838 8.12572 19.7104 8.49589C19.909 8.57471 20.1076 8.61567 20.317 8.62263C20.5102 8.62804 20.7034 8.64117 20.8951 8.65895C20.9731 8.66668 21.0543 8.69063 21.1261 8.72154C21.2645 8.7795 21.3062 8.88847 21.256 9.03066L21.2544 9.02757Z" fill="#724401"/>
<g style="mix-blend-mode:hard-light">
<path opacity="0.85" d="M21.2544 9.02757C21.2088 9.15663 21.1169 9.24705 21.0102 9.32433C20.7954 9.48043 20.552 9.58089 20.3108 9.6829C19.9716 9.82741 19.6292 9.96188 19.3062 10.1373L19.3023 10.1396C19.2691 10.1597 19.2336 10.1759 19.1996 10.1953C18.5682 10.5407 17.933 10.89 17.3874 11.3645C16.2096 12.39 15.2073 14.0523 15.4515 15.6697C15.5504 16.3251 15.8209 16.8962 16.3054 17.3568C16.3874 17.434 16.4816 17.4982 16.5744 17.5608C16.7413 17.6728 16.9221 17.6782 17.0937 17.5863C17.2869 17.4843 17.4731 17.3668 17.6571 17.2501C17.902 17.0948 18.1517 16.9518 18.4422 16.9C18.7823 16.8382 19.1493 16.9456 19.4214 17.1551C19.1571 17.1064 18.9639 17.2339 18.7915 17.3939C18.6107 17.5592 18.443 17.7401 18.2699 17.9124C18.2189 17.9626 18.1656 18.0113 18.1099 18.0554C18.0241 18.1234 17.933 18.179 17.8132 18.1921C17.8557 18.2323 17.8966 18.2656 17.9299 18.3057C18.004 18.3977 18.0411 18.5074 18.0643 18.621C18.0867 18.7377 18.1076 18.856 18.13 18.9727C18.2042 19.3591 18.3278 19.6172 18.7158 19.8204C18.6115 19.8142 18.5079 19.8119 18.4051 19.8027C17.8935 19.7571 17.5133 19.5028 17.2475 19.0685C17.1432 18.8977 17.0404 18.7269 16.933 18.56C16.7436 18.2648 16.4809 18.0569 16.147 17.9464C15.9901 17.8938 15.8387 17.832 15.6957 17.7617C15.6895 17.9209 15.6725 18.0824 15.6439 18.2462C15.5813 18.5917 15.6393 18.9217 15.8078 19.23C15.9028 19.4047 16.0041 19.577 16.1037 19.7493C16.3588 20.1898 16.3997 20.6458 16.1957 21.1172C16.1547 21.2122 16.1068 21.3042 16.0628 21.3985C16.0705 20.9603 15.9028 20.7285 15.5983 20.4788C15.5064 20.4031 15.4129 20.3289 15.3209 20.2524C15.2328 20.1775 15.154 20.0925 15.1084 19.9835C15.0898 19.9348 15.0798 19.883 15.0651 19.8266C14.9963 19.9255 14.9036 19.9788 14.8031 20.0221C14.7374 20.0499 14.6694 20.0731 14.6007 20.094C14.3657 20.1643 14.1277 20.2254 13.8959 20.305C13.6733 20.3807 13.4685 20.4897 13.3851 20.7447C13.331 20.4054 13.4121 20.0322 13.6285 19.7625C13.8132 19.5322 14.0574 19.3815 14.3109 19.2408C14.501 19.135 14.6942 19.0275 14.8758 18.9062C15.0388 18.7996 15.12 18.6381 15.1014 18.4379C15.0906 18.3266 15.0798 18.213 15.0504 18.104C14.8781 17.4588 14.5048 16.9479 13.977 16.5476C12.6733 15.56 10.7351 15.6458 9.26992 16.1906C8.59295 16.4433 7.98244 16.8343 7.37812 17.2231C7.34489 17.2439 7.31398 17.2671 7.2792 17.288L7.27534 17.2903C6.96699 17.4904 6.68492 17.7277 6.3959 17.9557C6.19111 18.1187 5.98632 18.2841 5.74675 18.3985C5.62774 18.4549 5.50409 18.4928 5.36963 18.4711C5.22048 18.4464 5.14552 18.3583 5.1602 18.2091C5.16793 18.1311 5.18493 18.0484 5.21584 17.9765C5.29235 17.7996 5.37272 17.6241 5.46081 17.4518C5.5551 17.264 5.61383 17.0708 5.63933 16.8583C5.75757 15.8676 6.16251 15.0121 6.88894 14.3181C7.40285 13.8266 8.0149 13.4982 8.6826 13.2648C8.72046 13.2524 8.75988 13.2231 8.78383 13.1922C9.07363 12.7934 9.43607 12.4735 9.85647 12.22C10.3209 11.941 10.8225 11.7579 11.3549 11.6597C11.4979 11.6327 11.6432 11.6157 11.7885 11.5948C11.3248 11.9511 10.9453 12.3637 10.7436 12.924C10.7568 12.9294 10.7614 12.9317 10.7653 12.9325C10.7861 12.934 10.8078 12.9356 10.8302 12.9364C11.2815 12.9588 11.7243 13.0337 12.1509 13.1829C12.5613 13.3259 12.943 13.5028 13.2923 13.7138C13.2722 13.3065 13.2993 12.8869 13.3704 12.458C13.4438 12.0121 13.5891 11.5871 13.7854 11.1806C13.7946 11.1605 13.8047 11.1412 13.8124 11.1218C13.814 11.118 13.814 11.1126 13.8155 11.0987C13.2274 11.0075 12.6834 11.1435 12.1486 11.3807C12.2359 11.2633 12.3209 11.1435 12.4129 11.0314C12.7537 10.611 13.154 10.2579 13.6215 9.98275C14.0442 9.73391 14.4987 9.5693 14.9878 9.50516C15.0265 9.49898 15.0713 9.47811 15.0999 9.45106C15.6238 8.97657 16.205 8.59558 16.882 8.3792C17.8387 8.0724 18.7838 8.12572 19.7104 8.49589C19.909 8.57471 20.1076 8.61567 20.317 8.62263C20.5102 8.62804 20.7034 8.64117 20.8951 8.65895C20.9731 8.66668 21.0543 8.69063 21.1261 8.72154C21.2645 8.7795 21.3062 8.88847 21.256 9.03066L21.2544 9.02757Z" fill="#663703"/>
</g>
<path d="M10.9415 4.3529L9.10453 3.84749L7.39511 3.37686V3.37995C7.36342 3.50514 6.54658 6.83744 6.54581 6.83976C6.38816 7.48504 6.58522 8.2416 7.11226 8.65428C7.18491 8.71301 7.26451 8.76324 7.35029 8.80729C7.42834 8.84748 7.50948 8.87916 7.59294 8.90389C7.59603 8.90466 7.5999 8.90544 7.60299 8.90621C8.13158 9.06927 8.74982 8.96262 9.20345 8.6566C9.66094 8.3498 10.0558 7.72538 9.91133 7.15506C9.83868 6.87144 9.6308 6.6481 9.39356 6.48736C9.39356 6.48736 9.23204 6.3498 8.97779 6.31271C8.722 6.27252 8.37192 6.33435 7.99789 6.73775L7.82324 6.9379H7.82246L7.35492 7.47499C7.27532 7.55923 7.15013 7.54995 7.07749 7.48426C7.03653 7.45026 7.0118 7.40081 7.01489 7.33898C7.01798 7.25088 7.16636 6.94254 7.23823 6.79184C7.23823 6.79184 7.2761 6.5685 7.29078 6.34208C7.31242 5.98504 7.45384 5.64115 7.71813 5.39926C7.91829 5.21766 8.21041 5.05228 8.63467 4.98041C8.87655 4.93868 9.16017 4.92786 9.49634 4.95954C9.55816 4.96495 9.62076 4.95723 9.67562 4.93018C9.75677 4.89077 9.89896 4.83976 10.0698 4.85908C10.256 4.8784 10.4755 4.98273 10.6872 5.27716C10.6872 5.27716 10.3047 5.14579 9.94688 5.38149C9.94069 5.38536 9.93451 5.38999 9.92833 5.39386C9.92833 5.39386 9.94765 5.39231 9.98088 5.39386C10.1045 5.40545 10.4221 5.48118 10.6378 5.9634C10.6378 5.9634 10.8812 6.44409 10.6895 7.13496C10.6486 7.28643 10.7189 7.42708 10.8333 7.4974C10.916 7.54764 11.0203 7.56154 11.1223 7.51827L11.1285 7.51595C11.7691 7.2447 12.1022 6.56232 12.0906 5.88999C12.0759 5.16047 11.664 4.55074 10.9422 4.3529H10.9415ZM7.70191 3.89154L8.34642 4.09788L8.22354 4.76944L8.04503 4.71689L7.5628 4.57315L7.70036 3.90391L7.70268 3.89231L7.70191 3.89154Z" fill="#3A2415"/>
<path d="M11.7521 8.3073C11.7861 8.36449 11.7668 8.4379 11.7104 8.4719L10.2089 9.36448C10.1517 9.39848 10.0782 9.37917 10.0442 9.32275C10.0234 9.28798 10.0218 9.24315 10.0404 9.20683C10.0713 9.14501 10.1532 9.11719 10.1988 9.06464C10.2405 9.01672 10.2714 8.96031 10.2923 8.90003C10.3356 8.77484 10.3395 8.63883 10.3371 8.50822C10.3356 8.44949 10.3333 8.39076 10.331 8.33203C10.324 8.13033 10.3078 7.92708 10.2753 7.72693C10.5133 7.9379 10.773 8.10792 11.0527 8.25784C11.1633 8.31734 11.2892 8.3444 11.4136 8.3243C11.4762 8.31426 11.5357 8.29262 11.5922 8.26402C11.6486 8.23543 11.7189 8.24857 11.7529 8.30652L11.7521 8.3073Z" fill="#3A2415"/>
<path d="M10.7614 4.30655L9.10299 3.84982L7.39589 3.37996L7.2166 3.33051C7.2166 3.33051 6.36884 6.79108 6.3673 6.7934C6.19496 7.49819 6.44612 8.33667 7.08831 8.71611C7.11536 8.73234 7.14318 8.7478 7.17255 8.76248C7.30547 8.82894 7.44766 8.87608 7.59527 8.9039C7.59836 8.90468 7.60222 8.90545 7.60531 8.90622C8.09063 8.99586 8.62308 8.88149 9.02571 8.61101C9.4832 8.30421 9.8781 7.67979 9.73359 7.10947C9.66095 6.82586 9.45306 6.60252 9.21582 6.44178C9.21582 6.44178 9.12772 6.36759 8.98011 6.31349C8.75678 6.23003 8.39743 6.19448 7.99712 6.52447H7.99635C7.93839 6.57238 7.87965 6.62802 7.82015 6.69216L7.17796 7.42786C7.14936 7.458 7.11459 7.47578 7.07981 7.48351C6.96235 7.51133 6.83097 7.42864 6.83638 7.29262C6.84025 7.20607 6.98862 6.89618 7.05972 6.74548C7.05972 6.74548 7.09759 6.52215 7.11227 6.29572C7.13391 5.93869 7.2761 5.5948 7.53962 5.35291C7.77146 5.14194 8.12618 4.95492 8.66636 4.90778C8.85801 4.88846 9.07439 4.89001 9.31705 4.91319C9.37965 4.92015 9.44147 4.91087 9.49634 4.88382C9.60531 4.83127 9.82246 4.75708 10.0705 4.85909C10.2104 4.91551 10.3626 5.02834 10.5072 5.23081C10.5072 5.23081 10.1107 5.09402 9.74904 5.3475C9.74904 5.3475 9.83096 5.33977 9.94688 5.3815C9.9577 5.38537 9.96929 5.39 9.98088 5.39464C10.1269 5.45646 10.3147 5.59789 10.4577 5.91782C10.4577 5.91782 10.7004 6.39927 10.5079 7.09015C10.4477 7.30963 10.6246 7.50746 10.8325 7.49819C10.8681 7.49587 10.9051 7.48814 10.9415 7.47269L10.9477 7.47037C11.5898 7.19834 11.9214 6.51674 11.9098 5.84441C11.8951 5.11489 11.4832 4.50515 10.7614 4.30732V4.30655ZM8.04349 4.72308L7.38275 4.52679L7.52185 3.84596L7.70037 3.90315L8.16791 4.05152L8.04503 4.7169L8.04349 4.72385V4.72308Z" fill="url(#paint4_radial_0_637)"/>
<path d="M11.5721 8.26171C11.6061 8.31889 11.5868 8.3923 11.5303 8.42631L10.0288 9.31889C9.97161 9.35289 9.8982 9.33357 9.86419 9.27715C9.84333 9.24238 9.84178 9.19756 9.86033 9.16123C9.89124 9.09941 9.97316 9.07159 10.0188 9.01904C10.0605 8.97113 10.0914 8.91472 10.1123 8.85444C10.1555 8.72924 10.1594 8.59323 10.1571 8.46263C10.1555 8.4039 10.1532 8.34516 10.1509 8.28643C10.1439 8.08473 10.1277 7.88149 10.0953 7.68134C10.3333 7.89231 10.5929 8.06232 10.8727 8.21225C10.9832 8.27175 11.1092 8.2988 11.2336 8.2787C11.2962 8.26866 11.3557 8.24702 11.4121 8.21842C11.4685 8.18983 11.5388 8.20297 11.5728 8.26093L11.5721 8.26171Z" fill="url(#paint5_radial_0_637)"/>
<g opacity="0.85">
<path d="M10.7614 4.30655L9.10299 3.84982L7.39589 3.37996L7.2166 3.33051C7.2166 3.33051 6.36884 6.79108 6.3673 6.7934C6.19496 7.49819 6.44612 8.33667 7.08831 8.71611C7.11536 8.73234 7.14318 8.7478 7.17255 8.76248C7.30547 8.82894 7.44766 8.87608 7.59527 8.9039C7.59836 8.90468 7.60222 8.90545 7.60531 8.90622C8.09063 8.99586 8.62308 8.88149 9.02571 8.61101C9.4832 8.30421 9.8781 7.67979 9.73359 7.10947C9.66095 6.82586 9.45306 6.60252 9.21582 6.44178C9.21582 6.44178 9.12772 6.36759 8.98011 6.31349C8.75678 6.23003 8.39743 6.19448 7.99712 6.52447H7.99635C7.93839 6.57238 7.87965 6.62802 7.82015 6.69216L7.17796 7.42786C7.14936 7.458 7.11459 7.47578 7.07981 7.48351C6.96235 7.51133 6.83097 7.42864 6.83638 7.29262C6.84025 7.20607 6.98862 6.89618 7.05972 6.74548C7.05972 6.74548 7.09759 6.52215 7.11227 6.29572C7.13391 5.93869 7.2761 5.5948 7.53962 5.35291C7.77146 5.14194 8.12618 4.95492 8.66636 4.90778C8.85801 4.88846 9.07439 4.89001 9.31705 4.91319C9.37965 4.92015 9.44147 4.91087 9.49634 4.88382C9.60531 4.83127 9.82246 4.75708 10.0705 4.85909C10.2104 4.91551 10.3626 5.02834 10.5072 5.23081C10.5072 5.23081 10.1107 5.09402 9.74904 5.3475C9.74904 5.3475 9.83096 5.33977 9.94688 5.3815C9.9577 5.38537 9.96929 5.39 9.98088 5.39464C10.1269 5.45646 10.3147 5.59789 10.4577 5.91782C10.4577 5.91782 10.7004 6.39927 10.5079 7.09015C10.4477 7.30963 10.6246 7.50746 10.8325 7.49819C10.8681 7.49587 10.9051 7.48814 10.9415 7.47269L10.9477 7.47037C11.5898 7.19834 11.9214 6.51674 11.9098 5.84441C11.8951 5.11489 11.4832 4.50515 10.7614 4.30732V4.30655ZM8.04349 4.72308L7.38275 4.52679L7.52185 3.84596L7.70037 3.90315L8.16791 4.05152L8.04503 4.7169L8.04349 4.72385V4.72308Z" fill="#724401"/>
<path d="M11.5721 8.26171C11.6061 8.31889 11.5868 8.3923 11.5303 8.42631L10.0288 9.31889C9.97161 9.35289 9.8982 9.33357 9.86419 9.27715C9.84333 9.24238 9.84178 9.19756 9.86033 9.16123C9.89124 9.09941 9.97316 9.07159 10.0188 9.01904C10.0605 8.97113 10.0914 8.91472 10.1123 8.85444C10.1555 8.72924 10.1594 8.59323 10.1571 8.46263C10.1555 8.4039 10.1532 8.34516 10.1509 8.28643C10.1439 8.08473 10.1277 7.88149 10.0953 7.68134C10.3333 7.89231 10.5929 8.06232 10.8727 8.21225C10.9832 8.27175 11.1092 8.2988 11.2336 8.2787C11.2962 8.26866 11.3557 8.24702 11.4121 8.21842C11.4685 8.18983 11.5388 8.20297 11.5728 8.26093L11.5721 8.26171Z" fill="#724401"/>
</g>
<g opacity="0.85">
<path d="M10.7614 4.30655L9.10299 3.84982L7.39589 3.37996L7.2166 3.33051C7.2166 3.33051 6.36884 6.79108 6.3673 6.7934C6.19496 7.49819 6.44612 8.33667 7.08831 8.71611C7.11536 8.73234 7.14318 8.7478 7.17255 8.76248C7.30547 8.82894 7.44766 8.87608 7.59527 8.9039C7.59836 8.90468 7.60222 8.90545 7.60531 8.90622C8.09063 8.99586 8.62308 8.88149 9.02571 8.61101C9.4832 8.30421 9.8781 7.67979 9.73359 7.10947C9.66095 6.82586 9.45306 6.60252 9.21582 6.44178C9.21582 6.44178 9.12772 6.36759 8.98011 6.31349C8.75678 6.23003 8.39743 6.19448 7.99712 6.52447H7.99635C7.93839 6.57238 7.87965 6.62802 7.82015 6.69216L7.17796 7.42786C7.14936 7.458 7.11459 7.47578 7.07981 7.48351C6.96235 7.51133 6.83097 7.42864 6.83638 7.29262C6.84025 7.20607 6.98862 6.89618 7.05972 6.74548C7.05972 6.74548 7.09759 6.52215 7.11227 6.29572C7.13391 5.93869 7.2761 5.5948 7.53962 5.35291C7.77146 5.14194 8.12618 4.95492 8.66636 4.90778C8.85801 4.88846 9.07439 4.89001 9.31705 4.91319C9.37965 4.92015 9.44147 4.91087 9.49634 4.88382C9.60531 4.83127 9.82246 4.75708 10.0705 4.85909C10.2104 4.91551 10.3626 5.02834 10.5072 5.23081C10.5072 5.23081 10.1107 5.09402 9.74904 5.3475C9.74904 5.3475 9.83096 5.33977 9.94688 5.3815C9.9577 5.38537 9.96929 5.39 9.98088 5.39464C10.1269 5.45646 10.3147 5.59789 10.4577 5.91782C10.4577 5.91782 10.7004 6.39927 10.5079 7.09015C10.4477 7.30963 10.6246 7.50746 10.8325 7.49819C10.8681 7.49587 10.9051 7.48814 10.9415 7.47269L10.9477 7.47037C11.5898 7.19834 11.9214 6.51674 11.9098 5.84441C11.8951 5.11489 11.4832 4.50515 10.7614 4.30732V4.30655ZM8.04349 4.72308L7.38275 4.52679L7.52185 3.84596L7.70037 3.90315L8.16791 4.05152L8.04503 4.7169L8.04349 4.72385V4.72308Z" fill="#663703"/>
<path d="M11.5721 8.26171C11.6061 8.31889 11.5868 8.3923 11.5303 8.42631L10.0288 9.31889C9.97161 9.35289 9.8982 9.33357 9.86419 9.27715C9.84333 9.24238 9.84178 9.19756 9.86033 9.16123C9.89124 9.09941 9.97316 9.07159 10.0188 9.01904C10.0605 8.97113 10.0914 8.91472 10.1123 8.85444C10.1555 8.72924 10.1594 8.59323 10.1571 8.46263C10.1555 8.4039 10.1532 8.34516 10.1509 8.28643C10.1439 8.08473 10.1277 7.88149 10.0953 7.68134C10.3333 7.89231 10.5929 8.06232 10.8727 8.21225C10.9832 8.27175 11.1092 8.2988 11.2336 8.2787C11.2962 8.26866 11.3557 8.24702 11.4121 8.21842C11.4685 8.18983 11.5388 8.20297 11.5728 8.26093L11.5721 8.26171Z" fill="#663703"/>
</g>
</g>
<path d="M15.6037 0.487393L15.5419 0.635771L15.4453 0.866836L15.1926 1.47657L15.1107 1.67518L10.9886 11.6079L10.9082 11.8042L9.22895 15.8498L9.15167 16.036L7.03808 21.1303L6.93607 21.376L6.64936 22.0661L6.60377 22.1767L6.53731 22.3389C5.24983 21.57 4.09605 20.5468 3.1571 19.2872L3.17565 19.2424L3.19033 19.2076L3.56128 18.3127L3.67951 18.0244L7.44457 8.93481L7.46853 8.87685L8.13081 7.27717H8.13158L8.29001 6.89154H8.29078L8.88661 5.45183L8.91443 5.38459L9.32246 4.39851L9.32478 4.39542L10.528 1.49048L10.6277 1.2486L10.8843 0.628043L11.028 0.280285L11.1208 0.0561748C12.6362 -0.0922018 14.1594 0.0592657 15.6014 0.488167L15.6037 0.487393Z" fill="url(#paint6_linear_0_637)"/>
<path d="M22.4175 5.8475C22.4383 5.87995 22.4584 5.91396 22.4785 5.94719C22.5087 5.99819 22.5396 6.04997 22.5674 6.10097C22.5705 6.10329 22.572 6.10638 22.572 6.1087L22.5697 6.11566L22.1308 7.1597L22.0203 7.42245L18.2784 16.3366L18.1895 16.5468L17.8047 17.4641L17.7367 17.6272L17.7104 17.689L17.6006 17.9487L17.2946 18.679L17.1911 18.9255L15.9044 21.9912L15.7738 22.3003L15.4585 23.0522L15.3479 23.315L15.1841 23.7029C14.2042 23.9286 13.2096 24.0236 12.2243 23.995L12.3503 23.6944L12.4345 23.4935L12.7104 22.8374L12.8194 22.577L14.045 19.6573L14.1277 19.4603L14.5079 18.5569L14.5813 18.3799L14.8704 17.6944L14.9886 17.4131L15.4847 16.23L15.5968 15.9634L17.7212 10.9023L17.7938 10.7316H17.7946L18.7057 8.55923L18.7992 8.33667L20.2784 4.8135L20.3688 4.59943L20.708 3.79032L20.7451 3.70144L20.7691 3.64658C21.3626 4.27254 21.8982 4.97346 22.358 5.74703C22.3781 5.78103 22.3989 5.81504 22.4175 5.84904V5.8475Z" fill="url(#paint7_linear_0_637)"/>
<defs>
<linearGradient id="paint0_linear_0_637" x1="14.7668" y1="23.4553" x2="9.99432" y2="0.450317" gradientUnits="userSpaceOnUse">
<stop stop-color="#D3A150"/>
<stop offset="0.42" stop-color="#DDB264"/>
<stop offset="1" stop-color="#EFD186"/>
</linearGradient>
<linearGradient id="paint1_linear_0_637" x1="6.83416" y1="2.63563" x2="17.9365" y2="21.3192" gradientUnits="userSpaceOnUse">
<stop stop-color="#513A01"/>
<stop offset="0.15" stop-color="#65440B"/>
<stop offset="0.46" stop-color="#986024"/>
<stop offset="0.58" stop-color="#AD6B2F"/>
<stop offset="1" stop-color="#FFE6CA"/>
</linearGradient>
<linearGradient id="paint2_linear_0_637" x1="14.5627" y1="22.3675" x2="10.2439" y2="1.54798" gradientUnits="userSpaceOnUse">
<stop stop-color="#D3A150"/>
<stop offset="0.42" stop-color="#DDB264"/>
<stop offset="1" stop-color="#EFD186"/>
</linearGradient>
<radialGradient id="paint3_radial_0_637" cx="0" cy="0" r="1" gradientUnits="userSpaceOnUse" gradientTransform="translate(14.5594 15.8585) rotate(-30.72) scale(7.67694 7.67694)">
<stop stop-color="white"/>
<stop offset="0.6" stop-color="#DDDDDD"/>
<stop offset="1" stop-color="#CCCCCC"/>
</radialGradient>
<radialGradient id="paint4_radial_0_637" cx="0" cy="0" r="1" gradientUnits="userSpaceOnUse" gradientTransform="translate(8.5907 5.70357) rotate(-30.72) scale(2.87943)">
<stop stop-color="white"/>
<stop offset="0.6" stop-color="#DDDDDD"/>
<stop offset="1" stop-color="#CCCCCC"/>
</radialGradient>
<radialGradient id="paint5_radial_0_637" cx="0" cy="0" r="1" gradientUnits="userSpaceOnUse" gradientTransform="translate(10.4267 8.28652) rotate(-30.72) scale(0.853939)">
<stop stop-color="white"/>
<stop offset="0.6" stop-color="#DDDDDD"/>
<stop offset="1" stop-color="#CCCCCC"/>
</radialGradient>
<linearGradient id="paint6_linear_0_637" x1="4.05515" y1="27.8122" x2="12.2317" y2="0.286744" gradientUnits="userSpaceOnUse">
<stop stop-color="white" stop-opacity="0"/>
<stop offset="1" stop-color="white" stop-opacity="0.3"/>
</linearGradient>
<linearGradient id="paint7_linear_0_637" x1="12.8329" y1="30.4197" x2="21.0091" y2="2.89353" gradientUnits="userSpaceOnUse">
<stop stop-color="white" stop-opacity="0"/>
<stop offset="1" stop-color="white" stop-opacity="0.3"/>
</linearGradient>
</defs>
</svg>
