<svg width="60" height="60" viewBox="0 0 60 60" fill="none" xmlns="http://www.w3.org/2000/svg">
<path d="M54.616 14.3638C54.6662 14.4488 54.7184 14.5338 54.7647 14.6188C54.8362 14.7386 54.9058 14.8622 54.9753 14.9839L54.9966 15.0187C55.0487 15.1114 55.097 15.2003 55.1453 15.2911C62.6975 29.0952 58.0182 46.5024 44.3803 54.607C42.1295 55.9459 39.7744 56.9467 37.3691 57.6287C34.8788 58.3338 32.3382 58.6951 29.8092 58.7318C24.7668 58.8014 19.7745 57.5688 15.3464 55.1635C12.0891 53.3957 9.13892 51 6.69688 48.017C5.92216 47.0742 5.19766 46.0715 4.53113 45.0128L4.50987 44.978C4.43646 44.8582 4.36111 44.7404 4.28963 44.6187C4.23747 44.5375 4.18723 44.4525 4.137 44.3656C-4.14543 30.4282 0.433383 12.4105 14.3765 4.12422C18.2154 1.84254 22.3595 0.538451 26.5287 0.13853C30.3174 -0.232412 34.1253 0.146257 37.7304 1.21851C42.57 2.65011 47.0464 5.32785 50.6457 9.11068C52.1295 10.6756 53.4684 12.4279 54.6179 14.3618L54.616 14.3638Z" fill="#A37417"/>
<path d="M55.3675 15.6292C63.6519 29.5685 59.0731 47.5823 45.128 55.8706C42.4329 57.4722 39.5832 58.5947 36.6813 59.2554C34.2316 59.8195 31.7451 60.0572 29.2818 59.9857C24.2799 59.8369 19.3746 58.4111 15.0624 55.8435C11.8437 53.9212 8.95924 51.3632 6.61188 48.2141C5.99944 47.3949 5.42178 46.5313 4.88662 45.631C4.81127 45.5035 4.73592 45.3779 4.66637 45.2485C4.61807 45.1674 4.5717 45.0901 4.5292 45.0109L4.50795 44.9761C-3.25284 31.1295 1.40517 13.5504 15.13 5.39547C18.5554 3.36108 22.2223 2.10143 25.9356 1.5682C29.7687 1.01372 33.6423 1.23397 37.3343 2.16712C42.2087 3.40166 46.7682 5.87654 50.4912 9.47003C52.1701 11.0832 53.6809 12.9264 54.9753 14.982L54.9966 15.0168C55.0449 15.094 55.0912 15.1713 55.1395 15.2505C55.1473 15.2563 55.1511 15.2641 55.1511 15.2699C55.2265 15.3858 55.298 15.5056 55.3694 15.6253L55.3675 15.6292Z" fill="#6D3C1B"/>
<path d="M54.9154 14.868C54.9908 14.9955 55.0681 15.125 55.1376 15.2525C55.1453 15.2583 55.1492 15.266 55.1492 15.2718C63.1128 29.157 58.4857 46.9023 44.6759 55.1094C42.2455 56.5526 39.6933 57.6055 37.0909 58.2856C34.618 58.9366 32.0987 59.2458 29.5967 59.2342C24.5697 59.2206 19.6142 57.9127 15.2305 55.4378C11.9905 53.614 9.06357 51.1507 6.65825 48.102C5.94728 47.2017 5.28074 46.2531 4.66637 45.2504C4.58716 45.1287 4.50988 44.9993 4.43454 44.8718C4.3843 44.7887 4.33407 44.7037 4.2877 44.6187C-3.7938 30.718 0.815924 12.8684 14.6741 4.63234C18.3506 2.44727 22.3054 1.1567 26.293 0.698815C30.0991 0.260254 33.934 0.575171 37.5739 1.58946C42.4251 2.94572 46.9344 5.54231 50.582 9.24979C52.1488 10.8379 53.5572 12.6288 54.7628 14.6188C54.815 14.6999 54.8652 14.7849 54.9154 14.868Z" fill="url(#paint0_linear_0_575)"/>
<path d="M53.0395 16.0523C60.7056 28.9522 56.4649 45.6214 43.5669 53.2875C30.669 60.9536 13.9998 56.711 6.33367 43.8111C-1.33052 30.9151 2.91019 14.244 15.8062 6.57979C28.7022 -1.0844 45.3733 3.15632 53.0375 16.0523H53.0395Z" fill="url(#paint1_linear_0_575)" stroke="#281401" stroke-width="0.04" stroke-miterlimit="10"/>
<path d="M52.5738 16.3054C60.0719 28.9213 55.9201 45.2273 43.3061 52.7253C30.6902 60.2233 14.3862 56.0754 6.88815 43.4595C-0.609891 30.8436 3.53809 14.5396 16.154 7.04153C28.7698 -0.456517 45.0758 3.68953 52.5738 16.3054Z" fill="url(#paint2_linear_0_575)"/>
<g style="mix-blend-mode:multiply">
<path d="M52.2222 21.997C52.1082 22.3197 51.8783 22.5457 51.6117 22.7389C51.0746 23.1292 50.4661 23.3803 49.8633 23.6354C49.0151 23.9966 48.1593 24.3328 47.3517 24.7714L47.342 24.7772C47.259 24.8274 47.1701 24.868 47.0851 24.9163C45.5067 25.7799 43.9186 26.6531 42.5546 27.8394C39.6102 30.4031 37.1044 34.5588 37.715 38.6025C37.9622 40.2408 38.6384 41.6685 39.8498 42.82C40.0546 43.0132 40.2903 43.1735 40.5221 43.33C40.9394 43.6102 41.3915 43.6237 41.8204 43.3938C42.3034 43.1388 42.769 42.8451 43.2288 42.5534C43.8413 42.165 44.4653 41.8076 45.1917 41.6782C46.0418 41.5236 46.9595 41.7922 47.6396 42.3157C46.9788 42.194 46.4958 42.5128 46.065 42.9127C45.6129 43.3262 45.1937 43.7783 44.7609 44.2091C44.6334 44.3347 44.5001 44.4564 44.361 44.5665C44.1465 44.7365 43.9186 44.8756 43.6191 44.9085C43.7254 45.0089 43.8278 45.092 43.9108 45.1925C44.0963 45.4224 44.189 45.6967 44.247 45.9807C44.303 46.2724 44.3552 46.568 44.4112 46.8598C44.5967 47.8258 44.9058 48.4711 45.8757 48.9792C45.6148 48.9637 45.356 48.9579 45.099 48.9347C43.82 48.8207 42.8695 48.1851 42.2049 47.0993C41.9441 46.6724 41.6871 46.2454 41.4186 45.8281C40.9452 45.0901 40.2884 44.5704 39.4537 44.2941C39.0615 44.1627 38.6829 44.0082 38.3255 43.8323C38.31 44.2303 38.2675 44.6341 38.196 45.0437C38.0395 45.9073 38.1844 46.7323 38.6056 47.5031C38.8432 47.9398 39.0963 48.3706 39.3456 48.8014C39.9831 49.9026 40.0855 51.0425 39.5755 52.221C39.4731 52.4587 39.3533 52.6886 39.2432 52.9243C39.2625 51.8288 38.8432 51.2492 38.082 50.6252C37.8521 50.4359 37.6184 50.2504 37.3884 50.0591C37.1682 49.8717 36.9711 49.6592 36.8572 49.3868C36.8108 49.2651 36.7857 49.1356 36.749 48.9946C36.577 49.2419 36.3452 49.3752 36.094 49.4834C35.9298 49.553 35.7598 49.6109 35.5878 49.6631C35.0005 49.8389 34.4055 49.9915 33.8259 50.1905C33.2694 50.3798 32.7575 50.6523 32.5488 51.2898C32.4136 50.4417 32.6164 49.5085 33.1574 48.8343C33.6191 48.2585 34.2296 47.8818 34.8633 47.5302C35.3386 47.2655 35.8216 46.9969 36.2756 46.6936C36.6833 46.427 36.8861 46.0232 36.8398 45.5228C36.8127 45.2446 36.7857 44.9606 36.7123 44.6882C36.2814 43.075 35.3483 41.798 34.0287 40.7972C30.7695 38.3281 25.924 38.5426 22.261 39.9046C20.5686 40.5364 19.0423 41.514 17.5315 42.4858C17.4484 42.5379 17.3711 42.5959 17.2842 42.648L17.2745 42.6538C16.5037 43.1542 15.7985 43.7473 15.0759 44.3173C14.5639 44.7249 14.052 45.1384 13.4531 45.4243C13.1555 45.5653 12.8464 45.66 12.5102 45.6059C12.1374 45.5441 11.95 45.3238 11.9867 44.951C12.006 44.7558 12.0485 44.5491 12.1258 44.3694C12.317 43.927 12.518 43.4885 12.7382 43.0576C12.9739 42.5881 13.1208 42.1052 13.1845 41.5739C13.4801 39.097 14.4925 36.9583 16.3085 35.2234C17.5933 33.9947 19.1234 33.1736 20.7927 32.5901C20.8873 32.5592 20.9859 32.4858 21.0458 32.4085C21.7703 31.4116 22.6764 30.6118 23.7274 29.9781C24.8885 29.2806 26.1423 28.8227 27.4735 28.5774C27.8309 28.5098 28.1941 28.4673 28.5573 28.4151C27.3981 29.3057 26.4495 30.3374 25.9453 31.7381C25.9781 31.7516 25.9897 31.7574 25.9994 31.7594C26.0515 31.7632 26.1056 31.7671 26.1617 31.769C27.2899 31.825 28.397 32.0125 29.4634 32.3853C30.4893 32.7427 31.4437 33.1852 32.317 33.7126C32.2667 32.6944 32.3344 31.6454 32.5121 30.5731C32.6956 29.4584 33.0589 28.3958 33.5496 27.3795C33.5728 27.3293 33.5979 27.281 33.6172 27.2327C33.6211 27.2231 33.6211 27.2095 33.6249 27.1748C32.1547 26.9468 30.7946 27.2868 29.4576 27.8799C29.676 27.5863 29.8885 27.2868 30.1184 27.0067C30.9704 25.9557 31.9712 25.0728 33.14 24.385C34.1968 23.7629 35.3328 23.3513 36.5558 23.191C36.6524 23.1755 36.7644 23.1234 36.8359 23.0558C38.1458 21.8695 39.5986 20.9171 41.2911 20.3761C43.6829 19.6091 46.0457 19.7424 48.3621 20.6678C48.8587 20.8649 49.3552 20.9673 49.8787 20.9847C50.3617 20.9982 50.8447 21.031 51.3239 21.0755C51.519 21.0948 51.7219 21.1547 51.9015 21.232C52.2474 21.3769 52.3517 21.6493 52.2261 22.0048L52.2222 21.997Z" fill="#3A2415"/>
<path d="M51.8552 22.5689C51.7412 22.8915 51.5113 23.1176 51.2446 23.3108C50.7076 23.7011 50.099 23.9522 49.4962 24.2072C48.6481 24.5685 47.7922 24.9047 46.9846 25.3432L46.975 25.349C46.8919 25.3993 46.803 25.4398 46.718 25.4881C45.1396 26.3517 43.5515 27.225 42.1875 28.4112C39.2431 30.975 36.7374 35.1307 37.3479 39.1743C37.5952 40.8127 38.2714 42.2404 39.4827 43.3919C39.6875 43.5851 39.9232 43.7454 40.1551 43.9019C40.5724 44.182 41.0244 44.1956 41.4533 43.9657C41.9363 43.7106 42.4019 43.417 42.8618 43.1252C43.4742 42.7369 44.0982 42.3795 44.8247 42.2501C45.6747 42.0955 46.5924 42.364 47.2725 42.8876C46.6117 42.7659 46.1288 43.0847 45.6979 43.4846C45.2458 43.898 44.8266 44.3501 44.3938 44.781C44.2663 44.9065 44.133 45.0283 43.9939 45.1384C43.7795 45.3084 43.5515 45.4475 43.252 45.4803C43.3583 45.5808 43.4607 45.6639 43.5438 45.7643C43.7292 45.9942 43.822 46.2686 43.8799 46.5526C43.9359 46.8443 43.9881 47.1399 44.0441 47.4316C44.2296 48.3976 44.5387 49.0429 45.5086 49.551C45.2478 49.5356 44.9889 49.5298 44.7319 49.5066C43.453 49.3926 42.5024 48.757 41.8378 47.6712C41.577 47.2442 41.32 46.8173 41.0515 46.4C40.5781 45.6619 39.9213 45.1422 39.0867 44.866C38.6945 44.7346 38.3158 44.58 37.9584 44.4042C37.9429 44.8022 37.9004 45.206 37.8289 45.6156C37.6724 46.4792 37.8173 47.3041 38.2385 48.075C38.4761 48.5116 38.7292 48.9425 38.9785 49.3733C39.616 50.4745 39.7184 51.6144 39.2084 52.7929C39.106 53.0305 38.9862 53.2605 38.8761 53.4962C38.8954 52.4007 38.4762 51.8211 37.7149 51.1971C37.485 51.0078 37.2513 50.8223 37.0214 50.631C36.8011 50.4436 36.6041 50.2311 36.4901 49.9587C36.4437 49.837 36.4186 49.7075 36.3819 49.5665C36.2099 49.8138 35.9781 49.9471 35.7269 50.0553C35.5627 50.1248 35.3927 50.1828 35.2207 50.235C34.6334 50.4108 34.0384 50.5634 33.4588 50.7624C32.9024 50.9517 32.3904 51.2241 32.1817 51.8617C32.0465 51.0135 32.2494 50.0804 32.7903 49.4061C33.2521 48.8304 33.8626 48.4537 34.4963 48.102C34.9715 47.8374 35.4545 47.5688 35.9085 47.2655C36.3162 46.9989 36.5191 46.5951 36.4727 46.0947C36.4456 45.8165 36.4186 45.5325 36.3452 45.2601C35.9143 43.6469 34.9812 42.3698 33.6616 41.3691C30.4024 38.9 25.557 39.1144 21.8939 40.4765C20.2015 41.1083 18.6752 42.0858 17.1644 43.0576C17.0813 43.1098 17.004 43.1678 16.9171 43.2199L16.9074 43.2257C16.1366 43.7261 15.4314 44.3192 14.7088 44.8891C14.1969 45.2968 13.6849 45.7102 13.086 45.9962C12.7884 46.1372 12.4793 46.2319 12.1432 46.1778C11.7703 46.116 11.5829 45.8957 11.6196 45.5228C11.6389 45.3277 11.6814 45.121 11.7587 44.9413C11.95 44.4989 12.1509 44.0603 12.3711 43.6295C12.6068 43.16 12.7537 42.677 12.8174 42.1457C13.113 39.6689 14.1254 37.5302 15.9415 35.7953C17.2262 34.5665 18.7564 33.7455 20.4256 33.162C20.5203 33.1311 20.6188 33.0577 20.6787 32.9804C21.4032 31.9835 22.3093 31.1836 23.3603 30.5499C24.5214 29.8525 25.7753 29.3946 27.1064 29.1492C27.4638 29.0816 27.827 29.0391 28.1902 28.987C27.0311 29.8776 26.0825 30.9093 25.5782 32.31C25.611 32.3235 25.6226 32.3293 25.6323 32.3312C25.6845 32.3351 25.7386 32.339 25.7946 32.3409C26.9229 32.3969 28.0299 32.5843 29.0964 32.9572C30.1222 33.3146 31.0766 33.757 31.9499 34.2845C31.8997 33.2663 31.9673 32.2172 32.145 31.145C32.3286 30.0302 32.6918 28.9676 33.1825 27.9514C33.2057 27.9012 33.2308 27.8529 33.2501 27.8046C33.254 27.7949 33.254 27.7814 33.2579 27.7466C31.7876 27.5187 30.4275 27.8587 29.0906 28.4518C29.3089 28.1581 29.5214 27.8587 29.7513 27.5785C30.6033 26.5275 31.6041 25.6446 32.7729 24.9568C33.8297 24.3347 34.9657 23.9232 36.1887 23.7629C36.2853 23.7474 36.3973 23.6952 36.4688 23.6276C37.7787 22.4414 39.2316 21.4889 40.924 20.948C43.3158 20.181 45.6786 20.3143 47.995 21.2397C48.4916 21.4368 48.9881 21.5392 49.5117 21.5565C49.9947 21.5701 50.4776 21.6029 50.9568 21.6473C51.1519 21.6667 51.3548 21.7266 51.5344 21.8038C51.8803 21.9487 51.9846 22.2211 51.859 22.5766L51.8552 22.5689Z" fill="url(#paint3_radial_0_575)"/>
<path opacity="0.85" d="M51.8552 22.5689C51.7412 22.8915 51.5113 23.1176 51.2446 23.3108C50.7076 23.7011 50.099 23.9522 49.4962 24.2072C48.6481 24.5685 47.7922 24.9047 46.9846 25.3432L46.975 25.349C46.8919 25.3993 46.803 25.4398 46.718 25.4881C45.1396 26.3517 43.5515 27.225 42.1875 28.4112C39.2431 30.975 36.7374 35.1307 37.3479 39.1743C37.5952 40.8127 38.2714 42.2404 39.4827 43.3919C39.6875 43.5851 39.9232 43.7454 40.1551 43.9019C40.5724 44.182 41.0244 44.1956 41.4533 43.9657C41.9363 43.7106 42.4019 43.417 42.8618 43.1252C43.4742 42.7369 44.0982 42.3795 44.8247 42.2501C45.6747 42.0955 46.5924 42.364 47.2725 42.8876C46.6117 42.7659 46.1288 43.0847 45.6979 43.4846C45.2458 43.898 44.8266 44.3501 44.3938 44.781C44.2663 44.9065 44.133 45.0283 43.9939 45.1384C43.7795 45.3084 43.5515 45.4475 43.252 45.4803C43.3583 45.5808 43.4607 45.6639 43.5438 45.7643C43.7292 45.9942 43.822 46.2686 43.8799 46.5526C43.9359 46.8443 43.9881 47.1399 44.0441 47.4316C44.2296 48.3976 44.5387 49.0429 45.5086 49.551C45.2478 49.5356 44.9889 49.5298 44.7319 49.5066C43.453 49.3926 42.5024 48.757 41.8378 47.6712C41.577 47.2442 41.32 46.8173 41.0515 46.4C40.5781 45.6619 39.9213 45.1422 39.0867 44.866C38.6945 44.7346 38.3158 44.58 37.9584 44.4042C37.9429 44.8022 37.9004 45.206 37.8289 45.6156C37.6724 46.4792 37.8173 47.3041 38.2385 48.075C38.4761 48.5116 38.7292 48.9425 38.9785 49.3733C39.616 50.4745 39.7184 51.6144 39.2084 52.7929C39.106 53.0305 38.9862 53.2605 38.8761 53.4962C38.8954 52.4007 38.4762 51.8211 37.7149 51.1971C37.485 51.0078 37.2513 50.8223 37.0214 50.631C36.8011 50.4436 36.6041 50.2311 36.4901 49.9587C36.4437 49.837 36.4186 49.7075 36.3819 49.5665C36.2099 49.8138 35.9781 49.9471 35.7269 50.0553C35.5627 50.1248 35.3927 50.1828 35.2207 50.235C34.6334 50.4108 34.0384 50.5634 33.4588 50.7624C32.9024 50.9517 32.3904 51.2241 32.1817 51.8617C32.0465 51.0135 32.2494 50.0804 32.7903 49.4061C33.2521 48.8304 33.8626 48.4537 34.4963 48.102C34.9715 47.8374 35.4545 47.5688 35.9085 47.2655C36.3162 46.9989 36.5191 46.5951 36.4727 46.0947C36.4456 45.8165 36.4186 45.5325 36.3452 45.2601C35.9143 43.6469 34.9812 42.3698 33.6616 41.3691C30.4024 38.9 25.557 39.1144 21.8939 40.4765C20.2015 41.1083 18.6752 42.0858 17.1644 43.0576C17.0813 43.1098 17.004 43.1678 16.9171 43.2199L16.9074 43.2257C16.1366 43.7261 15.4314 44.3192 14.7088 44.8891C14.1969 45.2968 13.6849 45.7102 13.086 45.9962C12.7884 46.1372 12.4793 46.2319 12.1432 46.1778C11.7703 46.116 11.5829 45.8957 11.6196 45.5228C11.6389 45.3277 11.6814 45.121 11.7587 44.9413C11.95 44.4989 12.1509 44.0603 12.3711 43.6295C12.6068 43.16 12.7537 42.677 12.8174 42.1457C13.113 39.6689 14.1254 37.5302 15.9415 35.7953C17.2262 34.5665 18.7564 33.7455 20.4256 33.162C20.5203 33.1311 20.6188 33.0577 20.6787 32.9804C21.4032 31.9835 22.3093 31.1836 23.3603 30.5499C24.5214 29.8525 25.7753 29.3946 27.1064 29.1492C27.4638 29.0816 27.827 29.0391 28.1902 28.987C27.0311 29.8776 26.0825 30.9093 25.5782 32.31C25.611 32.3235 25.6226 32.3293 25.6323 32.3312C25.6845 32.3351 25.7386 32.339 25.7946 32.3409C26.9229 32.3969 28.0299 32.5843 29.0964 32.9572C30.1222 33.3146 31.0766 33.757 31.9499 34.2845C31.8997 33.2663 31.9673 32.2172 32.145 31.145C32.3286 30.0302 32.6918 28.9676 33.1825 27.9514C33.2057 27.9012 33.2308 27.8529 33.2501 27.8046C33.254 27.7949 33.254 27.7814 33.2579 27.7466C31.7876 27.5187 30.4275 27.8587 29.0906 28.4518C29.3089 28.1581 29.5214 27.8587 29.7513 27.5785C30.6033 26.5275 31.6041 25.6446 32.7729 24.9568C33.8297 24.3347 34.9657 23.9232 36.1887 23.7629C36.2853 23.7474 36.3973 23.6952 36.4688 23.6276C37.7787 22.4414 39.2316 21.4889 40.924 20.948C43.3158 20.181 45.6786 20.3143 47.995 21.2397C48.4916 21.4368 48.9881 21.5392 49.5117 21.5565C49.9947 21.5701 50.4776 21.6029 50.9568 21.6473C51.1519 21.6667 51.3548 21.7266 51.5344 21.8038C51.8803 21.9487 51.9846 22.2211 51.859 22.5766L51.8552 22.5689Z" fill="#724401"/>
<g style="mix-blend-mode:hard-light">
<path opacity="0.85" d="M51.8552 22.5689C51.7412 22.8915 51.5113 23.1176 51.2446 23.3108C50.7076 23.7011 50.099 23.9522 49.4962 24.2072C48.6481 24.5685 47.7922 24.9047 46.9846 25.3432L46.975 25.349C46.8919 25.3993 46.803 25.4398 46.718 25.4881C45.1396 26.3517 43.5515 27.225 42.1875 28.4112C39.2431 30.975 36.7374 35.1307 37.3479 39.1743C37.5952 40.8127 38.2714 42.2404 39.4827 43.3919C39.6875 43.5851 39.9232 43.7454 40.1551 43.9019C40.5724 44.182 41.0244 44.1956 41.4533 43.9657C41.9363 43.7106 42.4019 43.417 42.8618 43.1252C43.4742 42.7369 44.0982 42.3795 44.8247 42.2501C45.6747 42.0955 46.5924 42.364 47.2725 42.8876C46.6117 42.7659 46.1288 43.0847 45.6979 43.4846C45.2458 43.898 44.8266 44.3501 44.3938 44.781C44.2663 44.9065 44.133 45.0283 43.9939 45.1384C43.7795 45.3084 43.5515 45.4475 43.252 45.4803C43.3583 45.5808 43.4607 45.6639 43.5438 45.7643C43.7292 45.9942 43.822 46.2686 43.8799 46.5526C43.9359 46.8443 43.9881 47.1399 44.0441 47.4316C44.2296 48.3976 44.5387 49.0429 45.5086 49.551C45.2478 49.5356 44.9889 49.5298 44.7319 49.5066C43.453 49.3926 42.5024 48.757 41.8378 47.6712C41.577 47.2442 41.32 46.8173 41.0515 46.4C40.5781 45.6619 39.9213 45.1422 39.0867 44.866C38.6945 44.7346 38.3158 44.58 37.9584 44.4042C37.9429 44.8022 37.9004 45.206 37.8289 45.6156C37.6724 46.4792 37.8173 47.3041 38.2385 48.075C38.4761 48.5116 38.7292 48.9425 38.9785 49.3733C39.616 50.4745 39.7184 51.6144 39.2084 52.7929C39.106 53.0305 38.9862 53.2605 38.8761 53.4962C38.8954 52.4007 38.4762 51.8211 37.7149 51.1971C37.485 51.0078 37.2513 50.8223 37.0214 50.631C36.8011 50.4436 36.6041 50.2311 36.4901 49.9587C36.4437 49.837 36.4186 49.7075 36.3819 49.5665C36.2099 49.8138 35.9781 49.9471 35.7269 50.0553C35.5627 50.1248 35.3927 50.1828 35.2207 50.235C34.6334 50.4108 34.0384 50.5634 33.4588 50.7624C32.9024 50.9517 32.3904 51.2241 32.1817 51.8617C32.0465 51.0135 32.2494 50.0804 32.7903 49.4061C33.2521 48.8304 33.8626 48.4537 34.4963 48.102C34.9715 47.8374 35.4545 47.5688 35.9085 47.2655C36.3162 46.9989 36.5191 46.5951 36.4727 46.0947C36.4456 45.8165 36.4186 45.5325 36.3452 45.2601C35.9143 43.6469 34.9812 42.3698 33.6616 41.3691C30.4024 38.9 25.557 39.1144 21.8939 40.4765C20.2015 41.1083 18.6752 42.0858 17.1644 43.0576C17.0813 43.1098 17.004 43.1678 16.9171 43.2199L16.9074 43.2257C16.1366 43.7261 15.4314 44.3192 14.7088 44.8891C14.1969 45.2968 13.6849 45.7102 13.086 45.9962C12.7884 46.1372 12.4793 46.2319 12.1432 46.1778C11.7703 46.116 11.5829 45.8957 11.6196 45.5228C11.6389 45.3277 11.6814 45.121 11.7587 44.9413C11.95 44.4989 12.1509 44.0603 12.3711 43.6295C12.6068 43.16 12.7537 42.677 12.8174 42.1457C13.113 39.6689 14.1254 37.5302 15.9415 35.7953C17.2262 34.5665 18.7564 33.7455 20.4256 33.162C20.5203 33.1311 20.6188 33.0577 20.6787 32.9804C21.4032 31.9835 22.3093 31.1836 23.3603 30.5499C24.5214 29.8525 25.7753 29.3946 27.1064 29.1492C27.4638 29.0816 27.827 29.0391 28.1902 28.987C27.0311 29.8776 26.0825 30.9093 25.5782 32.31C25.611 32.3235 25.6226 32.3293 25.6323 32.3312C25.6845 32.3351 25.7386 32.339 25.7946 32.3409C26.9229 32.3969 28.0299 32.5843 29.0964 32.9572C30.1222 33.3146 31.0766 33.757 31.9499 34.2845C31.8997 33.2663 31.9673 32.2172 32.145 31.145C32.3286 30.0302 32.6918 28.9676 33.1825 27.9514C33.2057 27.9012 33.2308 27.8529 33.2501 27.8046C33.254 27.7949 33.254 27.7814 33.2579 27.7466C31.7876 27.5187 30.4275 27.8587 29.0906 28.4518C29.3089 28.1581 29.5214 27.8587 29.7513 27.5785C30.6033 26.5275 31.6041 25.6446 32.7729 24.9568C33.8297 24.3347 34.9657 23.9232 36.1887 23.7629C36.2853 23.7474 36.3973 23.6952 36.4688 23.6276C37.7787 22.4414 39.2316 21.4889 40.924 20.948C43.3158 20.181 45.6786 20.3143 47.995 21.2397C48.4916 21.4368 48.9881 21.5392 49.5117 21.5565C49.9947 21.5701 50.4776 21.6029 50.9568 21.6473C51.1519 21.6667 51.3548 21.7266 51.5344 21.8038C51.8803 21.9487 51.9846 22.2211 51.859 22.5766L51.8552 22.5689Z" fill="#663703"/>
</g>
<path d="M26.0728 10.8823L21.4805 9.61878L17.2069 8.4422V8.44992C17.1277 8.76291 15.0856 17.0936 15.0836 17.0994C14.6895 18.7126 15.1822 20.6041 16.4998 21.6357C16.6814 21.7826 16.8804 21.9082 17.0948 22.0183C17.29 22.1187 17.4928 22.198 17.7015 22.2598C17.7092 22.2617 17.7189 22.2636 17.7266 22.2656C19.0481 22.6732 20.5937 22.4066 21.7277 21.6415C22.8715 20.8745 23.8587 19.3135 23.4974 17.8877C23.3158 17.1786 22.7961 16.6203 22.203 16.2184C22.203 16.2184 21.7992 15.8746 21.1636 15.7818C20.5241 15.6814 19.6489 15.8359 18.7139 16.8444L18.2772 17.3448H18.2753L17.1064 18.6875C16.9074 18.8981 16.5945 18.8749 16.4129 18.7107C16.3105 18.6257 16.2486 18.5021 16.2564 18.3475C16.2641 18.1273 16.635 17.3564 16.8147 16.9797C16.8147 16.9797 16.9094 16.4213 16.9461 15.8552C17.0002 14.9627 17.3537 14.1029 18.0145 13.4982C18.5149 13.0442 19.2451 12.6307 20.3058 12.4511C20.9105 12.3467 21.6196 12.3197 22.46 12.3989C22.6145 12.4124 22.771 12.3931 22.9082 12.3255C23.1111 12.227 23.4665 12.0994 23.8935 12.1477C24.3591 12.196 24.9078 12.4569 25.4372 13.193C25.4372 13.193 24.4808 12.8645 23.5863 13.4538C23.5709 13.4634 23.5554 13.475 23.54 13.4847C23.54 13.4847 23.5882 13.4808 23.6713 13.4847C23.9804 13.5137 24.7745 13.703 25.3135 14.9086C25.3135 14.9086 25.9221 16.1103 25.443 17.8375C25.3406 18.2161 25.5164 18.5677 25.8023 18.7436C26.009 18.8691 26.2699 18.9039 26.5249 18.7957L26.5403 18.7899C28.1419 18.1118 28.9746 16.4058 28.9457 14.725C28.9089 12.9012 27.8792 11.3769 26.0747 10.8823H26.0728ZM17.9739 9.7289L19.5852 10.2447L19.278 11.9236L18.8317 11.7923L17.6261 11.4329L17.97 9.75982L17.9758 9.73083L17.9739 9.7289Z" fill="#3A2415"/>
<path d="M28.0994 20.7683C28.1844 20.9112 28.1361 21.0948 27.9951 21.1798L24.2413 23.4112C24.0983 23.4962 23.9148 23.4479 23.8297 23.3069C23.7776 23.22 23.7737 23.1079 23.8201 23.0171C23.8974 22.8626 24.1022 22.793 24.2161 22.6616C24.3205 22.5418 24.3978 22.4008 24.4499 22.2501C24.5581 21.9371 24.5678 21.5971 24.562 21.2706C24.5581 21.1238 24.5523 20.9769 24.5465 20.8301C24.5291 20.3259 24.4886 19.8177 24.4074 19.3174C25.0025 19.8448 25.6516 20.2698 26.351 20.6446C26.6273 20.7934 26.9422 20.861 27.2532 20.8108C27.4097 20.7857 27.5585 20.7316 27.6995 20.6601C27.8406 20.5886 28.0164 20.6214 28.1014 20.7663L28.0994 20.7683Z" fill="#3A2415"/>
<path d="M25.6226 10.7664L21.4766 9.62459L17.2088 8.44994L16.7606 8.32629C16.7606 8.32629 14.6412 16.9777 14.6374 16.9835C14.2065 18.7455 14.8344 20.8417 16.4399 21.7903C16.5075 21.8309 16.5771 21.8695 16.6505 21.9062C16.9828 22.0724 17.3383 22.1902 17.7073 22.2598C17.715 22.2617 17.7247 22.2636 17.7324 22.2656C18.9457 22.4897 20.2768 22.2038 21.2834 21.5276C22.4271 20.7606 23.4144 19.1995 23.0531 17.7737C22.8715 17.0647 22.3518 16.5063 21.7587 16.1045C21.7587 16.1045 21.5384 15.919 21.1694 15.7838C20.6111 15.5751 19.7127 15.4862 18.7119 16.3112H18.71C18.5651 16.431 18.4183 16.5701 18.2695 16.7304L16.664 18.5697C16.5925 18.645 16.5056 18.6895 16.4186 18.7088C16.125 18.7783 15.7965 18.5716 15.8101 18.2316C15.8197 18.0152 16.1907 17.2405 16.3684 16.8637C16.3684 16.8637 16.4631 16.3054 16.4998 15.7393C16.5539 14.8468 16.9094 13.987 17.5682 13.3823C18.1478 12.8549 19.0346 12.3873 20.385 12.2695C20.8641 12.2212 21.4051 12.225 22.0117 12.283C22.1682 12.3004 22.3228 12.2772 22.46 12.2096C22.7324 12.0782 23.2753 11.8927 23.8954 12.1478C24.2451 12.2888 24.6257 12.5709 24.987 13.077C24.987 13.077 23.9959 12.7351 23.0917 13.3688C23.0917 13.3688 23.2965 13.3495 23.5863 13.4538C23.6134 13.4634 23.6423 13.475 23.6713 13.4866C24.0365 13.6412 24.5059 13.9947 24.8634 14.7946C24.8634 14.7946 25.47 15.9982 24.9889 17.7254C24.8382 18.2741 25.2807 18.7687 25.8004 18.7455C25.8892 18.7397 25.982 18.7204 26.0728 18.6817L26.0882 18.6759C27.6937 17.9959 28.5225 16.2919 28.4936 14.611C28.4569 12.7873 27.4271 11.2629 25.6226 10.7683V10.7664ZM18.8278 11.8077L17.176 11.317L17.5237 9.61493L17.97 9.7579L19.1389 10.1288L18.8317 11.7923L18.8278 11.8097V11.8077Z" fill="url(#paint4_radial_0_575)"/>
<path d="M27.6493 20.6543C27.7343 20.7973 27.686 20.9808 27.545 21.0658L23.7911 23.2973C23.6481 23.3823 23.4646 23.334 23.3796 23.1929C23.3274 23.106 23.3236 22.994 23.3699 22.9031C23.4472 22.7486 23.652 22.679 23.766 22.5477C23.8703 22.4279 23.9476 22.2868 23.9998 22.1362C24.108 21.8232 24.1176 21.4831 24.1118 21.1566C24.108 21.0098 24.1022 20.863 24.0964 20.7161C24.079 20.2119 24.0384 19.7038 23.9573 19.2034C24.5523 19.7308 25.2015 20.1559 25.9008 20.5307C26.1771 20.6794 26.492 20.7471 26.8031 20.6968C26.9596 20.6717 27.1083 20.6176 27.2494 20.5461C27.3904 20.4746 27.5662 20.5075 27.6512 20.6524L27.6493 20.6543Z" fill="url(#paint5_radial_0_575)"/>
<g opacity="0.85">
<path d="M25.6226 10.7664L21.4766 9.62459L17.2088 8.44994L16.7606 8.32629C16.7606 8.32629 14.6412 16.9777 14.6374 16.9835C14.2065 18.7455 14.8344 20.8417 16.4399 21.7903C16.5075 21.8309 16.5771 21.8695 16.6505 21.9062C16.9828 22.0724 17.3383 22.1902 17.7073 22.2598C17.715 22.2617 17.7247 22.2636 17.7324 22.2656C18.9457 22.4897 20.2768 22.2038 21.2834 21.5276C22.4271 20.7606 23.4144 19.1995 23.0531 17.7737C22.8715 17.0647 22.3518 16.5063 21.7587 16.1045C21.7587 16.1045 21.5384 15.919 21.1694 15.7838C20.6111 15.5751 19.7127 15.4862 18.7119 16.3112H18.71C18.5651 16.431 18.4183 16.5701 18.2695 16.7304L16.664 18.5697C16.5925 18.645 16.5056 18.6895 16.4186 18.7088C16.125 18.7783 15.7965 18.5716 15.8101 18.2316C15.8197 18.0152 16.1907 17.2405 16.3684 16.8637C16.3684 16.8637 16.4631 16.3054 16.4998 15.7393C16.5539 14.8468 16.9094 13.987 17.5682 13.3823C18.1478 12.8549 19.0346 12.3873 20.385 12.2695C20.8641 12.2212 21.4051 12.225 22.0117 12.283C22.1682 12.3004 22.3228 12.2772 22.46 12.2096C22.7324 12.0782 23.2753 11.8927 23.8954 12.1478C24.2451 12.2888 24.6257 12.5709 24.987 13.077C24.987 13.077 23.9959 12.7351 23.0917 13.3688C23.0917 13.3688 23.2965 13.3495 23.5863 13.4538C23.6134 13.4634 23.6423 13.475 23.6713 13.4866C24.0365 13.6412 24.5059 13.9947 24.8634 14.7946C24.8634 14.7946 25.47 15.9982 24.9889 17.7254C24.8382 18.2741 25.2807 18.7687 25.8004 18.7455C25.8892 18.7397 25.982 18.7204 26.0728 18.6817L26.0882 18.6759C27.6937 17.9959 28.5225 16.2919 28.4936 14.611C28.4569 12.7873 27.4271 11.2629 25.6226 10.7683V10.7664ZM18.8278 11.8077L17.176 11.317L17.5237 9.61493L17.97 9.7579L19.1389 10.1288L18.8317 11.7923L18.8278 11.8097V11.8077Z" fill="#724401"/>
<path d="M27.6493 20.6543C27.7343 20.7973 27.686 20.9808 27.545 21.0658L23.7911 23.2973C23.6481 23.3823 23.4646 23.334 23.3796 23.1929C23.3274 23.106 23.3236 22.994 23.3699 22.9031C23.4472 22.7486 23.652 22.679 23.766 22.5477C23.8703 22.4279 23.9476 22.2868 23.9998 22.1362C24.108 21.8232 24.1176 21.4831 24.1118 21.1566C24.108 21.0098 24.1022 20.863 24.0964 20.7161C24.079 20.2119 24.0384 19.7038 23.9573 19.2034C24.5523 19.7308 25.2015 20.1559 25.9008 20.5307C26.1771 20.6794 26.492 20.7471 26.8031 20.6968C26.9596 20.6717 27.1083 20.6176 27.2494 20.5461C27.3904 20.4746 27.5662 20.5075 27.6512 20.6524L27.6493 20.6543Z" fill="#724401"/>
</g>
<g opacity="0.85">
<path d="M25.6226 10.7664L21.4766 9.62459L17.2088 8.44994L16.7606 8.32629C16.7606 8.32629 14.6412 16.9777 14.6374 16.9835C14.2065 18.7455 14.8344 20.8417 16.4399 21.7903C16.5075 21.8309 16.5771 21.8695 16.6505 21.9062C16.9828 22.0724 17.3383 22.1902 17.7073 22.2598C17.715 22.2617 17.7247 22.2636 17.7324 22.2656C18.9457 22.4897 20.2768 22.2038 21.2834 21.5276C22.4271 20.7606 23.4144 19.1995 23.0531 17.7737C22.8715 17.0647 22.3518 16.5063 21.7587 16.1045C21.7587 16.1045 21.5384 15.919 21.1694 15.7838C20.6111 15.5751 19.7127 15.4862 18.7119 16.3112H18.71C18.5651 16.431 18.4183 16.5701 18.2695 16.7304L16.664 18.5697C16.5925 18.645 16.5056 18.6895 16.4186 18.7088C16.125 18.7783 15.7965 18.5716 15.8101 18.2316C15.8197 18.0152 16.1907 17.2405 16.3684 16.8637C16.3684 16.8637 16.4631 16.3054 16.4998 15.7393C16.5539 14.8468 16.9094 13.987 17.5682 13.3823C18.1478 12.8549 19.0346 12.3873 20.385 12.2695C20.8641 12.2212 21.4051 12.225 22.0117 12.283C22.1682 12.3004 22.3228 12.2772 22.46 12.2096C22.7324 12.0782 23.2753 11.8927 23.8954 12.1478C24.2451 12.2888 24.6257 12.5709 24.987 13.077C24.987 13.077 23.9959 12.7351 23.0917 13.3688C23.0917 13.3688 23.2965 13.3495 23.5863 13.4538C23.6134 13.4634 23.6423 13.475 23.6713 13.4866C24.0365 13.6412 24.5059 13.9947 24.8634 14.7946C24.8634 14.7946 25.47 15.9982 24.9889 17.7254C24.8382 18.2741 25.2807 18.7687 25.8004 18.7455C25.8892 18.7397 25.982 18.7204 26.0728 18.6817L26.0882 18.6759C27.6937 17.9959 28.5225 16.2919 28.4936 14.611C28.4569 12.7873 27.4271 11.2629 25.6226 10.7683V10.7664ZM18.8278 11.8077L17.176 11.317L17.5237 9.61493L17.97 9.7579L19.1389 10.1288L18.8317 11.7923L18.8278 11.8097V11.8077Z" fill="#663703"/>
<path d="M27.6493 20.6543C27.7343 20.7973 27.686 20.9808 27.545 21.0658L23.7911 23.2973C23.6481 23.3823 23.4646 23.334 23.3796 23.1929C23.3274 23.106 23.3236 22.994 23.3699 22.9031C23.4472 22.7486 23.652 22.679 23.766 22.5477C23.8703 22.4279 23.9476 22.2868 23.9998 22.1362C24.108 21.8232 24.1176 21.4831 24.1118 21.1566C24.108 21.0098 24.1022 20.863 24.0964 20.7161C24.079 20.2119 24.0384 19.7038 23.9573 19.2034C24.5523 19.7308 25.2015 20.1559 25.9008 20.5307C26.1771 20.6794 26.492 20.7471 26.8031 20.6968C26.9596 20.6717 27.1083 20.6176 27.2494 20.5461C27.3904 20.4746 27.5662 20.5075 27.6512 20.6524L27.6493 20.6543Z" fill="#663703"/>
</g>
</g>
<path d="M37.7285 1.2185L37.5739 1.58944L37.3324 2.1671L36.7006 3.69145L36.4959 4.18796L26.1906 29.0198L25.9897 29.5105L21.7915 39.6245L21.5983 40.0901L16.3143 52.8257L16.0593 53.4401L15.3425 55.1654L15.2285 55.4417L15.0624 55.8474C11.8437 53.925 8.95924 51.3671 6.61188 48.218L6.65824 48.1059L6.69495 48.019L7.62231 45.7817L7.9179 45.0611L17.3305 22.337L17.3904 22.1922L19.0461 18.1929H19.0481L19.4441 17.2289H19.4461L20.9356 13.6296L21.0052 13.4615L22.0253 10.9963L22.0311 10.9886L25.0392 3.72622L25.2884 3.12151L25.9298 1.57012L26.2892 0.700727L26.521 0.140452C30.3096 -0.230489 34.1176 0.14818 37.7227 1.22043L37.7285 1.2185Z" fill="url(#paint6_linear_0_575)"/>
<path d="M54.7628 14.6188C54.815 14.6999 54.8652 14.7849 54.9154 14.868C54.9908 14.9955 55.068 15.1249 55.1376 15.2524C55.1453 15.2582 55.1492 15.266 55.1492 15.2718L55.1434 15.2892L54.046 17.8993L53.7697 18.5561L44.4151 40.8416L44.1929 41.3671L43.2308 43.6604L43.0607 44.068L42.9951 44.2226L42.7207 44.8717L41.9556 46.6975L41.6968 47.3138L38.48 54.978L38.1535 55.7508L37.3653 57.6306L37.089 58.2875L36.6794 59.2573C34.2296 59.8215 31.7432 60.0591 29.2799 59.9876L29.5948 59.2361L29.8054 58.7337L30.4951 57.0935L30.7675 56.4424L33.8316 49.1434L34.0384 48.6507L34.9889 46.3922L35.1724 45.9498L35.895 44.2361L36.1906 43.5329L37.4309 40.575L37.7111 39.9085L43.0221 27.2559L43.2037 26.8289H43.2056L45.4835 21.3981L45.7172 20.8417L49.4151 12.0338L49.6411 11.4986L50.4892 9.47581L50.582 9.25362L50.6419 9.11646C52.1256 10.6814 53.4645 12.4337 54.614 14.3676C54.6643 14.4526 54.7164 14.5376 54.7628 14.6226V14.6188Z" fill="url(#paint7_linear_0_575)"/>
<defs>
<linearGradient id="paint0_linear_0_575" x1="35.6362" y1="58.6382" x2="23.7049" y2="1.12582" gradientUnits="userSpaceOnUse">
<stop stop-color="#D3A150"/>
<stop offset="0.42" stop-color="#DDB264"/>
<stop offset="1" stop-color="#EFD186"/>
</linearGradient>
<linearGradient id="paint1_linear_0_575" x1="15.8045" y1="6.58909" x2="43.5603" y2="53.298" gradientUnits="userSpaceOnUse">
<stop stop-color="#513A01"/>
<stop offset="0.15" stop-color="#65440B"/>
<stop offset="0.46" stop-color="#986024"/>
<stop offset="0.58" stop-color="#AD6B2F"/>
<stop offset="1" stop-color="#FFE6CA"/>
</linearGradient>
<linearGradient id="paint2_linear_0_575" x1="35.1259" y1="55.9188" x2="24.3288" y2="3.86995" gradientUnits="userSpaceOnUse">
<stop stop-color="#D3A150"/>
<stop offset="0.42" stop-color="#DDB264"/>
<stop offset="1" stop-color="#EFD186"/>
</linearGradient>
<radialGradient id="paint3_radial_0_575" cx="0" cy="0" r="1" gradientUnits="userSpaceOnUse" gradientTransform="translate(35.1176 39.6461) rotate(-30.72) scale(19.1924 19.1924)">
<stop stop-color="white"/>
<stop offset="0.6" stop-color="#DDDDDD"/>
<stop offset="1" stop-color="#CCCCCC"/>
</radialGradient>
<radialGradient id="paint4_radial_0_575" cx="0" cy="0" r="1" gradientUnits="userSpaceOnUse" gradientTransform="translate(20.1959 14.259) rotate(-30.72) scale(7.19858)">
<stop stop-color="white"/>
<stop offset="0.6" stop-color="#DDDDDD"/>
<stop offset="1" stop-color="#CCCCCC"/>
</radialGradient>
<radialGradient id="paint5_radial_0_575" cx="0" cy="0" r="1" gradientUnits="userSpaceOnUse" gradientTransform="translate(24.7859 20.7164) rotate(-30.72) scale(2.13485 2.13485)">
<stop stop-color="white"/>
<stop offset="0.6" stop-color="#DDDDDD"/>
<stop offset="1" stop-color="#CCCCCC"/>
</radialGradient>
<linearGradient id="paint6_linear_0_575" x1="8.857" y1="69.5306" x2="29.2983" y2="0.716876" gradientUnits="userSpaceOnUse">
<stop stop-color="white" stop-opacity="0"/>
<stop offset="1" stop-color="white" stop-opacity="0.3"/>
</linearGradient>
<linearGradient id="paint7_linear_0_575" x1="30.8015" y1="76.0492" x2="51.2418" y2="7.23383" gradientUnits="userSpaceOnUse">
<stop stop-color="white" stop-opacity="0"/>
<stop offset="1" stop-color="white" stop-opacity="0.3"/>
</linearGradient>
</defs>
</svg>
