<svg width="116" height="32" viewBox="0 0 116 32" fill="none" xmlns="http://www.w3.org/2000/svg">
<g clip-path="url(#clip0_0_484)">
<path d="M35.6328 24.0894V7.6319H47.4762V10.6216H38.7408V15.1202H47.0061V17.9945H38.7408V24.0922H35.6328V24.0894Z" fill="white"/>
<path d="M52.7293 7.6319V24.0922H49.8804V7.6319H52.7293Z" fill="white"/>
<path d="M55.7191 12.4346V24.0894H58.5933V12.4346H55.7191Z" fill="white"/>
<path d="M58.8524 9.20843C58.8524 11.4437 55.4601 11.4437 55.4601 9.20843C55.4601 6.97319 58.8524 6.97037 58.8524 9.20843Z" fill="url(#paint0_linear_0_484)"/>
<path d="M61.6535 28.9399V12.4796H64.3391L64.5277 14.0815C65.423 12.7865 66.9769 12.2206 68.2944 12.2206C71.8725 12.2206 74.2513 14.881 74.2513 18.2958C74.2513 21.7106 72.109 24.3709 68.3873 24.3709C67.1627 24.3709 65.3498 23.9937 64.5249 22.7212V28.9371H61.6506L61.6535 28.9399ZM71.377 18.2958C71.377 16.4828 70.1524 14.9992 68.0805 14.9992C66.0085 14.9992 64.7839 16.4828 64.7839 18.2958C64.7839 20.1087 66.1268 21.5923 68.0805 21.5923C70.0342 21.5923 71.377 20.1087 71.377 18.2958Z" fill="white"/>
<path d="M76.8412 28.9399V12.4796H79.5241L79.7127 14.0815C80.6079 12.7865 82.1619 12.2206 83.4794 12.2206C87.0575 12.2206 89.4363 14.881 89.4363 18.2958C89.4363 21.7106 87.294 24.3709 83.5723 24.3709C82.3477 24.3709 80.5347 23.9937 79.7099 22.7212V28.9371H76.8384L76.8412 28.9399ZM86.5648 18.2958C86.5648 16.4828 85.3402 14.9992 83.2683 14.9992C81.1963 14.9992 79.9717 16.4828 79.9717 18.2958C79.9717 20.1087 81.3146 21.5923 83.2683 21.5923C85.222 21.5923 86.5648 20.1087 86.5648 18.2958Z" fill="white"/>
<path d="M94.4783 19.3092C94.6669 20.745 95.914 21.781 97.9409 21.781C98.9995 21.781 100.39 21.3812 101.049 20.6971L102.884 22.5101C101.66 23.7825 99.6582 24.3934 97.8931 24.3934C93.8899 24.3934 91.5111 21.9217 91.5111 18.2001C91.5111 14.4784 93.9124 12.1249 97.6791 12.1249C101.446 12.1249 103.991 14.5263 103.543 19.3064H94.4783V19.3092ZM100.79 16.9304C100.601 15.4243 99.4245 14.6698 97.7749 14.6698C96.2209 14.6698 94.9484 15.4243 94.5262 16.9304H100.79Z" fill="white"/>
<path d="M108.889 12.4825L109.1 13.8253C109.995 12.3896 111.195 12.1756 112.374 12.1756C113.554 12.1756 114.728 12.6457 115.364 13.282L114.069 15.779C113.481 15.2835 112.94 15.0245 111.997 15.0245C110.491 15.0245 109.1 15.8241 109.1 17.9692V24.0922H106.229V12.4825H108.889Z" fill="white"/>
<path d="M27.9671 12.8822L15.5747 0C15.5747 0 3.43857 12.353 3.43012 12.3614C0.854242 14.9879 -0.159218 19.3543 1.9043 22.5805C3.58777 25.2211 6.93782 26.73 10.0232 26.5527C12.7005 26.4035 15.8985 24.7763 16.7064 22.0371C17.109 20.6718 16.7965 19.222 16.1997 17.958C16.1997 17.958 14.8541 14.0364 9.74735 15.5369L5.23464 17.0205C4.40135 17.2485 3.67504 16.3252 4.14517 15.6045C4.37883 15.2498 5.76389 14.3264 6.43953 13.876C6.43953 13.876 7.15177 13.037 7.77111 12.1277C8.75078 10.6864 10.195 9.59972 11.8981 9.24782C13.9222 8.83399 16.7853 9.16337 20.414 11.8293C20.6589 12.0067 20.9405 12.1277 21.2389 12.1503C22.1538 12.2263 24.3102 12.7555 24.603 16.114C24.603 16.114 23.2855 14.5544 21.1432 14.7149C21.1432 14.7149 23.0659 15.6298 22.6915 18.8616C22.6915 18.8616 22.5141 21.4741 19.9974 23.8839C19.0571 24.7847 19.5638 26.3753 20.856 26.5611H20.887C24.2398 27.0228 27.3168 24.9987 28.9412 22.1582C30.6894 19.0756 30.4811 15.5031 27.9615 12.8822H27.9671ZM15.5747 7.87121L13.3001 5.40794L15.5747 2.9137L17.7593 5.37415L15.5747 7.87121Z" fill="url(#paint1_linear_0_484)"/>
<path d="M21.5288 31.4173C21.5288 31.7382 21.267 32 20.9461 32H12.4555C12.1346 32 11.8728 31.7382 11.8728 31.4173C11.8728 31.2202 11.977 31.0316 12.1431 30.9246C12.4246 30.7445 12.8384 30.8289 13.1565 30.7248C13.4521 30.629 13.7196 30.4686 13.956 30.2687C14.4487 29.8549 14.8006 29.2946 15.1159 28.7401C15.2566 28.4923 15.3918 28.239 15.5269 27.9884C15.997 27.127 16.4334 26.2374 16.7937 25.3224C17.2638 26.7948 17.9282 28.1489 18.7221 29.4692C19.0374 29.9928 19.4935 30.4179 20.0649 30.6459C20.3521 30.7585 20.6533 30.8177 20.9602 30.8374C21.267 30.8571 21.526 31.0879 21.526 31.4145L21.5288 31.4173Z" fill="url(#paint2_linear_0_484)"/>
</g>
<defs>
<linearGradient id="paint0_linear_0_484" x1="53.7541" y1="6.92815" x2="66.3689" y2="15.3821" gradientUnits="userSpaceOnUse">
<stop stop-color="#12CB70"/>
<stop offset="1" stop-color="#09AC85"/>
</linearGradient>
<linearGradient id="paint1_linear_0_484" x1="15.4453" y1="5.12079" x2="15.4453" y2="32.4335" gradientUnits="userSpaceOnUse">
<stop stop-color="#12CB70"/>
<stop offset="1" stop-color="#09AC85"/>
</linearGradient>
<linearGradient id="paint2_linear_0_484" x1="16.7008" y1="5.12362" x2="16.7008" y2="32.4336" gradientUnits="userSpaceOnUse">
<stop stop-color="#12CB70"/>
<stop offset="1" stop-color="#09AC85"/>
</linearGradient>
<clipPath id="clip0_0_484">
<rect width="114.563" height="32" fill="white" transform="translate(0.800781)"/>
</clipPath>
</defs>
</svg>
