<svg width="15" height="14" viewBox="0 0 15 14" fill="none" xmlns="http://www.w3.org/2000/svg">
<g id="Frame">
<path id="Vector" d="M13.7474 11.4836V12.2325C13.7474 13.0563 13.0726 13.7303 12.248 13.7303H1.75242C0.920271 13.7303 0.253052 13.0563 0.253052 12.2325V1.74749C0.253052 0.92367 0.920271 0.249634 1.75242 0.249634H12.248C13.0726 0.249634 13.7474 0.92367 13.7474 1.74749V2.49642H7.00021C6.16806 2.49642 5.50084 3.17046 5.50084 3.99428V9.98571C5.50084 10.8095 6.16806 11.4836 7.00021 11.4836H13.7474ZM7.00021 9.98571H14.497V3.99428H7.00021V9.98571ZM9.99894 8.11338C9.37671 8.11338 8.87442 7.6116 8.87442 6.98999C8.87442 6.36838 9.37671 5.8666 9.99894 5.8666C10.6212 5.8666 11.1235 6.36838 11.1235 6.98999C11.1235 7.6116 10.6212 8.11338 9.99894 8.11338Z" fill="white"/>
</g>
</svg>
