<svg width="24" height="24" viewBox="0 0 24 24" fill="none" xmlns="http://www.w3.org/2000/svg">
<rect x="2.83636" y="20.9455" width="18.5455" height="0.872727" rx="0.218182" fill="white"/>
<path d="M3.70911 16.3636C3.70911 16.2431 3.80679 16.1454 3.92729 16.1454H6.54547C6.66597 16.1454 6.76365 16.2431 6.76365 16.3636V20.9454H3.70911V16.3636Z" fill="white"/>
<path d="M8.29089 14.6182C8.29089 14.4977 8.38858 14.4 8.50908 14.4H11.1273C11.2478 14.4 11.3454 14.4977 11.3454 14.6182V20.9454H8.29089V14.6182Z" fill="white"/>
<path d="M12.8727 13.0909C12.8727 12.9704 12.9704 12.8727 13.0909 12.8727H15.7091C15.8296 12.8727 15.9273 12.9704 15.9273 13.0909V20.9455H12.8727V13.0909Z" fill="white"/>
<path d="M17.6727 9.16365C17.6727 9.04315 17.7704 8.94547 17.8909 8.94547H20.5091C20.6296 8.94547 20.7273 9.04315 20.7273 9.16365V20.9455H17.6727V9.16365Z" fill="white"/>
<path d="M2.83636 13.7549C4.71779 13.7549 9.28696 13.1905 12.5123 10.9328C15.7376 8.67511 19.2316 4.88538 20.5755 3.27274M20.5755 3.27274L16.5439 4.07906M20.5755 3.27274L20.9787 6.90119" stroke="white" stroke-linecap="round"/>
</svg>
