<svg width="24" height="24" viewBox="0 0 24 24" fill="none" xmlns="http://www.w3.org/2000/svg">
<path d="M20.7837 7.38504C20.788 7.34368 20.788 7.30202 20.7837 7.26067C20.7837 6.01693 17.3534 5 13.112 5C8.87051 5 5.47116 6.02425 5.47116 7.26798C5.46689 7.32156 5.46689 7.37536 5.47116 7.42893C5.46022 7.41472 5.44991 7.40007 5.44026 7.38504V9.25064C5.44026 9.65302 5.91153 10.092 6.73819 10.4944C6.73819 10.4944 8.77007 11.6503 13.1197 11.6942C14.9568 11.7164 16.7848 11.4469 18.5277 10.8968C19.9338 10.4285 20.776 9.82861 20.776 9.29453V7.42162C20.7797 7.39981 20.7797 7.37758 20.776 7.35577C20.7812 7.36472 20.7838 7.37481 20.7837 7.38504ZM7.37943 6.88023C7.94341 6.14862 10.2998 5.62918 13.1197 5.62918C15.9396 5.62918 18.3578 6.17789 18.8831 6.90218C18.9509 6.98928 18.9886 7.09401 18.9913 7.20214C18.9913 7.20214 18.9913 7.48015 18.9913 7.5021C18.8968 7.41443 18.7933 7.336 18.6823 7.26798C17.8556 6.71196 15.6692 6.39005 13.1351 6.39005C10.6011 6.39005 8.49967 6.6827 7.64983 7.22408C7.507 7.29441 7.37875 7.38859 7.27127 7.5021V7.20214C7.2717 7.08688 7.30945 6.97453 7.37943 6.88023ZM19.3699 11.6064V13.472C19.3699 14.0061 18.5355 14.606 17.1217 15.0815C15.3792 15.633 13.5505 15.9002 11.7136 15.8717C7.33308 15.8278 5.30119 14.7011 5.30119 14.7011C4.47454 14.2768 4.00326 13.8378 4.00326 13.4354V11.6064C3.99951 11.5846 3.99951 11.5624 4.00326 11.5406C3.99891 11.5017 3.99891 11.4624 4.00326 11.4235C4.00326 11.0431 4.44363 10.5895 5.20076 10.2383V10.3115C5.20076 10.7358 5.71839 11.1967 6.63003 11.6137C6.63003 11.6137 8.62328 12.6233 12.8879 12.7477C14.7264 12.7982 16.5591 12.5304 18.296 11.9576C18.6454 11.8432 18.9861 11.7063 19.3158 11.5479C19.3058 11.6187 19.285 11.6877 19.254 11.7527C19.2913 11.6898 19.3223 11.6236 19.3467 11.5552L19.3699 11.6064ZM21 15.7327V17.5617C21 17.9641 20.5287 18.403 19.7021 18.8054C19.7021 18.8054 17.6702 19.954 13.3128 19.9979C11.4759 20.0264 9.64723 19.7592 7.90479 19.2078C6.46779 18.7396 5.6334 18.1397 5.6334 17.6275V15.6668C5.65329 15.7193 5.67651 15.7706 5.70294 15.8205C6.01071 15.9665 6.32813 16.0936 6.65321 16.2009C8.39101 16.7703 10.2231 17.0379 12.0613 16.991C16.3259 16.8593 18.3192 15.857 18.3192 15.857C19.2231 15.44 19.7484 14.9791 19.7484 14.5548V14.4963C20.521 14.8474 20.9382 15.2279 20.9382 15.7034V15.6595C20.9645 15.6791 20.9856 15.7041 21 15.7327Z" fill="white"/>
</svg>
