<svg width="24" height="24" viewBox="0 0 24 24" fill="none" xmlns="http://www.w3.org/2000/svg">
<path d="M21.4251 10.5H17.5289C17.9453 11.4247 17.7625 12.5375 16.971 13.2913L12.5 17.5494V19C12.5 19.8285 13.2052 20.5 14.075 20.5H21.4251C22.2949 20.5 23 19.8285 23 19V12C23 11.1716 22.2949 10.5 21.4251 10.5ZM17.75 16.2501C17.3153 16.2501 16.9625 15.9141 16.9625 15.5C16.9625 15.0857 17.3153 14.75 17.75 14.75C18.1848 14.75 18.5376 15.0857 18.5376 15.5C18.5376 15.9141 18.1848 16.2501 17.75 16.2501ZM16.2285 10.4156L10.4886 4.94906C9.85992 4.35031 8.84043 4.35031 8.21175 4.94906L2.47152 10.4156C1.84283 11.0144 1.84283 11.9853 2.47152 12.5841L8.21141 18.051C8.84011 18.6497 9.85958 18.6497 10.4883 18.051L16.2285 12.5844C16.8572 11.9853 16.8572 11.0144 16.2285 10.4156ZM5.15 12.25C4.71523 12.25 4.36251 11.9141 4.36251 11.5C4.36251 11.0856 4.71523 10.75 5.15 10.75C5.58477 10.75 5.9375 11.0856 5.9375 11.5C5.9375 11.9141 5.58477 12.25 5.15 12.25ZM9.35001 16.2501C8.91524 16.2501 8.56251 15.9141 8.56251 15.5C8.56251 15.0857 8.91524 14.75 9.35001 14.75C9.78477 14.75 10.1375 15.0857 10.1375 15.5C10.1375 15.9141 9.78477 16.2501 9.35001 16.2501ZM9.35001 12.25C8.91524 12.25 8.56251 11.9141 8.56251 11.5C8.56251 11.0856 8.91524 10.75 9.35001 10.75C9.78477 10.75 10.1375 11.0856 10.1375 11.5C10.1375 11.9141 9.78477 12.25 9.35001 12.25ZM9.35001 8.25C8.91524 8.25 8.56251 7.91406 8.56251 7.5C8.56251 7.08563 8.91524 6.75001 9.35001 6.75001C9.78477 6.75001 10.1375 7.08563 10.1375 7.5C10.1375 7.91406 9.78477 8.25 9.35001 8.25ZM13.55 12.25C13.1152 12.25 12.7625 11.9141 12.7625 11.5C12.7625 11.0856 13.1152 10.75 13.55 10.75C13.9848 10.75 14.3376 11.0856 14.3376 11.5C14.3376 11.9141 13.9848 12.25 13.55 12.25Z" fill="white"/>
</svg>
