<svg width="24" height="24" viewBox="0 0 24 24" fill="none" xmlns="http://www.w3.org/2000/svg">
<path d="M16.5293 15.1761C13.2371 15.1761 10.5683 12.5063 10.5683 9.21303C10.5683 5.91974 13.2371 3.25 16.5293 3.25C19.8214 3.25 22.4902 5.91974 22.4902 9.21303C22.4902 12.5063 19.8214 15.1761 16.5293 15.1761Z" fill="white" stroke="white" stroke-width="0.931723"/>
<path d="M5.39066 16.0338C3.51809 16.0338 2.00007 14.5152 2.00007 12.642C2.00007 10.7688 3.51809 9.25024 5.39066 9.25024C7.26323 9.25024 8.78125 10.7688 8.78125 12.642C8.78125 14.5152 7.26323 16.0338 5.39066 16.0338Z" fill="white" stroke="white" stroke-width="0.931723"/>
<path d="M10.9593 20.3197C9.79667 20.3197 8.85416 19.3768 8.85416 18.2138C8.85416 17.0507 9.79667 16.1079 10.9593 16.1079C12.1219 16.1079 13.0645 17.0507 13.0645 18.2138C13.0645 19.3768 12.1219 20.3197 10.9593 20.3197Z" fill="white" stroke="white" stroke-width="0.931723"/>
<path d="M15.6723 7.92749L16.1533 9.40837H17.7098L16.4505 10.3236L16.9316 11.8045L15.6723 10.8892L14.413 11.8045L14.894 10.3236L13.6348 9.40837H15.1913L15.6723 7.92749Z" fill="#121C23"/>
<path d="M20.9187 7.99495C20.9187 6.28047 18.3478 4.70878 17.4908 4.56591C15.7769 4.13728 18.7763 5.85184 18.3478 7.13769C17.9193 8.42352 20.9187 9.70941 20.9187 7.99495Z" fill="#121C23"/>
</svg>
