<svg width="24" height="24" viewBox="0 0 24 24" fill="none" xmlns="http://www.w3.org/2000/svg">
<rect width="24" height="24" fill="#F5F5F5"/>
<g id="Flipper- Roulette">
<g clip-path="url(#clip0_0_1)">
<rect x="-40" y="-334" width="1440" height="1200" rx="16" fill="#0E131B"/>
<g id="Frame 2">
<mask id="path-2-inside-1_0_1" fill="white">
<path d="M-40 -262H205V866H-40V-262Z"/>
</mask>
<path d="M-40 -262H205V866H-40V-262Z" fill="#121C23"/>
<path d="M204 -262V866H206V-262H204Z" fill="#18262F" mask="url(#path-2-inside-1_0_1)"/>
<g id="Frame 46">
<g id="Frame 44">
<g id="Frame 81">
<path id="Vector" fill-rule="evenodd" clip-rule="evenodd" d="M13.7057 14.0899C13.5056 14.2485 13.3966 14.5153 13.4943 14.7512L15.7813 20.2728C15.8836 20.5198 16.1687 20.6367 16.4084 20.5183C18.166 19.6496 19.5896 18.226 20.4583 16.4684C20.5767 16.2287 20.4598 15.9436 20.2128 15.8413L14.6915 13.5544C14.4555 13.4567 14.1886 13.5659 14.0298 13.7659C13.9336 13.8872 13.8246 13.9956 13.7057 14.0899Z" fill="white"/>
<path id="Vector_2" fill-rule="evenodd" clip-rule="evenodd" d="M10.3759 14.0899C10.5759 14.2485 10.6849 14.5153 10.5872 14.7512L8.30024 20.2728C8.19793 20.5198 7.91282 20.6367 7.67315 20.5183C5.91558 19.6496 4.49197 18.226 3.62327 16.4684C3.50481 16.2287 3.62176 15.9436 3.86876 15.8413L9.39009 13.5544C9.62607 13.4567 9.8929 13.5659 10.0517 13.7659C10.148 13.8872 10.257 13.9956 10.3759 14.0899Z" fill="white"/>
<path id="Vector_3" fill-rule="evenodd" clip-rule="evenodd" d="M14.0899 10.3159C14.2485 10.516 14.5153 10.625 14.7512 10.5273L20.2728 8.24028C20.5198 8.13798 20.6367 7.85287 20.5183 7.6132C19.6496 5.85563 18.226 4.43202 16.4684 3.56332C16.2287 3.44486 15.9436 3.56181 15.8413 3.80881L13.5544 9.33014C13.4567 9.56612 13.5659 9.83294 13.7659 9.99177C13.8872 10.088 13.9956 10.197 14.0899 10.3159Z" fill="white"/>
<path id="Vector_4" fill-rule="evenodd" clip-rule="evenodd" d="M9.93168 10.3759C9.77302 10.576 9.50621 10.685 9.27031 10.5873L3.74876 8.30031C3.50176 8.19801 3.38481 7.9129 3.50327 7.67323C4.37198 5.91566 5.79559 4.49205 7.55315 3.62335C7.79283 3.50489 8.07793 3.62183 8.18024 3.86883L10.4671 9.39016C10.5649 9.62615 10.4556 9.89297 10.2556 10.0518C10.1343 10.1481 10.026 10.257 9.93168 10.3759Z" fill="white"/>
<path id="Vector_5" fill-rule="evenodd" clip-rule="evenodd" d="M9.19012 11.233C9.4259 11.3307 9.53739 11.5962 9.50829 11.8498C9.4906 12.0039 9.49105 12.1578 9.50845 12.3089C9.53765 12.5623 9.42603 12.8277 9.19033 12.9253L3.6683 15.2125C3.42129 15.3148 3.137 15.1959 3.0513 14.9426C2.42292 13.0857 2.42292 11.0727 3.0513 9.21578C3.137 8.96253 3.42129 8.84361 3.6683 8.94591L9.19012 11.233Z" fill="white"/>
<path id="Vector_6" fill-rule="evenodd" clip-rule="evenodd" d="M11.8504 14.6229C11.5966 14.5937 11.3305 14.7052 11.2327 14.9412L8.94591 20.4624C8.84361 20.7094 8.96253 20.9937 9.21578 21.0794C11.0727 21.7077 13.0857 21.7077 14.9426 21.0794C15.1959 20.9937 15.3148 20.7094 15.2125 20.4624L12.9255 14.9409C12.8278 14.705 12.562 14.5934 12.3084 14.6227C12.1577 14.6401 12.0041 14.6405 11.8504 14.6229Z" fill="white"/>
<path id="Vector_7" fill-rule="evenodd" clip-rule="evenodd" d="M14.4429 12.2822C14.4138 12.536 14.5252 12.8021 14.7612 12.8999L20.2824 15.1867C20.5294 15.289 20.8137 15.1701 20.8994 14.9168C21.5278 13.0599 21.5278 11.0469 20.8994 9.18996C20.8137 8.93671 20.5294 8.81779 20.2824 8.9201L14.7609 11.2071C14.525 11.3048 14.4134 11.5706 14.4427 11.8242C14.4601 11.9749 14.4605 12.1285 14.4429 12.2822Z" fill="white"/>
<path id="Subtract" fill-rule="evenodd" clip-rule="evenodd" d="M14.9341 3.30913L12.7969 7.03691C12.6286 7.33169 12.3382 7.49997 12.0003 7.49997C11.6624 7.49997 11.3721 7.33169 11.2038 7.03691L9.0666 3.30913C9.01086 3.21153 8.87582 3.18085 8.84318 3.2884C8.81251 3.38946 8.81569 3.50229 8.85958 3.60825L11.1466 9.1299C11.2443 9.36581 11.5101 9.47738 11.7638 9.4481C11.9145 9.43071 12.0681 9.43025 12.2218 9.44789C12.4756 9.47703 12.7416 9.3656 12.8394 9.12954L15.1263 3.60825C15.1695 3.50384 15.1733 3.39277 15.144 3.29285C15.1143 3.19134 14.9865 3.21728 14.9341 3.30913Z" fill="white"/>
<path id="Vector_8" fill-rule="evenodd" clip-rule="evenodd" d="M12.5206 5.66806L13.9175 2.99582C14.0275 2.7845 14.0275 2.54325 13.9175 2.33194C13.8075 2.12063 13.6177 2 13.3969 2H10.6031C10.3823 2 10.1925 2.12063 10.0825 2.33194C9.97249 2.54325 9.97249 2.7845 10.0825 2.99582L11.4794 5.66806C11.5894 5.87937 11.7792 6 12 6C12.2208 6 12.4106 5.87937 12.5206 5.66806Z" fill="white"/>
<circle id="Ellipse 3" cx="11.97" cy="11.97" r="1.41" fill="white"/>
</g>
</g>
</g>
</g>
</g>
</g>
<defs>
<clipPath id="clip0_0_1">
<rect x="-40" y="-334" width="1440" height="1200" rx="16" fill="white"/>
</clipPath>
</defs>
</svg>
