<svg width="26" height="16" viewBox="0 0 26 16" fill="none" xmlns="http://www.w3.org/2000/svg">
<g clip-path="url(#clip0_0_506)">
<path d="M18.0426 4.39047L19.4994 6.13172C19.6661 6.32729 19.814 6.48817 19.8738 6.57964C20.3094 7.02011 20.5537 7.61541 20.5534 8.23569C20.5125 8.96753 20.0437 9.46597 19.6094 9.99902L18.59 11.2167L18.0583 11.8476C18.0393 11.8693 18.027 11.8961 18.0229 11.9249C18.0189 11.9535 18.0234 11.9828 18.0358 12.0089C18.0482 12.0351 18.0679 12.0571 18.0926 12.0721C18.1173 12.0872 18.1459 12.0946 18.1747 12.0936H23.4889C24.3006 12.0936 25.3232 12.7875 25.2634 13.8411C25.2618 14.32 25.0713 14.7788 24.7335 15.1174C24.3958 15.456 23.9383 15.6469 23.4606 15.6486H15.1385C14.591 15.6486 13.1186 15.7086 12.7064 14.431C12.6188 14.1641 12.6067 13.878 12.6718 13.6046C12.7916 13.2003 12.9811 12.8202 13.2319 12.4815C13.6503 11.8507 14.1034 11.2198 14.5501 10.6078C15.1259 9.80665 15.7175 9.03067 16.2995 8.21366C16.3202 8.18706 16.3315 8.15432 16.3315 8.12061C16.3315 8.08691 16.3202 8.05416 16.2995 8.0275L14.1852 5.50398C14.1714 5.4857 14.1536 5.47085 14.133 5.46064C14.1126 5.45043 14.0901 5.44511 14.0672 5.44511C14.0443 5.44511 14.0217 5.45043 14.0013 5.46064C13.9808 5.47085 13.963 5.4857 13.9492 5.50398C13.3829 6.27051 10.9036 9.6647 10.375 10.3523C9.84637 11.04 8.54384 11.0778 7.82332 10.3523L4.51651 7.02443C4.49539 7.00318 4.46843 6.98868 4.43911 6.98282C4.40975 6.97693 4.37933 6.97994 4.3517 6.99143C4.32405 7.00292 4.30042 7.02238 4.28384 7.04735C4.26725 7.07232 4.25845 7.10166 4.25851 7.13166V13.532C4.26628 13.9862 4.13215 14.4314 3.87484 14.8053C3.61757 15.1792 3.25005 15.4631 2.82378 15.6171C2.5514 15.7122 2.26033 15.7405 1.97478 15.6999C1.68925 15.6592 1.41756 15.5507 1.18234 15.3834C0.947119 15.2161 0.755193 14.9949 0.622575 14.7381C0.489989 14.4813 0.420518 14.1965 0.419983 13.9074V2.40001C0.438955 1.98531 0.587776 1.58716 0.845336 1.26212C1.10289 0.937076 1.45607 0.701688 1.85471 0.589371C2.19665 0.498045 2.55659 0.49896 2.89806 0.592027C3.23954 0.685075 3.5504 0.867011 3.79914 1.11933L8.88362 6.2232C8.89882 6.23869 8.91727 6.25066 8.93758 6.25822C8.95796 6.26577 8.97972 6.26878 9.00135 6.26696C9.0229 6.26516 9.04391 6.2586 9.0627 6.24778C9.08149 6.23693 9.09766 6.22208 9.11016 6.20425L12.7221 1.19186C12.889 0.988385 13.0983 0.823959 13.3353 0.710074C13.5723 0.596188 13.8312 0.535629 14.0939 0.532588H23.4889C23.746 0.533037 24.0001 0.588475 24.2341 0.695254C24.4681 0.802066 24.6767 0.957722 24.8459 1.15182C25.015 1.34592 25.1409 1.57401 25.2151 1.82083C25.2893 2.06764 25.3101 2.32748 25.276 2.58297C25.2098 3.02619 24.9855 3.43033 24.6448 3.72035C24.3039 4.01038 23.8698 4.16667 23.4228 4.16021H18.1622C18.1357 4.16085 18.1099 4.16859 18.0875 4.18261C18.065 4.19664 18.0468 4.21645 18.0346 4.23994C18.0223 4.26346 18.0167 4.28984 18.0181 4.31631C18.0195 4.34278 18.028 4.36839 18.0426 4.39047Z" fill="white"/>
</g>
<defs>
<clipPath id="clip0_0_506">
<rect width="24.878" height="15.1963" fill="white" transform="translate(0.417053 0.521545)"/>
</clipPath>
</defs>
</svg>
