<svg width="16" height="16" viewBox="0 0 16 16" fill="none" xmlns="http://www.w3.org/2000/svg">
<g id="solana-sol-logo">
<path id="Vector" d="M2.62401 11.276C2.72001 11.18 2.85201 11.124 2.99201 11.124H15.688C15.92 11.124 16.036 11.404 15.872 11.568L13.364 14.076C13.268 14.172 13.136 14.228 12.996 14.228H0.300006C0.0680062 14.228 -0.0479938 13.948 0.116006 13.784L2.62401 11.276Z" fill="url(#paint0_linear_0_466)"/>
<path id="Vector_2" d="M2.62401 1.91201C2.72401 1.81601 2.85601 1.76001 2.99201 1.76001H15.688C15.92 1.76001 16.036 2.04001 15.872 2.20401L13.364 4.71201C13.268 4.80801 13.136 4.86401 12.996 4.86401H0.300006C0.0680062 4.86401 -0.0479938 4.58401 0.116006 4.42001L2.62401 1.91201Z" fill="url(#paint1_linear_0_466)"/>
<path id="Vector_3" d="M13.364 6.56399C13.268 6.46799 13.136 6.41199 12.996 6.41199H0.300006C0.0680062 6.41199 -0.0479938 6.69199 0.116006 6.85599L2.62401 9.36399C2.72001 9.45999 2.85201 9.51599 2.99201 9.51599H15.688C15.92 9.51599 16.036 9.23599 15.872 9.07199L13.364 6.56399Z" fill="url(#paint2_linear_0_466)"/>
</g>
<defs>
<linearGradient id="paint0_linear_0_466" x1="14.4752" y1="0.261808" x2="5.68852" y2="17.0918" gradientUnits="userSpaceOnUse">
<stop stop-color="#00FFA3"/>
<stop offset="1" stop-color="#DC1FFF"/>
</linearGradient>
<linearGradient id="paint1_linear_0_466" x1="10.6332" y1="-1.74405" x2="1.84653" y2="15.0859" gradientUnits="userSpaceOnUse">
<stop stop-color="#00FFA3"/>
<stop offset="1" stop-color="#DC1FFF"/>
</linearGradient>
<linearGradient id="paint2_linear_0_466" x1="12.5419" y1="-0.747531" x2="3.75529" y2="16.0824" gradientUnits="userSpaceOnUse">
<stop stop-color="#00FFA3"/>
<stop offset="1" stop-color="#DC1FFF"/>
</linearGradient>
</defs>
</svg>
