<svg width="20" height="16" viewBox="0 0 20 16" fill="none" xmlns="http://www.w3.org/2000/svg">
<g clip-path="url(#clip0_0_503)">
<path d="M16.5083 1.79424C15.301 1.19968 14.0102 0.767585 12.6606 0.521545C12.4948 0.83696 12.3012 1.2612 12.1677 1.59868C10.7331 1.37159 9.31164 1.37159 7.90339 1.59868C7.76994 1.2612 7.57188 0.83696 7.40465 0.521545C6.05362 0.767585 4.76127 1.20127 3.55399 1.79738C1.11891 5.67059 0.458799 9.4476 0.788855 13.171C2.40393 14.4405 3.96913 15.2117 5.50792 15.7163C5.88785 15.1659 6.22671 14.5809 6.51861 13.9642C5.96266 13.7419 5.43017 13.4674 4.92704 13.1489C5.06052 13.0449 5.19108 12.936 5.31722 12.824C8.38602 14.3348 11.7203 14.3348 14.7524 12.824C14.88 12.936 15.0106 13.0449 15.1426 13.1489C14.638 13.469 14.104 13.7435 13.5481 13.9658C13.84 14.5809 14.1774 15.1675 14.5588 15.7179C16.0991 15.2132 17.6657 14.4421 19.2808 13.171C19.6681 8.85467 18.6192 5.11231 16.5083 1.79424ZM6.93669 10.8811C6.01548 10.8811 5.26001 9.97588 5.26001 8.87352C5.26001 7.77124 5.99934 6.86441 6.93669 6.86441C7.8741 6.86441 8.62951 7.76965 8.61335 8.87352C8.61487 9.97588 7.8741 10.8811 6.93669 10.8811ZM13.133 10.8811C12.2117 10.8811 11.4563 9.97588 11.4563 8.87352C11.4563 7.77124 12.1956 6.86441 13.133 6.86441C14.0703 6.86441 14.8258 7.76965 14.8096 8.87352C14.8096 9.97588 14.0703 10.8811 13.133 10.8811Z" fill="white"/>
</g>
<defs>
<clipPath id="clip0_0_503">
<rect width="18.6516" height="15.1963" fill="white" transform="translate(0.708679 0.521545)"/>
</clipPath>
</defs>
</svg>
