<svg width="19" height="16" viewBox="0 0 19 16" fill="none" xmlns="http://www.w3.org/2000/svg">
<g clip-path="url(#clip0_0_500)">
<path d="M18.2286 2.27531C17.9356 2.40463 17.6344 2.51379 17.3266 2.6024C17.691 2.19227 17.9688 1.70969 18.1384 1.18159C18.1765 1.06322 18.137 0.933657 18.0393 0.85624C17.9416 0.778764 17.806 0.769483 17.6985 0.832889C17.0448 1.21872 16.3396 1.49599 15.6001 1.65813C14.8553 0.933777 13.8436 0.521545 12.7977 0.521545C10.5901 0.521545 8.79396 2.30896 8.79396 4.50597C8.79396 4.67901 8.80494 4.85108 8.82677 5.02077C6.08725 4.78139 3.5404 3.44136 1.79148 1.30631C1.72915 1.23021 1.63314 1.1892 1.53483 1.19704C1.43646 1.20471 1.34808 1.25991 1.29839 1.34475C0.943673 1.95049 0.756146 2.64329 0.756146 3.34819C0.756146 4.30827 1.10058 5.21919 1.709 5.93097C1.524 5.8672 1.34448 5.78751 1.17313 5.69285C1.08115 5.6419 0.968878 5.64268 0.877491 5.69482C0.786049 5.74697 0.728709 5.84289 0.726306 5.94773C0.725884 5.96539 0.725884 5.98306 0.725884 6.00096C0.725884 7.43402 1.5009 8.72425 2.68579 9.4275C2.584 9.41735 2.48227 9.4027 2.38119 9.3835C2.27699 9.36368 2.16984 9.40001 2.09958 9.4791C2.02918 9.55812 2.0059 9.66829 2.03833 9.76886C2.47691 11.1316 3.6061 12.134 4.97118 12.4396C3.83899 13.1453 2.54424 13.515 1.18504 13.515C0.90144 13.515 0.616209 13.4984 0.337056 13.4655C0.198381 13.4491 0.0657834 13.5306 0.0185558 13.6618C-0.0286716 13.7931 0.0213835 13.9395 0.139362 14.0148C1.88546 15.129 3.90444 15.7179 5.97794 15.7179C10.0542 15.7179 12.6042 13.8049 14.0255 12.2001C15.7979 10.1991 16.8144 7.55041 16.8144 4.93341C16.8144 4.82408 16.8127 4.71367 16.8093 4.60362C17.5086 4.07931 18.1107 3.44477 18.6005 2.71544C18.6749 2.60467 18.6669 2.45828 18.5807 2.35632C18.4946 2.25429 18.3511 2.2213 18.2286 2.27531Z" fill="white"/>
</g>
<defs>
<clipPath id="clip0_0_500">
<rect width="18.6516" height="15.1963" fill="white" transform="translate(-6.10352e-05 0.521545)"/>
</clipPath>
</defs>
</svg>
